<svg width="31px" height="14px" viewBox="0 0 31 14" version="1.1" xmlns="http://www.w3.org/2000/svg" xmlns:xlink="http://www.w3.org/1999/xlink">
    <title>email</title>
     <path d="M27.6396958,1 C28.1760577,1 29.0756483,1.23103919 29.0756483,2.77578475 C29.0756483,2.85942679 29.0633652,2.94189901 29.038799,3.02203159 L26.4815754,11.3692728 C26.4072919,12.2811464 25.6346266,13 24.6964321,13 L8.86761552,13 C7.87970365,13 7.07603821,12.2033535 7.07603821,11.2242152 C7.07603821,11.1405732 7.0877364,11.058101 7.11230259,10.9785533 L9.67186586,2.62370833 C9.77948918,1.6135699 10.9557419,1 11.8102944,1 L27.6396958,1 Z M24.6964321,11.3230649 C24.7590174,11.3230649 24.8104894,11.2786118 24.8104894,11.2242152 C24.8104894,11.1405732 24.8221876,11.058101 24.8473387,10.9785533 L27.3911094,2.67751998 L12.2039384,2.67751998 L17.4213297,6.23376877 L26.0481575,2.85006824 C26.2634042,2.76525639 26.5067265,2.87112498 26.5921232,3.08695652 C26.6769351,3.30220316 26.5710665,3.54552544 26.3552349,3.6303373 L17.5213492,7.09534022 C17.5166699,7.09767986 17.5102359,7.09709495 17.5043868,7.09884968 C17.4605186,7.11347241 17.4160655,7.12400078 17.3692728,7.12458569 L17.3686879,7.12458569 C17.3259895,7.12458569 17.2827062,7.11639696 17.2411776,7.10352895 C17.2031585,7.09124586 17.1668941,7.0748684 17.1341392,7.05264184 C17.1335543,7.05205693 17.1323845,7.05205693 17.1323845,7.05205693 L11.5424059,3.24137259 C11.4119711,3.15246637 11.3493858,3.00331449 11.3628388,2.85708715 C11.3540651,2.86410606 11.3411971,2.87054007 11.3341782,2.87755898 C11.3283291,2.92669136 11.3178007,2.97523884 11.303178,3.02203159 L8.77403003,11.2809515 C8.79450185,11.3061026 8.8290115,11.3230649 8.86761552,11.3230649 L24.6964321,11.3230649 Z M24.4817703,10.5498148 L19.7323065,7.47845584 C19.5381166,7.35270033 19.2784168,7.40768181 19.1520764,7.60304153 C19.0269058,7.79723143 19.0824722,8.05634627 19.277247,8.18210177 L24.0267109,11.2540456 C24.0969,11.2996686 24.1758627,11.3213102 24.2542406,11.3213102 C24.3911094,11.3213102 24.5262234,11.2540456 24.606356,11.1294599 C24.7309417,10.9358549 24.6759602,10.6761552 24.4817703,10.5498148 Z M15.1600702,6.94677325 L9.57067655,10.1210762 C9.36888282,10.2351336 9.29810879,10.4913238 9.41216611,10.6925327 C9.48995906,10.8282316 9.63150712,10.9048547 9.77714954,10.9048547 C9.84733866,10.9048547 9.91811269,10.8878924 9.98420745,10.8504582 L15.5736011,7.6761552 C15.7753948,7.56151297 15.8461688,7.30532267 15.7315266,7.10411386 C15.6168844,6.90290505 15.3606941,6.83213102 15.1600702,6.94677325 Z M5.85006824,7.87151492 C6.31331644,7.87151492 6.68882823,8.24761162 6.68882823,8.71027491 C6.68882823,9.17410801 6.31331644,9.5490349 5.85006824,9.5490349 L4.1251706,9.5490349 C3.66250731,9.5490349 3.28641061,9.17410801 3.28641061,8.71027491 C3.28641061,8.24761162 3.66250731,7.87151492 4.1251706,7.87151492 L5.85006824,7.87151492 Z M6.76311172,5.59387795 C7.22635991,5.59387795 7.60187171,5.96997465 7.60187171,6.43263794 C7.60187171,6.89588614 7.22694482,7.27139793 6.76311172,7.27139793 L2.84363424,7.27139793 C2.38038604,7.27139793 2.00487424,6.89588614 2.00487424,6.43263794 C2.00487424,5.96997465 2.38038604,5.59387795 2.84363424,5.59387795 L6.76311172,5.59387795 Z M7.5451355,3.04133359 C8.0083837,3.04133359 8.3838955,3.4174303 8.3838955,3.88009359 C8.3838955,4.34392669 8.0083837,4.71885358 7.54572041,4.71885358 L1.83875999,4.71885358 C1.3755118,4.71885358 1,4.34392669 1,3.88009359 C1,3.4174303 1.3755118,3.04133359 1.83875999,3.04133359 L7.5451355,3.04133359 Z" fill="currentColor"> 
     </path>
</svg>