<?xml version="1.0" encoding="UTF-8" standalone="no"?>
<svg width="125px" height="100px" viewBox="0 0 125 100" version="1.1" xmlns="http://www.w3.org/2000/svg" xmlns:xlink="http://www.w3.org/1999/xlink">
    <!-- Generator: Sketch 42 (36781) - http://www.bohemiancoding.com/sketch -->
    <title>symbol-06</title>
    <desc>Created with Sketch.</desc>
    <defs></defs>
    <g id="Symbols" stroke="none" stroke-width="1" fill="none" fill-rule="evenodd">
        <g id="symbol-06" fill="#34AFC8">
            <path d="M99.5215246,88 L26.0690829,88 C24.9259146,88 24,87.0740854 24,85.9309171 L24,14.0690829 C24,12.9259146 24.9246214,12 26.0677897,12 C27.210958,12 28.1368726,12.9259146 28.1368726,14.0690829 L28.1368726,83.8618343 L40.9082865,83.8618343 L40.9082865,77.6545857 C40.9082865,77.2730985 41.2160626,76.9653224 41.5975498,76.9653224 C41.9790369,76.9653224 42.286813,77.2730985 42.286813,77.6545857 L42.286813,83.8618343 L62.1060405,83.8618343 L62.1060405,77.6545857 C62.1060405,77.2730985 62.4138166,76.9653224 62.7953037,76.9653224 C63.1767909,76.9653224 63.484567,77.2730985 63.484567,77.6545857 L63.484567,83.8618343 L86.7733878,83.8618343 L86.7733878,77.6545857 C86.7733878,77.2730985 87.082457,76.9653224 87.4639442,76.9653224 C87.8441382,76.9653224 88.1532074,77.2730985 88.1532074,77.6545857 L88.1532074,83.8618343 L99.5202314,83.8618343 C100.6634,83.8618343 101.591901,84.7877489 101.591901,85.9309171 C101.591901,87.0740854 100.664693,87.9998707 99.5215246,88 Z M40.9069934,66.7828484 L40.9069934,69.3782542 C40.9069934,69.7597414 41.2147694,70.0675174 41.5962566,70.0675174 C41.9777437,70.0675174 42.2855198,69.7597414 42.2855198,69.3782542 L42.2855198,66.7841416 C42.6333844,66.7207759 42.9773694,66.6134422 43.3097158,66.450502 C44.9145482,65.6629573 45.731836,63.9132891 45.4150077,62.2360388 L59.9024672,55.1261528 C59.9968692,55.2321933 60.0822188,55.3459929 60.1908457,55.4429811 C61.7853327,56.8809937 64.2475413,56.7529692 65.6842607,55.157189 C66.8804492,53.8303897 66.9774375,51.9100221 66.0618683,50.4720095 L85.7323805,28.6405989 C86.0660201,28.8074188 86.4151778,28.9289774 86.7733878,28.9910499 L86.7733878,36.270342 C86.7733878,36.6518292 87.082457,36.9596052 87.4639442,36.9596052 C87.8441382,36.9596052 88.1532074,36.6518292 88.1532074,36.270342 L88.1532074,28.9871703 C88.9717883,28.8397482 89.7515739,28.4453292 90.3529011,27.77805 C91.7896206,26.183563 91.6628892,23.7213544 90.0658159,22.284635 C88.4713289,20.8466224 86.0104135,20.9746469 84.5724009,22.5704271 C83.3762124,23.8972265 83.2792241,25.8188872 84.1947933,27.2556066 L64.5255743,49.0883104 C62.9996257,48.3266292 61.1025353,48.6227667 59.9063468,49.9495661 C59.0619023,50.8871193 58.7722307,52.1195168 58.9868981,53.2691509 L44.5046112,60.3777437 C43.3717883,59.1013783 41.4902161,58.6785094 39.8840905,59.4660541 C37.9559639,60.4113663 37.1606602,62.7429641 38.1059724,64.6710907 C38.6710907,65.8246044 39.7327888,66.568181 40.9069934,66.7828484 Z M62.1060405,61.1006296 L62.1060405,69.376961 C62.1060405,69.7584482 62.4138166,70.0662243 62.7953037,70.0662243 C63.1767909,70.0662243 63.484567,69.7584482 63.484567,69.376961 L63.484567,61.1006296 C63.484567,60.7191424 63.1767909,60.4113663 62.7953037,60.4113663 C62.4138166,60.4113663 62.1060405,60.7191424 62.1060405,61.1006296 Z M87.4639442,60.4113663 C87.082457,60.4113663 86.7733878,60.7191424 86.7733878,61.1006296 L86.7733878,69.376961 C86.7733878,69.7584482 87.082457,70.0662243 87.4639442,70.0662243 C87.8441382,70.0662243 88.1532074,69.7584482 88.1532074,69.376961 L88.1532074,61.1006296 C88.1532074,60.7191424 87.8441382,60.4113663 87.4639442,60.4113663 Z M88.1532074,44.5479666 C88.1532074,44.1664795 87.8441382,43.8574102 87.4639442,43.8574102 C87.082457,43.8574102 86.7733878,44.1664795 86.7733878,44.5479666 L86.7733878,52.8230049 C86.7733878,53.2044921 87.082457,53.5135613 87.4639442,53.5135613 C87.8441382,53.5135613 88.1532074,53.2044921 88.1532074,52.8230049 L88.1532074,44.5479666 Z" id="Page-1"></path>
        </g>
    </g>
</svg>