<?xml version="1.0" encoding="UTF-8" standalone="no"?>
<svg width="125px" height="100px" viewBox="0 0 125 100" version="1.1" xmlns="http://www.w3.org/2000/svg" xmlns:xlink="http://www.w3.org/1999/xlink">
    <!-- Generator: Sketch 42 (36781) - http://www.bohemiancoding.com/sketch -->
    <title>symbol-02</title>
    <desc>Created with Sketch.</desc>
    <defs></defs>
    <g id="Symbols" stroke="none" stroke-width="1" fill="none" fill-rule="evenodd">
        <g id="symbol-02" fill="#34AFC8">
            <path d="M68.6251792,29.0029163 L68.7884592,29.0398149 C69.0328564,29.1145084 69.2760586,29.1921897 69.5186631,29.2728587 C70.3743521,29.5650598 71.2145049,29.8980435 72.0355361,30.2773372 C76.3229444,32.2576119 80.0389473,35.3475336 83.1514264,38.8672419 C84.7498678,40.6748252 86.2010136,42.6114789 87.5121837,44.6365697 C88.9207542,46.8120933 90.168883,49.0915903 91.2535824,51.4453326 C92.327974,53.7769657 93.2431191,56.1832922 93.9776552,58.6433982 C94.609413,60.7594657 95.108067,62.9167641 95.4429928,65.0999064 C95.5846117,66.0226702 95.696652,66.9499156 95.7758271,67.8799994 C95.8309509,68.5301318 95.8700903,69.1814593 95.8916021,69.8335338 C96.008124,73.3728118 95.6094099,76.9746829 94.3216936,80.292868 C94.1124023,80.8321553 93.8802549,81.3624793 93.624803,81.8815993 C93.2767312,82.5886482 92.8854865,83.2743347 92.4524134,83.9326835 C91.7873423,84.9431375 91.0236757,85.8878612 90.1773981,86.7520652 C88.5109856,88.4538825 86.53579,89.8283927 84.4162866,90.9059215 C82.2074496,92.0290133 79.8478812,92.8376454 77.4454387,93.4314589 C76.7198658,93.6107234 75.9895125,93.7704182 75.2557233,93.912784 C74.3765806,94.0835334 73.4928068,94.2293352 72.6058959,94.353924 C71.4296223,94.519146 70.2479707,94.6470214 69.0640783,94.7439736 C67.5648299,94.8669191 66.0618468,94.9404175 64.5581168,94.9752247 C62.4668475,95.0233273 60.3727398,95.0027119 58.2832632,94.9017263 C54.7695304,94.7320226 51.252063,94.3333086 47.825871,93.5185516 C45.5191856,92.9701517 43.2502951,92.2287438 41.1077861,91.207534 C40.3947617,90.8678278 39.6989168,90.4951071 39.0192057,90.0929572 C37.5048692,89.1967843 36.0915184,88.1162678 34.849365,86.8691847 C33.996365,86.0127487 33.2247809,85.0757932 32.5513441,84.0720616 C32.1130425,83.418792 31.7164199,82.7380352 31.3628207,82.0354679 C31.1034848,81.520232 30.8673039,80.9931945 30.6538298,80.4571938 C29.2191166,76.8527831 28.8450514,72.9067242 29.0534463,69.0577669 C29.096171,68.2688539 29.1638434,67.4812853 29.2539238,66.6964058 C29.3616318,65.759749 29.5011593,64.8269763 29.6696679,63.8994321 C29.8913583,62.678193 30.1627946,61.4662158 30.4784494,60.2658909 C30.8732794,58.765298 31.3371261,57.2830797 31.8634167,55.8235682 C32.5933218,53.7990749 33.4430354,51.8176051 34.4038929,49.8920061 C36.2543502,46.1839208 38.5169665,42.6670509 41.2047383,39.5090086 C43.2909284,37.0580153 45.6427287,34.8163133 48.2743309,32.9567433 C50.0928195,31.6717159 52.0469515,30.5713309 54.1161115,29.7438761 C54.5942994,29.5526606 55.0784628,29.3760851 55.5677054,29.2153447 C55.6900534,29.1751596 55.8118039,29.1361695 55.9348988,29.0979265 C56.1034074,29.045641 56.2663887,28.9935049 56.4450556,28.9938037 C56.9614866,28.9948494 57.4215987,29.3633872 57.535581,29.8671204 C57.5602299,29.9763223 57.5684462,30.088512 57.5597817,30.2001041 C57.5512667,30.3118456 57.5260203,30.4214957 57.4847894,30.5256185 C57.4026265,30.7340134 57.2574223,30.9153693 57.072033,31.0411532 C56.9483405,31.1251087 56.9089024,31.1315323 56.7708687,31.1854611 C56.5467881,31.2541791 56.3237533,31.3252874 56.101316,31.3993833 C55.3781333,31.6467683 54.6670509,31.9258233 53.9709073,32.2414781 C50.6209027,33.7604456 47.6419756,36.0273941 45.0574302,38.6259818 C44.499619,39.1867808 43.9589873,39.7647593 43.4350869,40.3575271 C41.9110402,42.0814536 40.5278655,43.9287739 39.2776453,45.8600496 C37.9274852,47.945941 36.7313431,50.1314735 35.6914598,52.3881143 C34.7180538,54.5008953 33.8810382,56.6774646 33.1974431,58.9012402 C32.5770386,60.9194592 32.0825675,62.9780128 31.7430108,65.0622609 C31.6004955,65.9375196 31.4856169,66.8172599 31.4016613,67.699988 C31.3317482,68.4346735 31.2833468,69.171301 31.2591461,69.9089743 C31.1342585,73.7034053 31.6412782,77.6043493 33.3644578,81.0280017 C33.6762286,81.6473604 34.0257942,82.2477469 34.4121092,82.8234846 C34.9785848,83.6678202 35.6237875,84.4583765 36.3351686,85.1846963 C36.6739785,85.5306767 37.0275776,85.8620172 37.3938746,86.1787177 C40.1352764,88.5471 43.5333836,90.034995 46.9993125,90.9933129 C47.5584682,91.1479285 48.1213586,91.2890993 48.686938,91.4184685 C50.5999885,91.8558737 52.5427671,92.1579344 54.4936126,92.3660305 C56.7278453,92.6044522 58.9744771,92.7193309 61.2208101,92.7498058 C64.9178408,92.8001493 68.6302583,92.6495671 72.2942745,92.1349287 C73.2611075,91.9991359 74.2243552,91.8369016 75.181478,91.6431466 C75.87314,91.5030215 76.5616649,91.3464639 77.2452601,91.1710835 C77.7979921,91.0291658 78.3475871,90.874849 78.8929992,90.706938 C82.1928097,89.6903591 85.3970125,88.1491329 87.9519792,85.7904608 C88.3423276,85.4299898 88.7163927,85.0517418 89.0714858,84.6564637 C89.6878567,83.9704784 90.2467137,83.2332533 90.7398403,82.4537517 C91.0589311,81.949421 91.350684,81.427612 91.6142027,80.8920595 C93.2840511,77.4994796 93.7752358,73.6520162 93.6519914,69.907331 C93.6276414,69.1695084 93.5793893,68.4325821 93.5094762,67.6978966 C93.4132709,66.6866956 93.2764324,65.6795281 93.1040398,64.6786349 C92.7444651,62.5908015 92.2311712,60.5301566 91.5925416,58.5104437 C90.8482953,56.1572989 89.9331503,53.8579334 88.865481,51.6328134 C87.7915375,49.3943978 86.5622315,47.2291819 85.1784593,45.1674913 C83.9748478,43.3745479 82.6536688,41.6588377 81.2074527,40.0545702 C80.6792201,39.4685248 80.1344056,38.8975675 79.5722621,38.3439391 C76.9691928,35.7804573 73.9717417,33.5563829 70.609338,32.0934356 C69.9100572,31.7891341 69.1962859,31.5221795 68.4708624,31.287343 L68.3044452,31.2349082 L68.1332476,31.1826227 L67.9772876,31.1218222 C67.9288862,31.0940362 67.8782439,31.0698355 67.8320833,31.0384642 C67.6931534,30.9443504 67.5763327,30.8188653 67.4920784,30.6738104 C67.2630681,30.279578 67.2999667,29.7719608 67.5832045,29.4147764 C67.6528189,29.3270862 67.7351312,29.2503012 67.8274523,29.1871105 C67.9659341,29.0921004 68.1253301,29.0292084 68.2911497,29.0036632 C68.346423,28.9952976 68.4024431,28.9951482 68.4581645,28.9908159 C68.5138858,28.9948494 68.5694578,28.9988828 68.6251792,29.0029163 Z M62.9463799,35.5499531 C63.4870117,35.5633979 64.0262989,35.6218083 64.5448213,35.7821006 C64.8860214,35.8875678 65.2143741,36.035461 65.5138951,36.2304111 C65.7122811,36.3594815 65.8975211,36.5087192 66.0654321,36.6755845 C66.205109,36.8143651 66.3326855,36.9650966 66.4472654,37.1252395 C67.1900178,38.1636289 67.3353714,39.4930242 67.3419444,40.7341318 L67.3419444,41.7856673 C67.6275725,41.8291389 67.6268255,41.8292883 67.9121548,41.8763452 C68.2118252,41.9298258 68.2112277,41.9296764 68.5101512,41.987041 C69.2587297,42.1410591 69.9999882,42.3222655 70.7283994,42.5548612 C71.3093657,42.7403999 71.8812193,42.9550691 72.4378354,43.2043961 C72.807419,43.3699169 73.1704295,43.5508246 73.5237299,43.7489119 C73.7917303,43.8991952 74.0543527,44.0593381 74.3098046,44.2302369 C75.6163437,45.1043006 76.7826084,46.3001439 77.3202524,47.8043221 C77.3933026,48.0088329 77.4542525,48.2175266 77.5017576,48.4295069 C77.5758536,48.7602498 77.6172338,49.0986115 77.6235081,49.4375707 C77.6309774,49.842559 77.5861613,50.2472485 77.4923462,50.6411821 C77.3995769,51.0303354 77.2599,51.4076871 77.0837727,51.7666641 C76.7494444,52.4481679 76.2858964,53.0631943 75.7503439,53.5991951 C75.3964459,53.9533918 75.0087866,54.2778604 74.5890089,54.5513881 C74.126656,54.8525524 73.5672015,55.1437078 73.0016222,54.9862538 C72.8226565,54.9365079 72.6557911,54.8434398 72.5195502,54.716909 C72.4521766,54.6543158 72.3931687,54.5809668 72.3323682,54.5125475 C72.24662,54.4161928 72.2198797,54.3884069 72.1320402,54.2938449 C72.0276186,54.1847923 71.9221514,54.0775324 71.8147421,53.9714676 C70.4028851,52.6142863 68.675672,51.5986037 66.8128155,50.9965739 C65.2759216,50.5000114 63.6411791,50.2931103 62.0313843,50.4611707 C61.3153721,50.5358643 60.5995094,50.6874921 59.9345876,50.9689373 C59.5213831,51.1440189 59.1262543,51.3715354 58.7883408,51.6688156 C58.511676,51.9121671 58.2765408,52.2033225 58.1128126,52.5342148 C57.936984,52.8900548 57.8491444,53.2832415 57.8379404,53.6791171 C57.8304711,53.9447273 57.8530285,54.2133252 57.9259294,54.469524 C58.0085404,54.7596337 58.1592719,55.030323 58.3633347,55.2527603 C58.8210566,55.7514143 59.4428055,56.070505 60.0603715,56.3262556 C61.0730663,56.7457345 62.1450678,57.0119422 63.2075085,57.2690373 C64.1089099,57.48042 65.0144942,57.6731293 65.9163438,57.8831675 C66.4738563,58.0161219 67.0298749,58.1552013 67.5820094,58.3093687 C68.0576578,58.4420244 68.5304678,58.5845397 68.9993937,58.7396034 C69.3806295,58.8656861 69.7593257,58.9998357 70.1342872,59.1438448 C72.3229568,59.9847445 74.4382774,61.1795421 75.9910064,62.9693483 C76.232864,63.2482539 76.459783,63.5400068 76.6696718,63.8437107 C77.4705357,65.0023567 78.0036981,66.3265235 78.2628846,67.7095488 C78.4769563,68.8516127 78.5153487,70.0278864 78.4122717,71.1844409 C78.3218925,72.1963888 78.1124519,73.1981783 77.7718494,74.1558987 C77.5207298,74.8620513 77.1988007,75.542808 76.8105437,76.1839772 C76.4965322,76.7026491 76.1393477,77.1950288 75.7448165,77.6555891 C74.4400701,79.1790382 72.745274,80.3234924 70.9082615,81.1094176 C69.7633591,81.5991084 68.5663207,81.9482259 67.3480693,82.2000925 L67.2806958,82.2133879 C67.2806958,82.7710498 67.2877169,83.330803 67.2772598,83.8890624 C67.2729276,84.0264985 67.2666534,84.1636358 67.2584371,84.3009225 C67.1822497,85.326614 66.9509985,86.3690368 66.3280545,87.2102353 C66.2107857,87.368735 66.0809684,87.518122 65.9397976,87.6557075 C65.3334356,88.2474296 64.5388459,88.5862394 63.7092996,88.7190445 C63.2720437,88.789107 62.8332939,88.7959788 62.391407,88.7949331 C61.4472809,88.7926923 60.4731279,88.6374792 59.6688281,88.1126825 C59.5030085,88.0045262 59.3464508,87.8820289 59.2018442,87.7466842 C59.0576857,87.6117877 58.9256275,87.4641933 58.8068648,87.30659 C58.1319341,86.4114628 57.9290665,85.259838 57.8811133,84.1649803 C57.8730464,83.9798898 57.8703574,83.7947992 57.8693117,83.6095593 L57.8693117,82.3857806 C57.632832,82.3529154 57.3976968,82.3134772 57.1621134,82.2746366 C56.8355533,82.2166744 56.8363002,82.2168238 56.5104871,82.15438 C55.8902321,82.0271023 55.2744587,81.8847364 54.665557,81.7105511 C54.098932,81.5484662 53.5390293,81.3626287 52.9894344,81.1497521 C52.5606935,80.9836337 52.138227,80.8010828 51.7247236,80.5998584 C51.4113096,80.4473342 51.1029747,80.2840542 50.8015116,80.1091219 C50.5844523,79.9831887 50.3709782,79.8511305 50.1616869,79.7127981 C48.8164565,78.8228995 47.599699,77.6340773 46.9586792,76.1307955 C46.5683308,75.215501 46.407441,74.193096 46.5738582,73.2071415 C46.7970424,71.8855143 47.569971,70.7058048 48.5444227,69.8088849 C48.9032504,69.4785902 49.295989,69.1744382 49.7257755,68.9415437 C49.9653923,68.8117264 50.2209936,68.7040183 50.492878,68.666821 C50.6219484,68.6491933 50.7511682,68.6563639 50.8794917,68.6739915 L50.8999577,68.6775768 C51.0143882,68.7037196 51.1229926,68.7344933 51.2280117,68.7875257 C51.341994,68.8451891 51.4381992,68.9218247 51.5312674,69.008021 C51.6560056,69.1445607 51.773125,69.2876735 51.8968175,69.4251096 C52.8732112,70.4763463 54.0464971,71.3248647 55.3150919,71.9900852 C56.8649826,72.8027508 58.5608243,73.3483123 60.2962537,73.5779202 C61.4508662,73.7305937 62.6362524,73.7512092 63.7904167,73.5818042 C64.4214276,73.4890349 65.0488532,73.3356144 65.6351974,73.0809095 C66.0212135,72.9131478 66.3909465,72.6996737 66.7109335,72.4245028 C67.0117991,72.1659138 67.2648607,71.8513047 67.4314273,71.4899374 C67.5855947,71.1554598 67.6617821,70.7900591 67.6722392,70.4227163 C67.681053,70.1128876 67.647441,69.7996229 67.5460071,69.5056292 C67.4660851,69.2742287 67.3443346,69.0597089 67.1916611,68.8687922 C66.8737654,68.4714227 66.4411405,68.1766821 65.9976104,67.9363183 C65.2697967,67.5417871 64.4767008,67.2724422 63.6853977,67.0374564 C62.6274386,66.7231461 61.5500592,66.470682 60.4746218,66.2246415 C60.0502132,66.1275399 59.6247589,66.0359656 59.2010972,65.9355775 C58.9350389,65.8707436 58.6695781,65.8042663 58.4044161,65.7359965 C57.9510264,65.6155905 57.4991306,65.4902548 57.05082,65.3520717 C54.5284197,64.5739146 52.0209581,63.4167625 50.1811072,61.4708468 C49.8632116,61.1345766 49.5675746,60.7770934 49.2988273,60.4003392 C48.4961707,59.2748572 47.9498623,57.9853482 47.6639355,56.6344411 C47.4217791,55.4913314 47.3523141,54.3074391 47.4310411,53.1423695 C47.4972195,52.1634362 47.6790236,51.1921216 47.9851176,50.2594982 C48.2251826,49.528398 48.5409868,48.8223948 48.9276005,48.1568755 C49.2215942,47.6504534 49.5560718,47.1679332 49.9256554,46.7137966 C51.168705,45.187061 52.7953806,44.0103392 54.5748791,43.1837807 C55.6403075,42.6890108 56.7575733,42.3219668 57.8988903,42.0479909 L57.9275726,42.0412685 C57.9275726,41.5136335 57.9215972,40.9846539 57.9308592,40.4565707 C57.935042,40.3200309 57.9408681,40.1839393 57.9486362,40.047549 C58.0233297,38.9906356 58.2565229,37.9095215 58.9153198,37.0527868 C59.0351282,36.8971255 59.1673358,36.751025 59.3108967,36.6168754 C59.4834387,36.4555374 59.672264,36.311827 59.8731896,36.1876864 C60.1432813,36.0209705 60.4345861,35.8902568 60.7364973,35.7930058 C61.2511357,35.6273356 61.7874352,35.5642942 62.3261249,35.5499531 C62.5328766,35.5481604 62.7396282,35.5483098 62.9463799,35.5499531 Z M63.5769427,48.169424 C64.1803169,48.1927284 64.7802553,48.248151 65.3763097,48.3464477 C66.8074376,48.5826286 68.2012187,49.0373628 69.5053677,49.6709132 C70.5932042,50.1994446 71.6221822,50.8539093 72.5537598,51.6257922 C72.8858472,51.9008137 73.2023984,52.1922679 73.5089406,52.4952248 L73.5551012,52.5421323 C73.9397728,52.2608365 74.2869483,51.9212797 74.5819878,51.5475133 C74.8251899,51.2391785 75.0349293,50.9011156 75.1804323,50.5355655 C75.27604,50.2953511 75.3431148,50.0433352 75.3700044,49.7859413 C75.3858395,49.6335665 75.3873333,49.4798472 75.3759799,49.3271736 C75.305768,48.386334 74.7554261,47.558431 74.0945378,46.9172618 C73.9820494,46.8082092 73.8653781,46.7033395 73.7454203,46.6026527 C72.9684582,45.95013 72.0607825,45.4617838 71.1245739,45.0796517 C69.5198582,44.4244401 67.8108704,44.0811487 66.0942638,43.8848541 L65.9484621,43.8584126 C65.8234251,43.8179287 65.7889167,43.8135965 65.6734405,43.7489119 C65.4130589,43.6028113 65.2184075,43.353335 65.1402781,43.0651673 C65.1056203,42.9374414 65.1099525,42.902933 65.1011387,42.7717712 C65.1011387,42.0202049 65.1111476,41.2586298 65.0985991,40.5028807 C65.0891877,40.1682537 65.0681242,39.8339255 65.0124028,39.5034813 C64.9719189,39.263267 64.9142555,39.0237995 64.8225319,38.7976275 C64.7536644,38.6277744 64.6641816,38.464345 64.5428793,38.326162 C64.18689,37.9204268 63.6032348,37.8227276 63.0917335,37.7965849 C62.9977691,37.7918045 62.9036552,37.7898625 62.8095414,37.7897131 C62.6614988,37.7894143 62.5134563,37.7879205 62.3655631,37.7906094 C61.8114865,37.8000208 61.1780854,37.8902506 60.7793714,38.3158543 C60.5621626,38.547703 60.4332416,38.8493154 60.3477922,39.1515254 C60.2021398,39.6667614 60.1715155,40.2078413 60.1683784,40.7404061 L60.1683784,42.9510356 C60.1594151,43.0954929 60.1434307,43.2278498 60.0896514,43.3637921 C59.9852298,43.6273108 59.7805696,43.8449677 59.524072,43.9653737 C59.4102391,44.0187049 59.3775233,44.0209457 59.2565198,44.0518688 C59.0203389,44.0965355 58.7852037,44.1449369 58.5505166,44.1972224 C57.800743,44.3706608 57.0618747,44.5874214 56.3437711,44.8655801 C54.8939698,45.4272754 53.5255845,46.2317246 52.4063767,47.3186648 C52.1434555,47.5741166 51.8948755,47.8443578 51.6634749,48.1286414 C51.3679873,48.4916519 51.1004351,48.8773692 50.8652999,49.2820588 C50.5572638,49.8126816 50.3055466,50.375572 50.1141818,50.9584802 C49.8661993,51.7137811 49.7203976,52.5007521 49.6667676,53.2935492 C49.6019336,54.2527634 49.6567587,55.2288584 49.856041,56.1701462 C50.1038741,57.3399962 50.5987934,58.446506 51.3394544,59.3876444 C52.52499,60.8936153 54.2262097,61.893164 55.9807606,62.6009599 C56.304333,62.7315241 56.6317894,62.8528264 56.961636,62.96651 C57.3757369,63.1091746 57.7938712,63.2395895 58.2146945,63.3607424 C58.7970053,63.5283546 59.3843951,63.6777417 59.9741752,63.8159247 C60.3056651,63.893606 60.6387982,63.9633697 60.9707362,64.0394077 C61.2444133,64.1020009 61.5173434,64.1675818 61.7907217,64.2316689 C62.1895851,64.3268284 62.587851,64.42393 62.9855193,64.5235712 C64.2113895,64.841168 65.4429363,65.1838619 66.5915733,65.7265851 C67.3746602,66.0966168 68.1244338,66.5679329 68.7161559,67.2073095 C69.093657,67.6151361 69.3988547,68.0879461 69.6020211,68.6057217 C69.8051875,69.1234972 69.9039323,69.6774243 69.9136425,70.232696 C69.9315689,71.245092 69.6595351,72.2492718 69.0933582,73.0924123 C68.4061778,74.1158629 67.3529991,74.8267959 66.2146698,75.2643506 C65.4184368,75.5704446 64.5776865,75.7519499 63.7315583,75.8490515 C62.8787076,75.9469 62.0156986,75.9616893 61.1592627,75.9105989 C59.0500669,75.7845163 56.9674621,75.2420919 55.0505275,74.3569736 C53.7250162,73.7447855 52.469418,72.9660308 51.359771,72.0151823 C51.062939,71.7607761 50.7797011,71.4923276 50.5046796,71.2144677 L50.4377542,71.1447039 C50.0176778,71.4614045 49.6434632,71.8444329 49.3443904,72.2776553 C49.1510835,72.5576066 48.9889986,72.8614599 48.8823362,73.185331 C48.8230296,73.3654918 48.7813506,73.5516281 48.7619303,73.7404533 C48.6678164,74.659333 49.0748961,75.5571492 49.6304666,76.2653932 C49.7277175,76.3893844 49.8303464,76.5091929 49.9371582,76.6248184 C50.0708596,76.7694251 50.2112834,76.9077575 50.3569358,77.0402638 C50.5369472,77.203992 50.7248761,77.358757 50.9189299,77.5053057 C51.1564553,77.6848689 51.4029439,77.8521824 51.6558562,78.0088894 C51.9952635,78.2192264 52.3464725,78.4102924 52.7054496,78.5849259 C53.1380745,78.7954122 53.5820528,78.9822954 54.0333511,79.148862 C54.7060409,79.3972927 55.3948646,79.601206 56.0919046,79.769117 C57.0880174,80.0090326 58.0986208,80.168578 59.116096,80.2840542 L59.2621965,80.3104957 C59.3872335,80.3508302 59.4218913,80.3551624 59.5373675,80.419847 C59.7980479,80.5657982 59.9928486,80.8154239 60.0711274,81.1037409 C60.1057852,81.2314668 60.101453,81.2661246 60.1101174,81.3972865 C60.1101174,82.2071137 60.0999591,83.0279955 60.112657,83.8424537 C60.1163917,83.9884048 60.1216202,84.1342066 60.1317785,84.279859 C60.1407418,84.4104232 60.1529915,84.5408381 60.1695735,84.6706555 C60.1806281,84.7581963 60.1937742,84.8455877 60.2094598,84.932531 C60.2843027,85.3500678 60.4130744,85.810628 60.7333602,86.1104479 C60.8041696,86.1767757 60.8836436,86.2335428 60.9681966,86.2808985 C61.2133408,86.4181852 61.4952341,86.4822722 61.7717496,86.5178263 C62.1081692,86.5609992 62.4504149,86.5590572 62.788926,86.5532311 C63.3549535,86.5435209 63.9955252,86.4479132 64.4066383,86.0196205 C64.6286275,85.7883694 64.7641215,85.4872051 64.8536044,85.1829037 C65.0038877,84.6717012 65.0367529,84.1333103 65.03989,83.603285 L65.03989,81.2732952 C65.0481063,81.1458681 65.0440729,81.1125548 65.0767886,80.9882647 C65.1505858,80.7080146 65.3341825,80.4628705 65.5824638,80.3134834 C65.664776,80.2638869 65.7532132,80.2250463 65.8455344,80.1980072 C65.891695,80.1845624 65.9392001,80.1769437 65.9861076,80.1664866 C66.2427545,80.1261521 66.4986546,80.0819335 66.753957,80.0333827 C68.9281361,79.6024011 71.0719897,78.8064669 72.8083153,77.3965519 C73.0781083,77.1775505 73.3366973,76.9445067 73.5815427,76.6978687 C74.5331382,75.7394014 75.2612507,74.5759751 75.6980584,73.2975207 C76.0806386,72.1772672 76.2404828,70.9890426 76.2233033,69.8075405 C76.2098584,68.8732739 76.0786966,67.937364 75.7853004,67.0485111 C75.4944438,66.1672769 75.0429962,65.3453493 74.456652,64.6260507 C73.1980661,63.0822849 71.4107995,62.0648097 69.5851404,61.3353528 C69.2455836,61.1997093 68.9024416,61.0734773 68.5566105,60.954864 C68.0361461,60.7763464 67.5097061,60.615606 66.9796808,60.4677128 C66.3712274,60.2978597 65.7578442,60.1454849 65.1422202,60.0035672 C64.4616128,59.8468602 63.7784658,59.7006103 63.0975596,59.5447996 C62.8268703,59.4814595 62.5564797,59.4169243 62.2862386,59.3516422 C61.0218266,59.0341947 59.7444179,58.6916502 58.5709827,58.1109827 C57.8046271,57.731689 57.0802493,57.237666 56.5402151,56.5666194 C56.259965,56.2183982 56.03454,55.8271535 55.8776836,55.4084216 C55.6822853,54.8866127 55.5925037,54.3258137 55.5956408,53.7693469 C55.5996743,53.0490026 55.7393511,52.3350819 56.0388722,51.6780776 C56.3993431,50.8870732 56.9744833,50.2116944 57.6692824,49.6937695 C59.0155585,48.6903367 60.7235006,48.2814643 62.3749745,48.1858566 C62.6408834,48.1703203 62.9067924,48.1649424 63.1730001,48.1631498 C63.3757183,48.1646436 63.3749714,48.1646436 63.5769427,48.169424 Z M70.3290879,6.11906125 C70.4397837,6.13549383 70.5439064,6.15581046 70.6480292,6.19898332 C70.9554678,6.32626109 71.1947858,6.59037739 71.2914392,6.90887058 C71.3240056,7.01657864 71.3341639,7.12234467 71.3395419,7.23408618 L71.3395419,8.94456789 L77.4210886,8.94456789 L77.5310375,8.94994582 C77.6417333,8.9663784 77.7458561,8.98669504 77.8499788,9.02986789 C78.1574174,9.15714566 78.3967354,9.42126196 78.4933888,9.73975515 C78.5259552,9.84746321 78.5361135,9.95322924 78.5414915,10.0649708 L78.5414915,15.0470288 C78.5370099,15.1426365 78.5392507,15.1672854 78.5208761,15.261698 C78.4853219,15.4436514 78.4037566,15.5981176 78.2961979,15.7467578 L67.8824268,28.7673329 C67.7541033,28.912089 67.6136795,29.029806 67.4327718,29.1040513 C67.3277527,29.1472242 67.2161605,29.1742632 67.1030746,29.1839734 C66.6411698,29.2234116 66.1913654,28.9643744 65.9937263,28.5448956 C65.9453249,28.4422667 65.9127585,28.3321684 65.8973717,28.21968 C65.8664486,27.9941056 65.9058867,27.7610618 66.009412,27.5581941 C66.0554232,27.4682631 66.073499,27.4495898 66.1323575,27.3677257 L76.3006857,14.6541409 L76.3006857,11.1853736 L70.219139,11.1853736 C70.0700507,11.1780537 69.9296269,11.157737 69.7903982,11.1000736 C69.4829596,10.9727958 69.2436416,10.7086795 69.1469882,10.3901864 C69.1142724,10.2823289 69.1042635,10.1767123 69.0987361,10.0649708 L69.0987361,8.35448905 L55.2669893,8.35448905 L55.2669893,10.0649708 C55.2596693,10.2142084 55.2393527,10.3546322 55.1818387,10.4937116 C55.0544115,10.8011501 54.7902952,11.0404682 54.4719514,11.1371216 C54.364094,11.1698374 54.2584773,11.1798463 54.1465864,11.1853736 L48.0650397,11.1853736 L48.0650397,14.6539915 L58.2363557,27.3677257 C58.3492923,27.5245821 58.4333972,27.6875633 58.4661129,27.8802726 C58.4850851,27.9921635 58.4868777,28.1068928 58.4714909,28.2195306 C58.4087483,28.6787464 58.0570912,29.0607291 57.6045978,29.1612666 C57.4937526,29.1859154 57.3791728,29.1935342 57.2659374,29.1839734 C57.0391679,29.1645531 56.8204652,29.0747715 56.6453836,28.9292685 C56.5677023,28.8647333 56.5533612,28.8429228 56.4865852,28.7674823 L46.0698263,15.7469071 C45.9621182,15.598267 45.8805529,15.4436514 45.8449988,15.261698 C45.8266242,15.1672854 45.828865,15.1427859 45.824234,15.0470288 L45.824234,10.0649708 C45.8317033,9.91573309 45.8520199,9.77530927 45.909534,9.63622992 C46.0369611,9.32879138 46.3010774,9.08947333 46.6194212,8.9928199 C46.7272787,8.96010414 46.8328953,8.95009521 46.9446368,8.94456789 L53.0261836,8.94456789 L53.0261836,7.23408618 L53.0317109,7.1242867 C53.0481435,7.0135909 53.0684601,6.90946812 53.1114836,6.80534535 C53.2389107,6.49790681 53.503027,6.25858875 53.8213708,6.16193533 C53.9292283,6.12921957 54.0348449,6.11921064 54.1465864,6.11368332 C59.5408034,6.11368332 64.941444,5.8543474 70.3290879,6.11906125 Z" id="Page-1"></path>
        </g>
    </g>
</svg>