<?xml version="1.0" encoding="UTF-8" standalone="no"?>
<svg width="125px" height="100px" viewBox="0 0 125 100" version="1.1" xmlns="http://www.w3.org/2000/svg" xmlns:xlink="http://www.w3.org/1999/xlink">
    <!-- Generator: Sketch 42 (36781) - http://www.bohemiancoding.com/sketch -->
    <title>symbol-06</title>
    <desc>Created with Sketch.</desc>
    <defs></defs>
    <g id="Symbols" stroke="none" stroke-width="1" fill="none" fill-rule="evenodd">
        <g id="symbol-06" fill="#34AFC8">
            <path d="M31.4649587,60.5470706 C31.7959015,60.2497378 32.1122024,59.9349345 32.4240108,59.6206303 C33.1785738,58.8599109 33.9018562,58.0684101 34.6124931,57.2667597 C36.5778511,55.0493261 38.4482024,52.7465361 40.2676393,50.4083059 C42.0872427,48.0704084 43.8600915,45.6919126 45.5267856,43.242037 C46.1292713,42.3565277 46.7187788,41.4610353 47.270683,40.5429143 C47.6603604,39.8948387 48.0442141,39.2344504 48.3342259,38.5346286 L48.3353906,38.5318 L15.4384393,12.2210941 L15.3223015,12.1157714 C15.2883587,12.076005 15.25192,12.0384017 15.220473,11.9966387 C15.1261318,11.8713496 15.0559167,11.7282571 15.01432,11.5768454 C14.8577503,11.0063059 15.1367805,10.3871815 15.6678864,10.1264538 C15.8086494,10.057237 15.9623906,10.0151412 16.118794,10.0026622 C16.170873,9.99850252 16.2232847,10.0008319 16.2755301,10 C16.3274427,10.0056571 16.3793553,10.0114807 16.4312679,10.0171378 C16.5663738,10.0494168 16.6029788,10.0514134 16.7304309,10.1088168 C16.857883,10.1662202 16.8835066,10.1921765 16.9971486,10.272042 L50.4027436,36.989563 C50.4990814,37.073921 50.5959183,37.1674303 50.6659671,37.2757479 C50.7573133,37.4170101 50.8363469,37.563763 50.8817704,37.7268218 C51.0598041,38.3670773 50.8366797,39.0326235 50.5857688,39.6204672 C50.5395133,39.7289513 50.4900965,39.8382672 50.4400141,39.9450874 C50.3579856,40.1194605 50.2716309,40.291837 50.1826141,40.462716 C50.1240461,40.5750269 50.0641469,40.6868387 50.0034158,40.7981513 C50.062483,40.720116 50.1308679,40.6490689 50.2067402,40.5868403 C50.3756225,40.4485731 50.5801116,40.3562286 50.7954158,40.3207882 C50.8491587,40.3119697 50.9037335,40.3103059 50.9578091,40.3049815 C51.0122175,40.3068118 51.0666259,40.308642 51.1210343,40.3104723 L51.2820965,40.3372605 C52.3609469,40.5898353 53.4353049,40.8622101 54.513157,41.1192773 C56.012799,41.4705193 57.5174326,41.8026269 59.0333805,42.0763328 C60.2451738,42.2951311 61.4639553,42.4784891 62.6918881,42.576158 L62.7451318,42.5838118 C64.3482662,42.3581916 65.9432478,42.0794941 67.5335704,41.7763378 C69.4762999,41.4059613 71.4118746,40.9991462 73.3426242,40.5705345 L73.6226528,40.5076403 L75.3407604,39.9204622 L75.4983284,39.8778672 C75.6181267,39.8618941 75.6489083,39.8577345 75.723283,39.8565697 C75.6517368,39.7171378 75.5821872,39.5767076 75.5154662,39.4347798 C75.4409251,39.2762134 75.3697116,39.1158168 75.3043217,38.9532571 C75.2642225,38.8529261 75.2247889,38.7484353 75.1900141,38.6461076 C75.028952,38.1717395 74.9212999,37.6298185 75.0976696,37.1426387 C75.1299486,37.0532891 75.1658881,36.9606118 75.2163032,36.8795815 C75.2810276,36.7752571 75.3129738,36.7311647 75.3911755,36.6351597 C75.4272814,36.5909008 75.4713738,36.553963 75.5119721,36.5138639 L75.5514057,36.4792555 L108.130559,10.4169647 L108.258843,10.3269496 C108.381636,10.2618924 108.410421,10.2394303 108.544029,10.1983328 C108.677638,10.1574017 108.714076,10.1598975 108.852177,10.1447563 C108.904423,10.1455882 108.956668,10.1465866 109.008913,10.1474185 C109.06066,10.1547395 109.112905,10.1588992 109.163986,10.1695479 C109.317727,10.2014941 109.464812,10.262558 109.595925,10.3489126 C110.09026,10.6740319 110.289424,11.3232723 110.062639,11.8696857 C110.002407,12.0146084 109.914888,12.147884 109.805572,12.2603613 C109.7693,12.2979647 109.728202,12.3307429 109.689601,12.3658504 L77.619757,38.0208269 C77.7029503,38.2356319 77.8054444,38.4439479 77.909436,38.6494353 C78.0493671,38.9259697 78.1987822,39.1978454 78.3526898,39.4670588 C78.800436,40.2500739 79.28512,41.011958 79.7811183,41.7648571 C81.0960713,43.7608303 82.5005402,45.6982353 83.9366225,47.6083529 C86.0459049,50.413963 88.2323906,53.1666622 90.5275267,55.8228571 C91.3409906,56.7644387 92.1689301,57.6945395 93.0296478,58.5935261 C93.6632478,59.2554118 94.3116562,59.910642 95.0252881,60.4871714 L95.1257856,60.5652067 L95.1923402,60.6149563 L109.946335,48.1416218 C109.988265,48.1103412 110.028364,48.0765647 110.072123,48.0481126 C110.203735,47.9625899 110.35132,47.902358 110.505061,47.8712437 C110.658802,47.8402958 110.818201,47.8386319 110.972774,47.8662521 C111.443648,47.9509429 111.833325,48.3091731 111.957283,48.7712286 C111.997881,48.9228067 112.009695,49.0818723 111.991559,49.2377765 C111.967599,49.4457597 111.890562,49.6464218 111.769266,49.8171345 C111.688402,49.9311092 111.657954,49.9514084 111.557623,50.0475798 L96.2833368,62.9608403 C96.1874982,63.0340504 96.1459015,63.0623361 96.038915,63.1257294 C95.991162,63.1540151 95.9385839,63.1734824 95.887836,63.1961109 C95.7921637,63.2387059 95.6698696,63.2704857 95.5657116,63.2836303 C95.4206225,63.3020992 95.2800259,63.3085882 95.1341049,63.2919496 C94.63012,63.234879 94.1753856,62.9605076 93.7723973,62.6688319 C93.7665738,62.7427076 93.7539284,62.8164168 93.7344612,62.8892941 C93.7060091,62.9946168 93.6640797,63.0957798 93.6093385,63.1902874 C93.5822175,63.2373748 93.5489402,63.2806353 93.5186578,63.3258924 C93.3194931,63.5847899 93.1194965,63.8430218 92.9188343,64.1005882 C91.7940612,65.5228605 90.6295217,66.9148504 89.3688108,68.219321 C89.2827889,68.3083378 89.1962679,68.3970218 89.1094141,68.4850403 C89.1668175,68.5454387 89.2232225,68.6071681 89.2781301,68.6700622 C89.9436763,69.4312807 90.4185436,70.3682034 90.5291906,71.3808319 C90.5624679,71.6861513 90.5626343,71.9951311 90.5288578,72.3004504 C90.4909217,72.6413765 90.410557,72.9771445 90.2905923,73.2986034 C90.1356864,73.713405 89.9153906,74.102916 89.6440141,74.4526605 C89.4285436,74.7305261 89.1802948,74.9831008 88.905757,75.2027311 C88.7709839,75.3105496 88.6297217,75.4065546 88.4852982,75.5007294 L88.4007738,75.5511445 C88.4811385,75.6360017 88.558841,75.7223563 88.6350461,75.8107076 C88.7115839,75.9035513 88.7854595,75.9975597 88.8575049,76.0938975 C89.2230562,76.6072 89.502752,77.171916 89.663315,77.782721 C89.8015822,78.3086689 89.8518309,78.8577445 89.8057419,79.3998319 C89.7305351,80.2830118 89.3952662,81.1372403 88.8420309,81.8307395 C88.5704881,82.1713328 88.2480309,82.4704958 87.888636,82.7164151 C87.4861469,82.9917849 87.0387335,83.1996017 86.5706881,83.3357059 C85.9131284,83.5267176 85.2277822,83.5699782 84.5490915,83.492442 L84.4868629,83.4841227 C84.4963469,83.5949361 84.4948494,83.5942706 84.500673,83.7057496 C84.5035015,83.859158 84.5035015,83.8586588 84.5011721,84.0115681 C84.4935183,84.1653092 84.4833688,84.3177193 84.4625704,84.4702958 C84.4064982,84.8824353 84.2920242,85.2864218 84.1221436,85.6662824 C83.9482696,86.0551277 83.7171587,86.418516 83.4374629,86.7399748 C83.2115099,86.9998706 82.9536108,87.2318134 82.6712528,87.4294807 C81.515199,88.2389513 79.9929284,88.4367849 78.6486915,88.0376235 C78.2819755,87.9286403 77.9368898,87.7724034 77.6064461,87.5803933 L76.1320948,86.6033714 C76.1104646,86.7101916 76.0846746,86.8155143 76.0560562,86.920837 C76.0310982,87.004363 76.0046427,87.0867244 75.9760242,87.1690857 C75.8206192,87.5860504 75.605315,87.9747294 75.3211267,88.3183176 C75.1256225,88.5545866 74.9013335,88.7668958 74.6550814,88.9495882 C73.6725688,89.6776958 72.3677654,89.9084739 71.1845906,89.625284 C70.8514847,89.5455849 70.535683,89.4221261 70.2311957,89.2662218 L62.724999,84.8493244 L55.2143099,89.2678857 C54.8827015,89.4376 54.537283,89.5680471 54.1727301,89.6470807 C52.9131839,89.9199546 51.532841,89.6149681 50.5544881,88.7617378 C50.292762,88.5334555 50.0629822,88.2692336 49.8728024,87.9787227 C49.6109099,87.5790622 49.4320444,87.1366403 49.3270545,86.6712571 L49.3135772,86.6047025 L47.8393923,87.5820571 C47.744552,87.6371311 47.6493788,87.690042 47.5520427,87.7406235 C47.1550444,87.934963 46.7382461,88.0772235 46.3031452,88.1577546 C44.9777099,88.402842 43.5514444,88.0910336 42.5045402,87.2256571 C42.2038797,86.977242 41.9384931,86.6870639 41.7166999,86.3661042 C41.4719452,86.0122 41.2801015,85.6221899 41.1496545,85.2120471 C40.9762797,84.6676303 40.9197083,84.1009176 40.9543167,83.532042 L40.9584763,83.4847882 C40.8320225,83.5019261 40.7055688,83.5137395 40.578283,83.5230571 C40.471962,83.5285479 40.3659738,83.5318756 40.25932,83.5328739 C39.6039234,83.5255529 38.9561805,83.4075849 38.3506999,83.151516 C37.8921385,82.9575092 37.4655234,82.6889613 37.0954797,82.3555227 C36.79432,82.0839798 36.531762,81.7706739 36.3156259,81.4277513 C36.1212864,81.1192706 35.9645503,80.7873294 35.8500763,80.4412454 C35.4672209,79.283195 35.5772024,78.0020185 36.1001553,76.9053647 C36.3385872,76.4052067 36.6593805,75.9538 37.0402393,75.5524756 C36.9246007,75.4834252 36.9259318,75.4824269 36.8129553,75.408884 C36.6716931,75.3087193 36.5335923,75.2068908 36.4024797,75.0932487 C36.1577251,74.8811059 35.9364309,74.6420084 35.7432562,74.3819462 C35.5201318,74.0814521 35.3336125,73.753837 35.1931822,73.4067546 C35.0788746,73.1242303 34.9953486,72.8293933 34.9450999,72.5287328 C34.8031721,71.6806605 34.9362814,70.8066319 35.2866915,70.024116 C35.5071536,69.5314454 35.8091452,69.0777092 36.1642141,68.6717261 C36.2194545,68.6084992 36.2760259,68.546437 36.333762,68.4855395 C35.8905083,68.0354639 35.4598999,67.5729092 35.0381099,67.1038655 C33.9522713,65.8962319 32.9296595,64.6348555 31.9429872,63.3456924 L31.9378293,63.3490202 C31.5173704,63.6217277 31.0183772,63.858995 30.5029116,63.8077479 C30.4084041,63.7982639 30.3097368,63.786284 30.2190562,63.7574992 C30.1020864,63.7202286 30.0513385,63.7000958 29.9390276,63.6478504 C29.8872814,63.6238908 29.8405267,63.5901143 29.7917755,63.5606639 L29.7719755,63.5470202 L29.6756377,63.4738101 L13.4446293,49.8267849 C13.4068595,49.790679 13.3667604,49.7569025 13.33132,49.7184672 C13.2248326,49.6033277 13.1404746,49.4680555 13.0839032,49.3216353 C13.0273318,49.1753815 12.9987133,49.018479 13.0000444,48.8615765 C13.0037049,48.3832151 13.2908881,47.9384639 13.7254898,47.7383008 C13.8679167,47.6725782 14.0226562,47.6341429 14.1793923,47.6254908 C14.3883738,47.6140101 14.599352,47.6561059 14.7880343,47.7467866 C14.9141553,47.8071849 14.9391133,47.8338067 15.0509251,47.9165008 L30.762641,61.1269277 C30.9258662,61.0049664 31.0847654,60.8768487 31.2400041,60.7442387 C31.3068915,60.6698639 31.3825973,60.603642 31.4649587,60.5470706 Z M57.1969721,81.5964672 C55.5439217,82.6653345 53.8710713,83.7042521 52.1802511,84.7122218 C52.1589536,84.7361815 52.1381553,84.7603076 52.1181889,84.7850992 C52.0735973,84.8446655 52.0323335,84.9047311 51.9925671,84.9674588 C51.8538007,85.2067227 51.7589604,85.4662857 51.7399923,85.7439849 C51.7293436,85.8997227 51.7423217,86.0571244 51.7817553,86.2083697 C51.8132024,86.3286672 51.8612881,86.4444723 51.9240158,86.551958 C52.3308309,87.2489513 53.30752,87.4193311 54.0031822,87.0840622 L54.0120007,87.0795697 L60.2641419,83.4014286 L57.1969721,81.5964672 Z M49.8332024,41.1041361 C49.6956007,41.3475597 49.5540057,41.5889866 49.409915,41.8287496 C49.1859587,42.2012891 48.9556797,42.5700017 48.7214074,42.9360521 C48.4626763,43.3403714 48.1989536,43.7415294 47.9319032,44.1401916 C47.0793385,45.4125496 46.1931637,46.662279 45.2895183,47.8986975 C44.1487721,49.4597361 42.9785755,50.9991445 41.7849183,52.520084 C40.7503267,53.8381983 39.6979318,55.1425025 38.6230746,56.428005 C37.5412293,57.7218269 36.4362562,58.9966807 35.2906847,60.2349294 C34.9888595,60.5612134 34.6818763,60.8831714 34.3707335,61.2008034 C34.1973587,61.378005 34.0221536,61.5537092 33.8451183,61.727084 C34.8783788,63.073484 35.9444175,64.3945933 37.0879923,65.6494807 C37.7750024,66.4033782 38.4871368,67.1379748 39.2455267,67.8206588 C39.5931083,68.1334655 39.9516713,68.4339597 40.3173889,68.7253025 C41.4155402,69.5999966 42.5765856,70.3944924 43.7629217,71.1438975 C45.1883553,72.0445479 46.6552192,72.8793092 48.1452108,73.6679815 C48.8586763,74.045679 49.5781318,74.4120622 50.3034108,74.7664655 C50.536352,74.8802739 50.7361822,74.9761126 50.9761116,75.089921 C51.085594,75.1418336 51.2157083,75.1939126 51.32752,75.2538118 C51.3381688,75.2588034 51.3488175,75.263795 51.3592999,75.2691193 C51.3844242,75.2817647 51.4092158,75.2950756 51.4335083,75.3093849 L51.4341738,75.3097176 C53.4239906,76.4805798 55.3871856,77.701358 57.347552,78.9274605 C57.4982982,78.9547479 57.6425553,79.0066605 57.7756646,79.0876908 C57.9180915,79.1743782 58.0387217,79.2880202 58.1337284,79.4192992 C59.592273,80.3320958 61.0511503,81.2443933 62.5200108,82.1380555 C62.6644343,82.1036134 62.8146814,82.0951277 62.9620999,82.1134303 C63.1243267,82.1333966 63.2822276,82.1854756 63.4244881,82.2660067 C63.7218209,82.4345563 63.9298041,82.7184118 64.014162,83.0373748 C66.4488965,84.4859361 68.9199032,85.8664454 71.4712746,87.0963748 C71.5333368,87.1244941 71.5962309,87.1484538 71.6611217,87.1692521 C72.2812444,87.3539412 73.0426293,87.2120134 73.4427889,86.6699261 C73.5085116,86.5809092 73.5632528,86.4835731 73.6053486,86.3812454 C73.6562629,86.2581193 73.6883755,86.1275059 73.7018528,85.9950622 C73.719157,85.8238504 73.7053469,85.6499765 73.6659133,85.482758 C73.5993587,85.2008992 73.4622562,84.9536487 73.2823923,84.7336857 C66.2379183,80.435921 59.5418578,75.5904118 52.6707587,71.0201059 C52.5052041,70.9001412 52.3661049,70.7607092 52.2671049,70.5798471 C52.038157,70.1613849 52.0716007,69.6349378 52.3516293,69.2485882 C52.4303301,69.1401042 52.5265015,69.0444319 52.6354847,68.9663966 C52.8316545,68.8259664 53.0526158,68.7585798 53.2902158,68.7352857 C53.3913788,68.7334555 53.3907133,68.7334555 53.4910444,68.7397782 C53.5793957,68.7525899 53.6021906,68.7532555 53.6883788,68.7765496 C53.7870461,68.8033378 53.8762293,68.8441025 53.9672427,68.8896924 C61.0235301,73.183963 67.7269116,78.0326336 74.6025032,82.6107597 L74.6129856,82.6157513 C74.6625688,82.6398773 74.7086578,82.6703261 74.7564108,82.6976134 C76.1512293,83.6218908 77.4943015,84.6293613 78.941199,85.4694471 C79.7025839,85.8877429 80.7672915,85.8418202 81.421357,85.2385025 C81.5043839,85.1619647 81.579757,85.0772739 81.646478,84.9862605 C81.7503032,84.8446655 81.8338293,84.6879294 81.8937284,84.5230403 C81.9704326,84.311563 82.0077032,84.0867748 82.0073704,83.8619866 C82.0070377,83.6004269 81.9562898,83.3400319 81.8641116,83.0956101 C81.8278393,82.9991059 81.7869083,82.901437 81.735162,82.8122538 C81.6461452,82.6588454 81.524683,82.5217429 81.4097099,82.3883008 C81.2747704,82.2317311 81.1345066,82.0796538 80.9902494,81.9315697 L57.8127688,66.4837429 C57.638562,66.3566235 57.4936393,66.2082067 57.3943066,66.0143664 C57.1816646,65.5992319 57.2219301,65.086595 57.4968007,64.7097294 C57.5801604,64.5955882 57.6828209,64.4959227 57.7994578,64.4160571 C57.9791553,64.2929311 58.1771553,64.2313681 58.3911284,64.2025832 C58.4967839,64.1974252 58.4961183,64.1974252 58.6027721,64.2012521 C58.7092595,64.2142303 58.8110881,64.2307025 58.913083,64.2661429 C59.015078,64.3014168 59.1052595,64.3511664 59.1971049,64.4069059 L82.1191822,79.6845193 C82.1281671,79.6880134 82.137152,79.6915076 82.1459704,79.6951681 C82.1963856,79.7156336 82.2439721,79.7425882 82.2928898,79.7663815 C82.9035284,80.1136303 83.4983604,80.4908286 84.1269688,80.8046336 C84.9958393,81.2131126 86.1637066,81.0934807 86.8230965,80.354558 C86.9430612,80.2201176 87.0433923,80.0687059 87.1222595,79.9066454 C87.2159351,79.7143025 87.2778309,79.5069849 87.3067822,79.2950084 C87.3931368,78.6640706 87.1886478,78.0174924 86.8044612,77.5161697 C86.6344141,77.2942101 86.4304242,77.1048622 86.2038057,76.9414706 L86.1467351,76.9023697 L84.5634007,75.8627866 L84.5629015,75.8624538 C77.2806612,71.3593681 70.3671335,66.2852437 63.2694158,61.4964723 C63.077073,61.3550437 62.9215015,61.1841647 62.8246646,60.9633697 C62.6329872,60.5264387 62.7120209,60.0049832 63.0246612,59.6445899 C63.1125133,59.5432605 63.2166713,59.4562403 63.3319772,59.3880218 C63.5095116,59.2830319 63.700357,59.2344471 63.9038478,59.2158118 C64.0043452,59.2146471 64.0036797,59.2146471 64.1046763,59.2218017 C64.2053402,59.2369429 64.3015116,59.2554118 64.3975167,59.2906857 C64.4815419,59.3214672 64.5003436,59.3341126 64.5798763,59.3748773 C71.8216847,63.8473479 78.6972763,68.8871966 85.7497368,73.6530067 C85.7655436,73.6561681 85.7813503,73.659163 85.7973234,73.6618252 C85.8723637,73.6719748 85.9467385,73.6791294 86.0224444,73.6834555 C86.3994763,73.691442 86.7693536,73.6105782 87.0982999,73.4222286 C87.588641,73.1413681 87.9638427,72.6353866 88.0423772,72.0703378 C88.0731587,71.8488773 88.0575183,71.622758 88.0039419,71.4061227 C87.8247436,70.6810101 87.2743368,70.1103042 86.6958108,69.6725412 L86.6918175,69.6695462 C86.5650309,69.6066521 86.4485604,69.5224605 86.3487284,69.4201328 C80.355152,65.0717866 74.1124948,61.0763462 67.9979553,56.8995445 C67.6254158,56.6451395 67.2560377,56.386242 66.8831654,56.1321697 C66.3665351,55.7837563 65.8479083,55.4385042 65.3274511,55.0957479 L65.0271234,54.8997445 L64.7149822,54.6975849 L64.5870309,54.6025782 L61.7286763,52.1824857 C61.6744343,52.1816538 61.6201923,52.1806555 61.5659503,52.1798235 C60.5929217,52.171837 59.6168982,52.1831513 58.6478629,52.2788235 C58.3393822,52.3091059 58.0312343,52.3482067 57.7267469,52.4066084 C57.5157688,52.4472067 57.302794,52.4949597 57.1014662,52.5714975 C57.0047957,52.6082689 56.9245973,52.6575193 56.8359133,52.7109294 C56.7265973,52.7766521 56.6156175,52.8390471 56.5038057,52.9006101 C56.3948225,52.9581798 56.2853402,53.0139193 56.1743604,53.067995 C55.5054864,53.3801361 54.7956814,53.5976034 54.055594,53.6403647 C53.699194,53.6609966 53.3406309,53.6418622 52.9888898,53.5809647 C51.2959066,53.287958 49.9090746,52.0370639 49.1135805,50.5565563 L49.0836309,50.4979882 C49.0290562,50.3720336 49.0090898,50.342084 48.978641,50.2074773 C48.909757,49.9038218 48.9585083,49.5797008 49.1135805,49.3098218 C49.1936125,49.1705563 49.2964393,49.0657328 49.4139083,48.9587462 L50.3498326,48.2065126 L56.1186209,44.2606555 L56.0469083,44.3411866 C56.1301015,44.2566622 56.1299351,44.2578269 56.2171217,44.1784605 C56.2550578,44.1468471 56.2934931,44.1158992 56.3322612,44.0856168 C54.5585805,43.7064218 52.797878,43.2714874 51.0351788,42.8427092 L50.7130545,42.7673361 C50.6611419,42.751363 50.6078982,42.7390504 50.5569839,42.7197496 C50.4040746,42.6620134 50.2629788,42.5741613 50.1436797,42.4623496 C49.7746343,42.1159328 49.6558343,41.5696857 49.8332024,41.1041361 Z M50.8318545,77.8511059 C49.1789704,78.9141496 47.5062864,79.9467445 45.8154662,80.9478924 C45.3868545,81.269684 44.9585755,81.5919748 44.5294646,81.9131008 C44.4544242,81.9691731 44.378552,82.0222504 44.3060074,82.0818168 C44.1124999,82.2478706 43.9417872,82.4358874 43.8041856,82.6510252 C43.5015284,83.1242286 43.3639267,83.7099092 43.4784007,84.264642 C43.5150057,84.4420101 43.5770679,84.6140538 43.6634225,84.7734521 C43.7424562,84.9193731 43.8407906,85.0551445 43.9564293,85.1742773 C44.6016763,85.8381597 45.7156343,85.9043815 46.5043066,85.4712773 L46.5219436,85.4609613 L50.6554847,82.7205748 C50.6606427,82.7169143 50.6656343,82.7132538 50.6707923,82.7095933 C52.0103704,81.8344 53.3630931,80.9790067 54.7282948,80.1439126 L50.8318545,77.8511059 Z M43.7634209,74.0716353 C42.8101923,74.7187126 41.8298427,75.3280202 40.828362,75.8958975 C40.2787872,76.2556252 39.717399,76.5982151 39.1842965,76.9815697 C38.962836,77.1486218 38.7645032,77.3411311 38.6004461,77.5655866 C38.2295704,78.0728992 38.0413872,78.7213076 38.1438814,79.346921 C38.1784898,79.5583983 38.2462091,79.7642185 38.3453755,79.9543983 C38.4285688,80.113963 38.5330595,80.2627126 38.6565183,80.3938252 C39.3318814,81.1107849 40.5014125,81.2121143 41.3583032,80.7841681 L41.3992343,80.7623714 L41.4261889,80.7472303 L44.467236,78.8447664 L44.4835419,78.8359479 C45.7076478,78.0407866 46.9427351,77.2624303 48.1881385,76.5010454 C46.6894948,75.7356672 45.2091536,74.9328521 43.7634209,74.0716353 Z M38.1628494,70.1870084 C37.7621906,70.6054706 37.4379032,71.1151126 37.3899839,71.7014588 C37.3785032,71.8400588 37.383994,71.9798235 37.4069553,72.1169261 C37.519599,72.790958 38.0435503,73.357837 38.6821419,73.5771345 C38.9658309,73.6744706 39.2709839,73.7070824 39.5689822,73.6726403 C39.6135738,73.6674824 39.6574999,73.6603277 39.7010931,73.6520084 C40.2543284,73.2877882 40.8062326,72.9207395 41.3641267,72.5633412 C40.2569906,71.8270807 39.1781402,71.0447311 38.1628494,70.1870084 Z M76.8096209,41.7512134 C76.772683,41.8116118 76.7307536,41.8688487 76.6841654,41.9222588 C76.5766797,42.0453849 76.4449015,42.1468807 76.2984814,42.2194252 C76.2497301,42.2435513 76.1979839,42.2611882 76.1477351,42.2821529 L74.3657351,42.8911277 L74.2357872,42.9278992 C73.5216562,43.0882958 72.8065267,43.2442 72.0910646,43.3984403 C70.2190494,43.7947731 68.343873,44.1757983 66.4603772,44.5130639 C64.9723822,44.7794487 63.479562,45.0215412 61.9782562,45.2005731 C61.4654528,45.261637 60.9513183,45.3043983 60.4368511,45.3478252 C60.2138931,45.3709529 60.2147251,45.3706202 59.9919335,45.3980739 C59.4741385,45.472116 58.9573419,45.5686202 58.4655032,45.7511462 C58.3144242,45.8073849 58.1656746,45.8716101 58.025078,45.9508101 C57.9658444,45.9840874 57.9024511,46.0193613 57.8517032,46.0654504 L57.869673,46.0473143 L57.8814864,46.0340034 L57.7736679,46.1411563 L57.6537032,46.2344992 L51.8800898,50.183684 C52.0676074,50.3938303 52.2774209,50.5860067 52.5108612,50.7442403 C52.668762,50.8513933 52.8378108,50.9429059 53.0163436,51.0112908 C53.171915,51.0708571 53.3339755,51.1127866 53.4993637,51.1344168 C53.9502713,51.193484 54.4061704,51.0998084 54.8257973,50.9347529 C55.1419318,50.8102958 55.431278,50.6410807 55.7222881,50.4675395 C55.8194578,50.4144622 55.8186259,50.414795 55.9176259,50.3652118 C56.6227721,50.0399261 57.3989654,49.9069832 58.1653419,49.8201294 C59.2232276,49.6999983 60.291762,49.6763714 61.3554713,49.682195 C61.7384931,49.684358 62.1213486,49.6915126 62.5042041,49.7023277 C62.5824057,49.7044908 62.660441,49.7053227 62.7379772,49.7074857 C63.1075217,49.6965042 63.4768999,49.6883513 63.8466108,49.6825277 C64.0888696,49.6805311 64.330962,49.6798655 64.5732209,49.6806975 C65.3158041,49.6873529 66.0583872,49.7079849 66.798641,49.7712118 C67.3723419,49.8202958 67.9472074,49.8913429 68.5085957,50.0224555 C68.8560108,50.1036521 69.2009301,50.208642 69.5230545,50.3635479 C69.7125688,50.4547277 69.9009183,50.5602168 70.0486696,50.7124605 C70.1626444,50.829763 70.2529923,50.969195 70.3133906,51.1211059 C70.5195436,51.6398992 70.3466679,52.2495395 69.8989217,52.5829782 C69.8115688,52.6480353 69.7158965,52.7014454 69.6145671,52.7417109 C69.3606612,52.8425412 69.0761402,52.8571832 68.8132494,52.782642 C68.6565133,52.7382168 68.5260662,52.6482017 68.3784814,52.5853076 C68.2987822,52.5538605 68.2179183,52.5275714 68.1357234,52.503279 C67.8250797,52.4174235 67.507115,52.3631815 67.1878192,52.3217513 C66.6966461,52.2580252 66.202478,52.2265782 65.7079772,52.2031176 L65.6109738,52.1992908 C65.7868444,52.3483731 65.9572242,52.5041109 66.138752,52.646205 C66.2164545,52.7071025 66.304473,52.753358 66.3871671,52.8071008 C66.684999,53.0007748 66.9813335,53.1966118 67.2778343,53.3919496 C67.7500393,53.7069193 68.2209133,54.0235529 68.689957,54.3430151 C68.8832982,54.475958 69.076473,54.6090672 69.2691486,54.742842 C75.1735419,58.8772151 81.1677839,62.8814739 87.1242562,66.9403076 C88.722399,65.3411664 90.1628074,63.5957714 91.5399889,61.8044538 L91.6478074,61.6819933 C91.6887385,61.6460538 91.7275066,61.6074521 91.7706007,61.5743412 C91.9003822,61.4750084 92.0496309,61.4016319 92.2075318,61.3595361 C92.2220074,61.3557092 92.2353183,61.3522151 92.2477973,61.3492202 C92.0837402,61.1904874 91.9213469,61.029758 91.7606175,60.8676975 C91.4544662,60.5590504 91.153473,60.2452454 90.8561402,59.928279 C90.5276931,59.5782017 90.2035721,59.2239647 89.8826125,58.8670655 C88.8585032,57.728316 87.8648427,56.5621126 86.8881536,55.3824319 C85.6550629,53.8932723 84.4500915,52.3809849 83.2689133,50.850395 C82.2453032,49.523795 81.2394965,48.1832185 80.2573167,46.8256706 C79.2686478,45.4591378 78.3042713,44.0751345 77.3853183,42.6606824 C77.1899805,42.3598555 76.9979704,42.0565328 76.8096209,41.7512134 Z" id="Page-1"></path>
        </g>
    </g>
</svg>