<?xml version="1.0" encoding="UTF-8" standalone="no"?>
<svg width="125px" height="100px" viewBox="0 0 125 100" version="1.1" xmlns="http://www.w3.org/2000/svg" xmlns:xlink="http://www.w3.org/1999/xlink">
    <!-- Generator: Sketch 42 (36781) - http://www.bohemiancoding.com/sketch -->
    <title>symbol-03</title>
    <desc>Created with Sketch.</desc>
    <defs></defs>
    <g id="Symbols" stroke="none" stroke-width="1" fill="none" fill-rule="evenodd">
        <g id="symbol-03" fill="#34AFC8">
            <path d="M37.2881694,12.5135058 C37.2972201,12.4769906 37.306583,12.4406315 37.316258,12.4042724 C37.5046076,11.697844 37.8190439,11.0265265 38.25707,10.4402549 C38.4941066,10.1228538 38.7653177,9.83166859 39.0633689,9.57075669 C40.3766671,8.42130872 42.1251825,7.91446551 43.8296925,7.72970494 C44.0906044,7.70146029 44.3522965,7.68054989 44.6141447,7.66619349 C44.9474627,7.6479359 45.2807808,7.64185003 45.614567,7.64138189 L54.4225281,7.68304665 C54.4437506,7.55898866 54.4446869,7.5597689 54.4690304,7.43602301 C54.5060137,7.26983212 54.5058576,7.27045631 54.5470543,7.10488961 C54.7105923,6.51159594 54.9371737,5.94264572 55.2466165,5.40974253 C56.0502626,4.02591079 57.338281,2.94746455 58.8436739,2.40379407 C59.490648,2.17019054 60.1625898,2.0462886 60.8481077,2.00587222 C61.0241296,1.99994241 61.1989031,1.99853798 61.3750811,2.00150289 C61.6074362,2.0113339 61.8386991,2.02678263 62.0694937,2.0570559 C62.5754006,2.12337621 63.0736612,2.24649791 63.5519477,2.42392424 C65.1581475,3.01940258 66.5065564,4.22455962 67.2803974,5.75242347 C67.586251,6.35632839 67.7902055,6.99737269 67.9141074,7.6616681 L67.9272154,7.742969 C71.0061943,7.7567012 74.0851731,7.75514073 77.1641519,7.78525795 C77.3649854,7.78962729 77.5655068,7.79602525 77.7663403,7.80507602 C78.029749,7.8200566 78.2926895,7.83815815 78.5551619,7.86499837 C80.3234953,8.04663799 82.1483181,8.56253196 83.5018766,9.76815714 C83.7975872,10.0315658 84.0664575,10.3252477 84.3006852,10.6446775 C84.7093744,11.2017681 85.0075817,11.8339177 85.1926543,12.4989934 C85.9251426,12.5682786 86.6490483,12.7268231 87.3429928,12.97135 C88.0690831,13.2271123 88.7619353,13.5765033 89.3998586,14.0073512 C89.9407203,14.3728151 90.4419457,14.796797 90.8924557,15.2691536 C92.0341013,16.4665083 92.8368111,17.9720573 93.1886988,19.5882442 C93.3189987,20.1869995 93.3837586,20.7957419 93.3954621,21.4080734 C93.5307556,42.9429797 93.8019666,64.4825674 93.3932775,86.0140406 C93.3537974,87.2582096 93.0761884,88.4827166 92.5489029,89.6120344 C92.2251038,90.3056668 91.8129816,90.9574784 91.3259564,91.5478071 C90.9569034,91.9950401 90.5452494,92.4068502 90.0981725,92.7760592 C88.9618325,93.7139064 87.6003156,94.3674345 86.1570296,94.662833 C85.5938532,94.7781523 85.0227183,94.8354219 84.4483064,94.8463452 C68.9813182,94.9446553 53.511053,95.1375304 38.0467176,94.8441605 C36.8392199,94.8059288 35.6501358,94.5439246 34.5481263,94.045508 C33.8832067,93.7448039 33.2552704,93.3634231 32.6816388,92.9126011 C32.2258232,92.5543153 31.8041821,92.1523363 31.4246739,91.713998 C30.4370475,90.5739129 29.7420106,89.1905493 29.4211764,87.716834 C29.2908765,87.1182347 29.2261166,86.5098044 29.2144131,85.897629 C29.0781833,64.3625667 28.8079086,42.822979 29.2165977,21.2915057 C29.2560778,20.0471807 29.5335308,18.8225177 30.0606602,17.6930438 C30.3844593,16.9994114 30.7964255,16.3475998 31.2836067,15.757115 C31.6526597,15.3098821 32.0644698,14.898072 32.5115467,14.529019 C33.6480427,13.5910157 35.0101838,12.9379558 36.4536258,12.6427134 C36.7299864,12.586068 37.0083757,12.543467 37.2881694,12.5135058 Z M85.430003,14.8918301 L85.4293788,14.9038458 C85.3948923,15.5016648 85.28956,16.0980794 85.0821725,16.6610998 C84.7989458,17.4294791 84.3219077,18.1129684 83.6874174,18.6322955 C82.9933169,19.2003094 82.1517512,19.5532895 81.2878706,19.7716003 C79.9792539,20.1022656 78.6172689,20.1497041 77.2743216,20.1614077 C66.5655425,20.152513 55.8566073,20.1074152 45.1482962,20.0173756 C43.9239453,19.9953728 42.6892953,19.9426287 41.4903801,19.6732902 C40.6528717,19.4852526 39.8292515,19.1851728 39.1218869,18.6905013 C38.8363194,18.4907601 38.5719745,18.2602775 38.3380588,18.0018624 C37.8867687,17.5031337 37.5590683,16.9048465 37.3583909,16.2641143 C37.2199765,15.822343 37.1403921,15.3641867 37.1046572,14.9029095 C36.3951079,15.0302445 35.70959,15.2650964 35.0740073,15.6102741 C34.5997781,15.867909 34.1567585,16.1829694 33.7574322,16.5460926 C32.7712102,17.4424311 32.0616609,18.6287064 31.7458202,19.9234348 C31.6247271,20.4199789 31.5646487,20.9271342 31.5549738,21.4377225 C31.4189001,42.9429797 31.1481572,64.4529183 31.5566903,85.9548985 C31.5744797,86.5193234 31.6550004,87.0785986 31.8094877,87.6222691 C32.1950818,88.980509 33.0182338,90.1997103 34.1282017,91.0721735 C34.553744,91.4065839 35.0193906,91.6896546 35.5125016,91.9126469 C36.356252,92.2941837 37.2681952,92.4883071 38.1929344,92.5057845 C53.6301175,92.6039385 69.0707336,92.7971257 84.5054199,92.504224 C85.4003539,92.4758233 86.2812437,92.282168 87.0978417,91.9126469 C87.5909527,91.6896546 88.0565993,91.4065839 88.4819856,91.0721735 C88.8207653,90.805956 89.1339532,90.5071245 89.4159316,90.1814527 C90.1479517,89.3362979 90.6636896,88.3113761 90.9015065,87.2190416 C90.9982561,86.7744615 91.0463188,86.3225471 91.0549014,85.8679799 C91.1900388,64.3625667 91.4628103,42.852628 91.0531849,21.3506478 C91.0353955,20.786067 90.9548748,20.2266357 90.8003875,19.6828091 C90.4146374,18.3245692 89.5914853,17.1053679 88.4813614,16.2330608 C88.0559751,15.8988064 87.5903285,15.6155797 87.0973736,15.3927435 C86.5636902,15.1514936 86.0034786,14.9856148 85.430003,14.8918301 Z M83.4233846,71.127082 C83.5933206,71.1384735 83.7554542,71.1746766 83.9083811,71.2517642 C84.3006852,71.4497889 84.5537947,71.8633155 84.551454,72.3029021 C84.5505177,72.449431 84.5193082,72.5880014 84.4701531,72.7253234 C82.8455396,76.5065173 80.9916919,80.1851878 79.2514471,83.9145737 C79.1754518,84.0653159 79.0799505,84.199673 78.950743,84.3098428 C78.5805976,84.6258395 78.0377074,84.6779595 77.6141937,84.4381141 C77.4664165,84.3544724 77.347196,84.2408697 77.2437363,84.1072928 C75.5517102,81.6202032 74.0112064,79.033087 72.3957998,76.4954379 C72.3087251,76.3490651 72.2466181,76.1950459 72.223523,76.0252659 C72.204017,75.8823262 72.2111952,75.7361094 72.2445895,75.5956664 C72.272366,75.4787866 72.3184001,75.3662761 72.380351,75.2632846 C72.4424581,75.1604491 72.5203259,75.0671325 72.6105215,74.9878603 C72.9407186,74.6976114 73.418849,74.6174028 73.8258217,74.7835937 C74.0534954,74.8765982 74.2331064,75.0368593 74.3704284,75.238473 L78.0324018,80.9914867 L82.3204388,71.8016766 C82.3532089,71.7369168 82.3528968,71.7373849 82.3892559,71.6751219 C82.4432484,71.5946012 82.500674,71.5193862 82.5708955,71.4519735 C82.7483219,71.2817254 82.967725,71.1827911 83.2077265,71.1390977 C83.2802887,71.1305151 83.3501982,71.1266139 83.4233846,71.127082 Z M68.5606134,76.5747102 C68.7539566,76.6031109 68.9320071,76.6561671 69.0963254,76.7657127 C69.1919827,76.8293802 69.2779651,76.907248 69.3509954,76.9960392 C69.4240258,77.0848304 69.4839481,77.1842328 69.5279536,77.2903453 C69.7077206,77.7229098 69.6066017,78.2345905 69.2757804,78.566192 C69.1131786,78.7292619 68.9028262,78.8419284 68.677025,78.8871823 C68.5766863,78.9073125 68.5504703,78.9048157 68.4487271,78.9099653 L39.0181151,78.9458563 C38.9162159,78.9410188 38.8901559,78.9435155 38.7896611,78.9235414 C38.5637039,78.8789118 38.3531955,78.7667134 38.1901255,78.6041116 C38.0815163,78.4958144 37.9947537,78.3662948 37.9359237,78.2246034 C37.7561567,77.792195 37.8572756,77.2805143 38.1880969,76.9489128 C38.2692418,76.8676119 38.3624023,76.7983267 38.4636773,76.744022 C38.6376706,76.6507055 38.8200904,76.6149705 39.0151502,76.6051395 C48.8636379,76.5931238 58.7233611,76.1034459 68.5606134,76.5747102 Z M80.2192554,50.2775376 C80.642301,50.291738 81.0578562,50.3628958 81.4567143,50.5067718 C82.4928716,50.8803502 83.339743,51.6972604 83.7493684,52.7196855 C83.9191484,53.1433552 84.0057549,53.5890277 84.0254169,54.044063 C84.0481999,55.3171008 84.0514769,56.5906068 84.041958,57.8639567 C84.0271334,58.3194602 83.9453644,58.766225 83.7799538,59.1919233 C83.3812517,60.2188738 82.542963,61.0449908 81.5102387,61.4287123 C81.112785,61.5763335 80.6981661,61.6513925 80.2752766,61.6696501 C79.0014585,61.692433 77.7270163,61.6985189 76.4528861,61.6877516 C76.0301527,61.6733952 75.6149095,61.6022374 75.2163635,61.4583614 C74.1809864,61.0844709 73.3350514,60.2672486 72.925582,59.2452917 C72.7559581,58.821778 72.6695076,58.3761055 72.6498456,57.9212262 C72.6270626,56.646784 72.6197283,55.3720296 72.631744,54.0975874 C72.6464125,53.6748539 72.7178824,53.2597668 72.8617585,52.8613768 C73.235961,51.8259998 74.0528712,50.9802208 75.0748281,50.5705954 C75.4981858,50.4009714 75.9437022,50.3142089 76.3985815,50.2940787 C77.6719314,50.2702034 78.9457495,50.2667703 80.2192554,50.2775376 Z M76.5190504,52.6330789 C76.3347579,52.636512 76.1540546,52.6653808 75.9808416,52.7299846 C75.5579521,52.8874368 75.2166756,53.2324585 75.0634366,53.6567524 C75.0060111,53.815609 74.9779225,53.9808636 74.9721487,54.1493953 C74.9602891,55.396061 74.9375061,56.6442872 74.9913426,57.8897046 C75.0027341,58.0565197 75.0364404,58.2194336 75.0987034,58.3748571 C75.2567798,58.769502 75.5799548,59.0892439 75.9761601,59.2432631 C76.1448478,59.3089592 76.321962,59.3412611 76.5025093,59.3473469 C77.7494871,59.3579582 78.9981815,59.3818335 80.244067,59.3281531 C80.4110381,59.3166055 80.5742641,59.2830553 80.7299998,59.2207922 C81.1244886,59.0631839 81.4440745,58.7406332 81.5979376,58.3445839 C81.6636337,58.175272 81.6956235,57.9978457 81.7015533,57.8168303 C81.7109162,56.5698524 81.7377564,55.3213141 81.6837639,54.0754286 C81.6723724,53.9087696 81.6388221,53.7458557 81.576559,53.5905881 C81.4181705,53.1956312 81.0946835,52.8762014 80.69801,52.7220262 C80.5286982,52.6563301 80.3509597,52.6240282 80.1697883,52.6179423 C78.9529277,52.6076432 77.736067,52.6277733 76.5190504,52.6330789 Z M68.8539832,54.6297103 C68.9547901,54.6445349 68.9810061,54.6446909 69.0790041,54.674184 C69.2994996,54.7408164 69.4981485,54.8731449 69.6443652,55.0510394 C69.9419484,55.4127581 69.9937562,55.931773 69.7734168,56.3449876 C69.7194242,56.4464186 69.6504511,56.5397352 69.5691502,56.6211922 C69.4880054,56.702493 69.3948448,56.7717783 69.2935698,56.8260829 C69.1195766,56.9193995 68.9371567,56.9551344 68.742097,56.9649654 L39.3146059,57.0008564 C39.1193901,56.9914935 38.9369702,56.9562267 38.7626649,56.8633783 C38.6612338,56.8092297 38.5679172,56.7402566 38.4866163,56.6591118 C38.1550148,56.3282905 38.0526474,55.8167658 38.2313222,55.3838893 C38.2898401,55.2421979 38.3762906,55.1123661 38.4845877,55.0039129 C38.6471895,54.840843 38.8575419,54.7280204 39.0833431,54.6829226 C39.1836818,54.6627925 39.2098978,54.6652892 39.311641,54.6601397 C49.1591924,54.648124 59.0178233,54.158446 68.8539832,54.6297103 Z M80.2971233,29.5028962 C80.7516905,29.5181889 81.197519,29.600426 81.622125,29.7658367 C82.6479831,30.165319 83.4733199,31.0029835 83.8578216,32.0343033 C84.0059109,32.431757 84.0814381,32.8466881 84.1001638,33.2697336 C84.1241952,34.5418352 84.1255996,35.8145609 84.1187335,37.0869745 C84.1056255,37.5108003 84.0350919,37.9272918 83.8912158,38.3269302 C83.5070262,39.3946091 82.6504799,40.2577094 81.5873263,40.6531345 C81.1901847,40.8009118 80.7755658,40.8762829 80.3529884,40.8948525 C79.0796385,40.9188839 77.8058204,40.922629 76.5321584,40.9132662 C76.1092689,40.8993779 75.6938697,40.8283762 75.2950115,40.6848122 C74.2588543,40.311702 73.4116708,39.4951039 73.0012652,38.4729909 C72.8311731,38.0493212 72.7444105,37.6034927 72.7247485,37.1481453 C72.7018095,35.873859 72.6946313,34.5989487 72.706647,33.3243504 C72.7214715,32.9014609 72.7930974,32.4860617 72.9372856,32.0875156 C73.3228797,31.0213972 74.1777094,30.1572045 75.2407069,29.7622476 C75.6386288,29.6146264 76.0537159,29.5397235 76.4770735,29.5222461 C77.7502674,29.5021159 79.0237733,29.4919728 80.2971233,29.5028962 Z M76.5927049,31.8614024 C76.4088806,31.8643673 76.2288015,31.8924559 76.0559005,31.9567476 C75.632855,32.1138877 75.2918906,32.4596896 75.1384956,32.8838275 C75.08107,33.0425281 75.0528254,33.2079387 75.0470516,33.3763143 C75.035192,34.62298 75.012253,35.8710502 75.0662455,37.1164675 C75.0768567,37.2703307 75.1060377,37.4210728 75.1600302,37.5658852 C75.3132691,37.9766029 75.6442465,38.3107012 76.0527796,38.4692458 C76.2216233,38.5346298 76.3987375,38.5667757 76.5792848,38.5727055 C77.8259506,38.5820683 79.0740207,38.6084404 80.3194381,38.5533555 C80.4867213,38.541808 80.6504154,38.5079456 80.8064632,38.4455265 C81.2128117,38.2829247 81.540356,37.9463297 81.6886014,37.5342075 C81.7455588,37.3762871 81.7730232,37.2118127 81.7781728,37.0443735 C81.7848828,35.7973956 81.8137517,34.5490134 81.7586668,33.3032839 C81.7469632,33.1361567 81.7132569,32.9726186 81.6506817,32.816883 C81.4876118,32.4099103 81.1499244,32.0829902 80.7374901,31.9339646 C80.5795698,31.8768511 80.4150954,31.8489186 80.2475001,31.8433008 C79.029235,31.8328456 77.81097,31.8551605 76.5927049,31.8614024 Z M69.3517757,34.0173586 C69.5451189,34.0457593 69.7231694,34.0988155 69.8874877,34.208361 C70.2772951,34.4680246 70.4773483,34.9497441 70.3865285,35.4091487 C70.3642137,35.5219713 70.3253578,35.6313608 70.2712092,35.7327919 C70.2172167,35.8340669 70.1480875,35.9275395 70.0669426,36.0088404 C69.9043409,36.1719103 69.6939884,36.2845768 69.4680313,36.3298307 C69.3678486,36.3499608 69.3416325,36.3474641 69.2397333,36.3526136 L39.8138027,36.3869442 C39.618743,36.3775813 39.4363231,36.3423145 39.2620178,36.24931 C39.1605867,36.1953175 39.0672701,36.1261883 38.9859692,36.0450435 C38.6543677,35.7142222 38.5520004,35.2028536 38.7306751,34.769977 C38.789193,34.6282856 38.8756435,34.4984539 38.9839406,34.3900007 C39.1466985,34.2269307 39.3568948,34.1141082 39.582852,34.0690104 C39.6831907,34.0488802 39.7094068,34.051377 39.8111499,34.0462274 C49.6580772,34.0346799 59.5162399,33.5456261 69.3517757,34.0173586 Z M61.0720363,4.34034707 C60.5820462,4.35688814 60.1007949,4.43865718 59.6387374,4.60547226 C58.4384178,5.038973 57.4575015,5.98914796 56.9842085,7.17417483 C56.832218,7.55461932 56.7331277,7.95566213 56.6897464,8.36310289 C56.6686799,8.56081543 56.6658711,8.75852798 56.6615017,8.95702076 L56.6402792,9.10089681 C56.6057927,9.22511085 56.6026717,9.25881717 56.5455582,9.37507277 C56.4165067,9.6373891 56.1891451,9.84524474 55.9163736,9.95042095 C55.7757745,10.0047256 55.6387645,10.0203304 55.4897389,10.028913 C52.1372083,10.0129961 48.7846777,9.97663698 45.4319911,9.98241075 C44.4279797,9.99536271 43.4155416,10.0852462 42.4496059,10.3740907 C41.8531912,10.5524533 41.2705088,10.809308 40.7756813,11.1920932 C40.5480076,11.3682711 40.3406201,11.5709772 40.1644421,11.7988069 C39.543684,12.6015167 39.3710952,13.6562437 39.4332022,14.6477713 C39.4715899,15.2580742 39.6188991,15.8889754 40.0188495,16.3680421 C40.147901,16.5226855 40.2991113,16.6568866 40.4638978,16.7723619 C40.9565407,17.1172275 41.5523311,17.2974627 42.1353256,17.4177756 C43.1344996,17.6240707 44.1622303,17.6585573 45.1790376,17.6768149 C55.8740846,17.7666984 66.5695997,17.8117962 77.2651148,17.8206909 C78.2864476,17.8117962 79.3183916,17.7858923 80.3241195,17.589116 C80.9156967,17.4733286 81.5206939,17.2973067 82.0242601,16.9550939 C82.1926357,16.8407108 82.3477472,16.7071339 82.4806999,16.5526466 C82.9040575,16.0604719 83.055892,15.4028866 83.0924072,14.7691765 C83.1493647,13.781394 82.9736549,12.7391509 82.3489956,11.9445556 C82.1820244,11.7320185 81.987745,11.5416402 81.775676,11.374513 C81.2841255,10.9875145 80.7034717,10.7256663 80.1084615,10.5423102 C79.0871287,10.2275618 78.0121156,10.1344013 76.9481818,10.1241021 L66.8378459,10.0788483 C66.6900686,10.0690173 66.554151,10.0524762 66.4149564,9.99770343 C66.0991156,9.87348939 65.8480348,9.61179726 65.7370848,9.29096301 C65.7055631,9.19998716 65.685433,9.1054222 65.6771624,9.00945281 C65.6662391,8.88399039 65.6737294,8.75369049 65.6695161,8.62791598 C65.662806,8.51337691 65.6532871,8.39993017 65.6408033,8.28585924 C65.5811931,7.84393191 65.4680584,7.41495656 65.2859506,7.0072037 C64.8114093,5.94467434 63.9217809,5.08953248 62.8408379,4.65837245 C62.3862707,4.47688888 61.9098568,4.37904692 61.4225196,4.34627689 C61.3054838,4.34143941 61.1892282,4.33941078 61.0720363,4.34034707 Z M61.2608541,7.21599563 C61.3480848,7.22317383 61.4342232,7.2322246 61.5198934,7.25126243 C61.691702,7.28965019 61.8519631,7.35831121 62.0044218,7.44522983 C62.1855933,7.54853346 62.3372717,7.69646676 62.4658551,7.85875645 C62.5704071,7.99077288 62.6565455,8.1515021 62.7081973,8.31176317 C62.7557919,8.45938437 62.7877817,8.60856606 62.7966764,8.7638336 C62.8242969,9.24633335 62.612384,9.75770194 62.2413023,10.0693294 C62.0889997,10.1971325 61.9257737,10.2946624 61.7411692,10.368473 C61.5844972,10.4310481 61.410816,10.4630379 61.2430647,10.4708403 C61.0322441,10.4806713 60.8273534,10.4447803 60.6274562,10.3793963 C60.5268053,10.3463142 60.4322404,10.2971591 60.3401722,10.2453513 C59.7897916,9.93528431 59.4766037,9.27660662 59.5501023,8.6550683 C59.5898944,8.31956556 59.7351749,8.01449214 59.9533297,7.75919797 C60.0208984,7.67992569 60.1004828,7.61204491 60.1817837,7.54728508 C60.4172598,7.35971564 60.7037635,7.26499464 60.9977575,7.2217694 C61.0863927,7.21568354 61.1720629,7.21318677 61.2608541,7.21599563 Z M60.4584564,8.77522509 C60.4512782,8.84466635 60.4562717,8.91847695 60.47016,8.98573355 C60.4890418,9.07608522 60.5241525,9.16222359 60.5754922,9.23915515 C60.7917745,9.56357849 61.2436889,9.65065316 61.5663957,9.43468302 C61.6419228,9.38412354 61.7076189,9.31889557 61.7588026,9.24368054 C61.8216898,9.15130025 61.8624183,9.04440752 61.8759945,8.93345754 C61.8883222,8.83202648 61.8798957,8.72638213 61.8491543,8.62885227 C61.8151358,8.52039906 61.7545893,8.42052848 61.6742247,8.34000782 C61.5723255,8.23779652 61.4492038,8.18021489 61.3112575,8.14447995 C61.2535199,8.13558522 61.1978108,8.13059169 61.1394489,8.13168403 C60.982777,8.14260737 60.8493561,8.19394709 60.7234255,8.28726367 L60.4628257,8.74214296 C60.4615774,8.74932116 60.460485,8.7566554 60.4597048,8.76398965 C60.4593927,8.76695456 60.4589245,8.77194809 60.4583004,8.77662952 L60.4597048,8.76398965 C60.4600169,8.7605566 60.4598608,8.75977636 60.4590806,8.76492594 L60.4584564,8.77522509 Z M60.4622015,8.74323529 L60.4617334,8.74713649 C60.4618895,8.74588811 60.4628257,8.74214296 60.4622015,8.74323529 Z" id="Page-1"></path>
        </g>
    </g>
</svg>