<?xml version="1.0" encoding="UTF-8" standalone="no"?>
<svg width="125px" height="100px" viewBox="0 0 125 100" version="1.1" xmlns="http://www.w3.org/2000/svg" xmlns:xlink="http://www.w3.org/1999/xlink">
    <!-- Generator: Sketch 42 (36781) - http://www.bohemiancoding.com/sketch -->
    <title>symbol-08</title>
    <desc>Created with Sketch.</desc>
    <defs></defs>
    <g id="Symbols" stroke="none" stroke-width="1" fill="none" fill-rule="evenodd">
        <g id="symbol-08" fill-rule="nonzero" fill="#34AFC8">
            <path d="M31.3564175,25.0326287 C31.3556347,25.032522 31.3527487,25.032205 31.3500296,25.0319216 C31.3520764,25.0321476 31.3542008,25.0323831 31.3564175,25.0326287 Z M31.0379326,28.2500697 L31.0295875,28.2492273 C31.0352384,28.2499951 31.0387587,28.2504735 31.046752,28.250968 C31.0439554,28.2506841 31.0410248,28.2503851 31.0379326,28.2500697 Z M44.4429258,56.5922793 C42.7629914,56.0276763 40.9531801,55.4964081 39.0056383,55.0009547 C38.9807325,54.0459468 38.9283211,53.1634547 38.8553588,52.3601884 C38.826905,52.046931 38.7981602,51.7738759 38.7709222,51.5427685 C39.3584206,50.6365693 40.0940463,49.3024814 40.8241849,47.603201 C42.1787479,44.4506731 43.0455727,41.0287401 43.188497,37.4301515 C43.1897705,37.3280754 43.1904088,37.2842488 43.1928976,37.1349456 C43.2253206,35.0963558 43.0156233,33.3550292 42.1901638,31.4365035 C40.5742684,27.6808534 37.1250028,25.3189518 31.5793693,25.0436501 C31.510964,25.0404206 31.442243,25.0375137 31.3732059,25.0349307 L31.3127648,26.6503805 L32.9293448,26.6383501 C32.9293448,25.8363493 32.3453242,25.1707537 31.5793693,25.0436501 C31.4926392,25.029258 31.4035765,25.0217701 31.3127648,25.0217701 C31.2736259,25.0228304 31.2467577,25.0235584 31.152795,25.0217701 C31.0670452,25.0217701 30.9828547,25.0284465 30.9007151,25.0413079 C30.127631,25.1623574 29.536215,25.8312874 29.536215,26.6486618 L31.152795,26.6486618 L31.091835,25.0332316 C31.027857,25.0356459 30.9641504,25.0383383 30.9007151,25.0413079 C25.369379,25.3002455 21.8996623,27.6662177 20.2767663,31.4360887 C19.4503925,33.3556959 19.2403882,35.0979432 19.2726851,37.137284 C19.2751554,37.28612 19.2757894,37.3298456 19.2757894,37.3677154 C19.4199928,41.0306018 20.2871781,44.4526521 21.6423339,47.6052689 C22.3724319,49.3037591 23.1080123,50.6373852 23.6956091,51.5435412 C23.6680967,51.7745819 23.6390721,52.0474296 23.6103434,52.3603476 C23.5365483,53.1641391 23.4835445,54.0471989 23.4583673,55.0028127 C18.818001,56.1833834 14.9942432,57.5515697 11.9065851,59.0619909 C11.1045885,59.4543117 10.7724807,60.4224973 11.1648016,61.2244939 C11.5571224,62.0264905 12.525308,62.3585983 13.3273046,61.9662774 C16.4593166,60.4341592 20.4606613,59.0385521 25.4357361,57.8445122 C26.1625792,57.6700666 26.6750435,57.0200557 26.6750435,56.2725718 C26.6750435,54.9208985 26.7333126,53.7086743 26.8299632,52.655937 C26.8633639,52.2921288 26.8988886,51.9756085 26.9340383,51.7088817 C26.9542205,51.5557326 26.9690308,51.4573279 26.9759637,51.4161716 C27.047893,50.9891728 26.9455107,50.5511668 26.691757,50.2002952 C26.5794752,50.0450402 26.3605691,49.7128428 26.0701774,49.219967 C25.5751953,48.379844 25.0778003,47.4104598 24.612699,46.3284542 C23.4046358,43.5180318 22.6336607,40.4756424 22.507676,37.3035607 C22.5089495,37.3024678 22.50793,37.2321542 22.5054398,37.0860871 C22.4797747,35.4655053 22.6421781,34.1181678 23.2464414,32.7145074 C24.3904646,30.0570233 26.8069436,28.4303881 31.2153575,28.2640309 C31.2477237,28.262778 31.2798375,28.2605795 31.3430016,28.2540891 C32.1488706,28.159414 32.7685144,27.4751145 32.7693751,26.6383501 L31.152795,26.6383501 C31.152795,26.6383501 31.115067,28.253652 31.1328782,28.2569873 C31.1552338,28.257821 31.1856317,28.2587189 31.3116728,28.2574626 C31.3820809,28.2550332 31.3912315,28.2540617 31.4307164,28.2497986 C31.4083145,28.2520469 31.403407,28.2523902 31.3127648,28.2549302 L31.3127648,26.6383501 L29.6961847,26.6503805 C29.6961847,27.468659 30.305318,28.1490301 31.1328782,28.2569873 C31.1601663,28.2600166 31.187665,28.2623702 31.2523237,28.2658302 C35.6604707,28.4307585 38.0768423,30.0568691 39.2202365,32.714336 C39.8237554,34.1170294 39.9859112,35.4635709 39.9601464,37.0835299 C39.9576378,37.2300346 39.9566104,37.300573 39.9566104,37.3659968 C39.8318975,40.4739634 39.0612095,43.5163807 37.8536303,46.3268274 C37.3886993,47.4088797 36.8914872,48.3783049 36.3966875,49.2184635 C36.1064033,49.7113595 35.8875782,50.0435709 35.7753374,50.1988331 C35.5222893,50.5488736 35.4198444,50.9856224 35.4908506,51.4116738 C35.4977407,51.4530158 35.5124217,51.5516104 35.5324145,51.7049539 C35.5672179,51.9718928 35.6023887,52.2886296 35.6354543,52.652659 C35.7311222,53.705899 35.7887962,54.9186429 35.7887962,56.2708532 C35.7887962,57.0185014 36.3014812,57.6686102 37.0285315,57.8428962 C37.7441602,58.0144442 38.4405452,58.1905788 39.1180893,58.3711589 C38.242992,58.6616564 37.590029,58.878065 37.5080245,58.9055777 C35.3330023,59.6353023 33.8957751,60.1522656 32.6524848,60.6678344 C28.2362058,62.4991813 26.1835148,64.501453 25.4391063,68.1367465 C25.2363215,69.1256762 25.1643609,67.6850013 25.7657011,77.6264994 C25.9337997,80.405546 26.0449883,82.6258425 26.1140143,84.8081414 C26.1422398,85.7005076 26.8885269,86.4010321 27.7808931,86.3728066 C28.6732593,86.3445811 29.3737838,85.598294 29.3455583,84.7059278 C29.2753844,82.4873357 29.1627747,80.2386628 28.9929626,77.4312892 C28.4907493,69.1285791 28.4996441,69.3066558 28.6064523,68.7857789 C29.1048604,66.3518205 30.3758717,65.1120284 33.890953,63.6543911 C35.0485046,63.1743765 36.4270446,62.6785226 38.5364206,61.9708225 C38.7525499,61.8983106 43.3615268,60.3724166 44.955201,59.8312938 C47.7154739,58.8920237 50.7690278,58.0152534 54.1266271,57.2104501 C54.8536922,57.0361755 55.3663929,56.3860598 55.3663929,55.6383998 C55.3663929,53.7467911 55.4478903,52.0488782 55.5832557,50.5723249 C55.6302079,50.0601753 55.6802526,49.6136418 55.7299233,49.2361831 C55.7588206,49.0165861 55.7804117,48.8729214 55.7912235,48.8086465 C55.8630102,48.381884 55.7606906,47.9441569 55.5071658,47.5934366 C55.471892,47.5446396 55.3937706,47.4316534 55.2788925,47.2572468 C55.0801848,46.9555711 54.8567928,46.597887 54.6147924,46.1869855 C53.9167424,45.0017402 53.2162822,43.6361328 52.5616553,42.1127775 C50.8609799,38.155206 49.7752041,33.8696892 49.5976088,29.3962026 C49.5988812,28.6897659 49.6649762,27.7542092 49.8507197,26.6700917 C50.1255934,25.065754 50.6097193,23.5217227 51.3430138,22.1313574 C53.3112206,18.3995333 56.7731059,16.2331601 62.3503373,16.2331601 C67.9320068,16.2331601 71.4266657,18.4052423 73.4378781,22.1437405 C74.1871258,23.5364631 74.6876489,25.082684 74.9773298,26.6853586 C75.1740474,27.7737087 75.2497223,28.739578 75.2497223,29.4603296 C75.0720765,33.8687677 73.9865191,38.1534426 72.2870601,42.1100689 C71.6323698,43.6342979 70.9318436,45.0006479 70.2337283,46.1865075 C69.9917055,46.5976216 69.7682926,46.9554868 69.5695661,47.2573124 C69.4546763,47.431807 69.3765459,47.5448502 69.3412665,47.5936735 C69.0878646,47.9443575 68.9856102,48.381984 69.05738,48.8086465 C69.0681918,48.8729214 69.0897829,49.0165861 69.1186803,49.2361831 C69.168351,49.6136418 69.2183957,50.0601753 69.2653478,50.5723249 C69.4007133,52.0488782 69.4822106,53.7467911 69.4822106,55.6383998 C69.4822106,56.3861263 69.9950007,57.0362817 70.7221498,57.2104916 C74.0754789,58.0138804 77.1252761,58.8899366 79.8906705,59.8309498 C81.4836815,60.3717691 86.0854697,61.8951705 86.3109607,61.970823 C88.4198623,62.6783616 89.7985748,63.174309 90.9560847,63.6543645 C94.4703442,65.1118378 95.7412082,66.351638 96.2404428,68.7858357 C96.3570863,69.3546769 96.3793677,68.9545688 95.7543409,78.4746002 C95.5971935,80.8681748 95.4826214,82.8458755 95.3955098,84.778777 C95.3553135,85.6706842 96.0457616,86.4263034 96.9376688,86.4664997 C97.829576,86.506696 98.5851952,85.8162479 98.6253915,84.9243407 C98.7113577,83.0168538 98.8247361,81.0597582 98.9805553,78.6864136 C99.0172484,78.127527 99.054929,77.5653049 99.1038529,76.8437914 C99.1017733,76.8744605 99.1959903,75.4881842 99.2210942,75.1158454 C99.3111408,73.7802833 99.3681152,72.8875515 99.4123531,72.0931654 C99.5313066,69.9571042 99.5449327,68.8056189 99.4076893,68.1363178 C98.6621301,64.5010758 96.6098676,62.498977 92.1946811,60.667861 C90.9513909,60.1522297 89.5139387,59.6351526 87.3393537,58.9055772 C87.2711823,58.8827056 86.8404299,58.7398908 86.2240741,58.5353752 C87.063608,58.2921032 87.9108919,58.0688817 88.8376613,57.8460916 C89.5642237,57.6714302 90.0763893,57.0215519 90.0763893,56.2742905 C90.0763893,54.9226171 90.1346585,53.7103929 90.231309,52.6576556 C90.2647098,52.2938474 90.3002344,51.9773271 90.3353841,51.7106003 C90.3555663,51.5574512 90.3703766,51.4590465 90.3773095,51.4178902 C90.4492205,50.9909997 90.3469089,50.5531027 90.0932884,50.2022704 C89.9809846,50.046921 89.7620515,49.7145487 89.4716294,49.2214278 C88.9766017,48.3808976 88.4791621,47.4110567 88.0140192,46.3285552 C86.806533,43.5184387 86.0356531,40.4764973 85.909008,37.3049331 C85.9102953,37.3041948 85.9092761,37.2338927 85.9067866,37.0878525 C85.8811243,35.467297 86.0435584,34.1199765 86.6479279,32.7163237 C87.7921687,30.0588157 90.2091461,28.432113 94.6173761,28.2657897 C94.650363,28.2645338 94.683088,28.2622957 94.747543,28.2556337 C95.5526923,28.1602972 96.1715809,27.4763301 96.172441,26.6400687 L94.555861,26.6400687 C94.555861,26.6400687 94.5174934,28.2554888 94.5296868,28.2581958 C94.5537233,28.2591266 94.5865548,28.2602086 94.7155235,28.2591042 C94.7841222,28.2566913 94.7960757,28.2556445 94.8322204,28.2516531 C94.8157407,28.2533711 94.8053884,28.2538596 94.7141106,28.2566488 L94.7141106,26.6400687 L93.0975306,26.6520991 C93.0975306,27.4708073 93.7073037,28.1514632 94.5296868,28.2581958 C94.5586841,28.2614972 94.5879205,28.2640355 94.6536695,28.2675488 C99.0618165,28.4324771 101.478188,30.0585877 102.621582,32.7160546 C103.225101,34.1187481 103.387257,35.4652895 103.361492,37.0852485 C103.358984,37.2317532 103.357956,37.3022916 103.357956,37.3677154 C103.233243,40.475682 102.462555,43.5180993 101.254976,46.328546 C100.790045,47.4105983 100.292833,48.3800236 99.7980334,49.2201821 C99.5077491,49.7130782 99.288924,50.0452895 99.1766832,50.2005517 C98.9233488,50.5509882 98.8209704,50.9883111 98.8924287,51.4147823 C98.8993402,51.4560314 98.9140859,51.554531 98.9341735,51.7077773 C98.9691502,51.9746101 99.0044979,52.2912386 99.0377312,52.6551573 C99.1338905,53.708146 99.1918622,54.92063 99.1918622,56.2725718 C99.1918622,57.0198155 99.704004,57.6696833 100.430544,57.8443619 C104.970587,58.935903 108.701581,60.1941122 111.708686,61.5743171 C112.520111,61.946746 113.479814,61.5908693 113.852243,60.7794441 C114.224672,59.9680189 113.868795,59.0083155 113.05737,58.6358865 C110.131373,57.2929085 106.603247,56.0720061 102.408636,55.0033123 C102.383601,54.0477829 102.330887,53.1648158 102.257494,52.3611273 C102.228899,52.0479998 102.20001,51.7750188 102.172632,51.5439259 C102.76007,50.6377372 103.495543,49.3038492 104.225531,47.6049196 C105.580094,44.4523917 106.446919,41.0304587 106.589843,37.4318701 C106.591116,37.329794 106.591755,37.2859674 106.594243,37.1366642 C106.626666,35.0980744 106.416969,33.3567478 105.59151,31.4382221 C103.970655,27.6710449 100.505158,25.3061849 94.9807152,25.0453687 C94.9123098,25.0421392 94.8435888,25.0392323 94.7745517,25.0366493 L94.7141106,26.6520991 L96.3306907,26.6400687 C96.3306907,25.8380679 95.74667,25.1724724 94.9807152,25.0453687 C94.893985,25.0309766 94.8049223,25.0234887 94.7141106,25.0234887 C94.6802611,25.0244884 94.6549092,25.0252372 94.555861,25.0234887 C94.4701153,25.0234887 94.3859288,25.0301645 94.3037929,25.0430247 C93.530703,25.1640692 92.9392809,25.8330019 92.9392809,26.6503805 L94.555861,26.6503805 L94.4949105,25.0349498 C94.4309333,25.0373637 94.3672275,25.0400557 94.3037929,25.0430247 C88.7717199,25.3019486 85.3015188,27.6678573 83.678337,31.4377097 C82.85179,33.3573716 82.6417373,35.0996672 82.6740318,37.1390447 C82.6765014,37.2878524 82.6771352,37.3315697 82.6771352,37.369434 C82.8220873,41.0317228 83.6890876,44.4529613 85.0434834,47.6049725 C85.7736739,49.3043049 86.5093464,50.6385711 87.0969746,51.5450949 C87.0694563,51.7761707 87.0404247,52.0490737 87.0116893,52.3620663 C86.9378044,53.166835 86.8847615,54.0510651 86.8596214,55.0080174 C84.9296947,55.5102263 83.2282754,56.0528762 81.0775401,56.8193862 C81.0262655,56.8020436 80.9773991,56.7854871 80.9311268,56.7697779 C78.4132879,55.9130029 75.6748243,55.1103613 72.7034383,54.366966 C72.675149,52.8753459 72.5978207,51.5077265 72.4850063,50.2771575 C72.4355643,49.737849 72.3856498,49.2872277 72.3403143,48.9301798 C72.5312802,48.6362069 72.7606351,48.2672063 73.0199338,47.8267462 C73.7847199,46.5276358 74.5470951,45.0406516 75.2577795,43.3860589 C77.1040133,39.0877162 78.2856127,34.4239652 78.4815905,29.5249467 C78.4828824,28.5571377 78.3923537,27.4016831 78.1589361,26.1102882 C77.8125201,24.1937242 77.2089263,22.3290963 76.2851621,20.6119775 C73.7202095,15.8441715 69.1442275,13 62.3503373,13 C55.5526936,13 51.0016953,15.8479167 48.483224,20.6230716 C47.5772888,22.3407727 46.9928336,24.2047857 46.6639937,26.124105 C46.4443592,27.4060319 46.3657211,28.5191326 46.3657211,29.4603296 C46.5615235,34.4245154 47.7434649,39.0895941 49.5911565,43.3892811 C50.3018071,45.0430065 51.0641442,46.5292483 51.8288914,47.8277414 C52.0880826,48.2678319 52.3173535,48.6365532 52.5082689,48.9303408 C52.4629388,49.2873631 52.4130318,49.7379301 52.3635973,50.2771575 C52.2507803,51.5077548 52.1734511,52.8754088 52.1451633,54.3670689 C49.376936,55.0597796 46.8113213,55.8031941 44.4429258,56.5922793 Z" id="Combined-Shape"></path>
        </g>
    </g>
</svg>