<?xml version="1.0" encoding="UTF-8" standalone="no"?>
<svg width="125px" height="100px" viewBox="0 0 125 100" version="1.1" xmlns="http://www.w3.org/2000/svg" xmlns:xlink="http://www.w3.org/1999/xlink">
    <!-- Generator: Sketch 42 (36781) - http://www.bohemiancoding.com/sketch -->
    <title>symbol-01</title>
    <desc>Created with Sketch.</desc>
    <defs></defs>
    <g id="Symbols" stroke="none" stroke-width="1" fill="none" fill-rule="evenodd">
        <g id="symbol-01" fill="#34AFC8">
            <path d="M53.6733874,72.7665207 L53.2189874,72.7670451 C53.0953581,72.7583924 53.0625826,72.7627188 52.9426241,72.7277145 C52.6717671,72.648791 52.4436494,72.4522689 52.3252642,72.1960954 C52.2860647,72.1112723 52.2591887,72.0212051 52.245423,71.9287781 C52.2384746,71.8826302 52.2382124,71.8358267 52.2346726,71.7892855 C52.2336238,71.6172795 52.229953,71.4456668 52.2231356,71.2737919 C52.1841983,70.5123507 52.0740725,69.7582513 51.8759772,69.0214573 C51.7860412,68.6868847 51.679324,68.3567695 51.5571368,68.032554 C50.7225407,65.8162725 49.1983473,63.9405943 47.6045388,62.2234186 C47.2994641,61.8947456 46.9892765,61.5709233 46.6775156,61.2485432 C45.8903784,60.4413474 45.0940641,59.6431976 44.3026006,58.8401971 C43.6127412,58.1344744 42.9272081,57.4246874 42.2644869,56.6932687 C41.2931512,55.6209843 40.3675702,54.5055674 39.5302209,53.3248617 C38.6079174,52.0244597 37.7949531,50.646183 37.1332807,49.1950135 C36.4334575,47.6600698 35.9059025,46.0492179 35.5559909,44.3990354 C35.1865451,42.6560326 35.0137525,40.8748791 35.0007734,39.0941189 C34.9846479,36.9034023 35.2206317,34.7121614 35.7131824,32.5771632 C36.3256915,29.9215585 37.332687,27.3595607 38.6907739,24.996707 C40.5267281,21.8024037 42.998921,18.9820036 45.9226296,16.7402883 C49.1105089,14.2960202 52.8203058,12.5557705 56.7399973,11.6763375 C58.5749027,11.2645457 60.4461234,11.0471783 62.3257346,11.0048324 C62.5659137,11.0010304 62.8059617,10.9993261 63.0461408,11.0002438 C64.3485093,11.0128296 65.6481247,11.1068298 66.9371208,11.2956169 C69.4334365,11.6612607 71.8780979,12.3686878 74.1833977,13.3940376 C76.6917747,14.5097167 79.0316855,15.9994302 81.1066389,17.7971025 C83.2995842,19.6967724 85.1942722,21.9379633 86.7006356,24.4178911 C88.5032899,27.38565 89.7405007,30.6881126 90.3291492,34.1102715 C90.6637219,36.0547783 90.7838114,38.0294385 90.7144584,40.0006901 C90.6538892,41.7210123 90.4492388,43.4376635 90.0689115,45.1172129 C89.644665,46.9898757 88.998987,48.8097044 88.1402681,50.5274044 C87.3680766,52.0721808 86.4278121,53.5276767 85.3753242,54.8958585 C84.5767811,55.933794 83.7150468,56.9213864 82.8223725,57.8790874 C81.6723446,59.1126273 80.4717113,60.2976595 79.2946764,61.504979 C79.0499087,61.7589238 78.8057965,62.0131308 78.5636509,62.2694355 C76.8957696,64.0520311 75.2695788,65.9855253 74.443111,68.3177011 C74.3175152,68.671939 74.2113224,69.0329943 74.1257128,69.3990314 C73.9440052,70.1767293 73.8631152,70.9702905 73.8586577,71.7683091 L73.8479073,71.9075396 C73.8210314,72.0284157 73.8203759,72.0614535 73.7681973,72.1745946 C73.6545317,72.4210666 73.4393931,72.6122135 73.1821707,72.6969055 C73.2297608,73.0254474 73.2570301,73.3571358 73.2683048,73.6886931 C73.2731556,74.0837038 73.2700092,74.4787145 73.2700092,74.8737252 C73.2651584,75.1334385 73.2416911,75.3898743 73.1775822,75.6425081 C73.1354984,75.8083523 73.0755847,75.9655438 73.006625,76.1219486 L72.9935148,76.1483001 L73.1661763,76.4937542 L73.1982963,76.5650738 C73.2250411,76.6395398 73.2481151,76.7123015 73.2596521,76.7909628 C73.2795796,76.9274401 73.2702714,77.069817 73.2586033,77.2065565 C73.2385447,77.4418848 73.1884636,77.6701336 73.1155709,77.8944494 L73.0978721,77.9434816 L73.2550635,78.8340583 C73.2641096,78.8969874 73.2639785,78.896594 73.2689603,78.9595231 C73.2765643,79.5108075 73.1575235,80.0488507 72.8801114,80.526849 L72.9566751,80.9689254 C72.9826333,81.1523373 72.970703,81.3403377 72.9484156,81.5237496 C72.8947949,81.9670059 72.7372101,82.3945299 72.4725149,82.7554541 C72.3651423,82.9018952 72.2416441,83.0329973 72.1077888,83.1553156 C72.1174904,83.2149671 72.1174904,83.2144426 72.1254876,83.2743563 C72.1412198,83.4854307 72.1219478,83.7017493 72.0830105,83.909415 C72.0455153,84.1094769 71.9845528,84.3052124 71.8985498,84.4899353 C71.834572,84.6275925 71.7569595,84.7588257 71.6671545,84.881144 C71.4074412,85.2347265 71.0501879,85.502437 70.6566193,85.6908308 C70.3927107,85.8172132 70.1143809,85.9078048 69.8313314,85.9800421 C69.8258251,86.0670939 69.824383,86.0663073 69.8150748,86.1533591 C69.7787595,86.3903917 69.7222545,86.6194271 69.6257633,86.8398098 C69.5628343,86.9833666 69.4860084,87.1207617 69.3969901,87.2497662 C68.839806,88.0587974 67.8780408,88.4557746 66.9546885,88.6745841 C66.3037665,88.8287602 65.6359322,88.9065038 64.969409,88.9521273 C64.4102584,88.990278 63.8495346,89.0040437 63.2892041,89.0040437 C62.8805588,89.0040437 62.4723068,88.9952599 62.0641858,88.9771678 C61.7823163,88.9647131 61.5005778,88.9446545 61.2198881,88.9175163 C61.0017342,88.8962778 60.7841046,88.8701885 60.5673928,88.837544 C60.403253,88.8127657 60.2396375,88.7841855 60.0769398,88.7507544 C59.2074704,88.5721933 58.3064055,88.2477156 57.7070066,87.5610026 C57.6335894,87.4768351 57.5655474,87.3880789 57.5035361,87.2951275 C57.3993099,87.1387227 57.3127825,86.9707808 57.2459204,86.7952351 C57.1512647,86.5469277 57.1023636,86.2895742 57.0779786,86.0257967 C56.9574957,85.9968231 56.9581512,85.9964298 56.8380617,85.9639165 C56.4218124,85.8377962 56.0216887,85.6690678 55.6799055,85.394671 C55.40328,85.172584 55.1776532,84.8911078 55.025837,84.5701698 C54.9054852,84.3155694 54.8327235,84.0405172 54.7998169,83.7612696 C54.7788405,83.5825774 54.7669102,83.3987722 54.7905086,83.2199489 L54.7919508,83.2107718 C54.7246954,83.1477117 54.7252198,83.1482361 54.6603242,83.0828161 C54.5955598,83.0129387 54.5960842,83.0134631 54.5344662,82.941488 C54.4348286,82.8160233 54.3437126,82.6863633 54.2670178,82.5454285 C54.0968473,82.2320944 53.9973408,81.884936 53.9576168,81.5313535 C53.9367716,81.3450574 53.924448,81.1540416 53.9509306,80.9678766 L54.0344427,80.488305 C53.9941943,80.4222295 53.9574857,80.3544497 53.9222192,80.28549 C53.8941634,80.2267562 53.8676807,80.1678914 53.8425091,80.1078466 C53.7377585,79.8394806 53.6695854,79.5581354 53.6490024,79.2702351 C53.6385142,79.1245806 53.6328768,78.9810238 53.653591,78.8362871 L53.8052761,77.9716685 C53.7793179,77.893925 53.756375,77.8161814 53.7350054,77.7371268 C53.7145535,77.6512549 53.7146846,77.6519104 53.6968547,77.5659074 C53.6604083,77.3604704 53.6413985,77.15582 53.6387764,76.9472365 L53.6408741,76.8693618 C53.6482158,76.8006643 53.6480847,76.7829655 53.6635547,76.7154479 C53.6811224,76.6383599 53.7097027,76.567958 53.7419538,76.4961141 L53.9172374,76.1444982 C53.8857728,76.0823558 53.8878705,76.0820935 53.8529973,76.0040878 L53.8068494,75.8853093 C53.7660766,75.7628599 53.7288436,75.6413282 53.7024921,75.5148146 C53.6669634,75.3439886 53.6508378,75.1722448 53.6410052,74.9984034 C53.6337946,74.6066702 53.6387764,74.214937 53.6387764,73.8230728 C53.6416607,73.5724055 53.6488713,73.3220004 53.6588351,73.0713332 C53.6628992,72.969729 53.66775,72.8681249 53.6733874,72.7665207 Z M71.1980711,72.7479042 L55.6435902,72.7644231 C55.63048,72.9867723 55.621565,73.2095148 55.6134367,73.4321262 L55.6072749,73.6661435 C55.602293,74.0855392 55.5987533,74.505066 55.6064883,74.9243307 C55.6093725,74.9744117 55.61383,75.0234439 55.6207784,75.0730005 C55.636904,75.1607078 55.6603713,75.245662 55.7070436,75.3224878 C55.7453254,75.385679 55.7976352,75.4399553 55.8435209,75.4975092 L55.8894067,75.5662067 C55.9299172,75.6396239 55.9659703,75.7114678 55.9903553,75.7920956 C56.046467,75.9772118 56.046467,76.1774048 55.9903553,76.362521 C55.9691168,76.4329228 55.9592841,76.4490484 55.9293928,76.5160416 L55.618943,77.1386456 C55.6289067,77.2051144 55.6434591,77.2706654 55.6656153,77.3341189 C55.6872472,77.3956058 55.716483,77.4543395 55.7419168,77.5142532 L55.7659085,77.5855728 C55.7846561,77.6593833 55.799995,77.7314894 55.8043214,77.8077909 C55.8086478,77.8840923 55.801306,77.9573784 55.7910801,78.0328932 L55.6075371,79.0789571 C55.616452,79.226447 55.647261,79.3701349 55.7324774,79.4931087 C55.7710215,79.5488271 55.8190048,79.5982526 55.8617441,79.6505624 L55.9072366,79.7166379 C55.9887821,79.8583593 56.0443694,80.0054558 56.0562997,80.1698579 C56.0615438,80.2411775 56.0583973,80.2591385 56.0548576,80.3303269 C56.015658,80.6257 55.9557444,80.9179267 55.9046145,81.2113332 C55.9105141,81.3585609 55.9343747,81.515228 56.0160513,81.6412171 C56.0527599,81.6979843 56.1008744,81.7464921 56.1539708,81.7883137 C56.2306655,81.8487518 56.3179795,81.8928021 56.4013605,81.9430142 L56.4666493,81.9900799 C56.5286607,82.0430451 56.5863456,82.0961415 56.6365577,82.1609059 C56.7519276,82.3097069 56.8229849,82.4910211 56.8392416,82.6786282 C56.8454034,82.7500789 56.8425191,82.768171 56.8398971,82.8394906 C56.8159054,83.0421745 56.7784102,83.2430229 56.7461591,83.4445269 C56.7507477,83.5279078 56.7597937,83.6123376 56.7882429,83.6915233 C56.8509097,83.865758 57.0353704,83.9514988 57.1970193,84.0131168 C57.2309748,84.0259648 57.2688633,84.039075 57.3020321,84.0496943 C57.604878,84.1469721 57.9222763,84.1893181 58.2371836,84.225109 L58.3180736,84.2376948 C58.3985703,84.257229 58.4752651,84.2789919 58.5503866,84.3149139 C58.7981696,84.4334302 58.9885299,84.655255 59.0677156,84.9182459 C59.0999667,85.0248319 59.1086194,85.1307625 59.1088816,85.2414127 C59.0923628,85.4433099 59.0623404,85.6438962 59.0375621,85.8450069 C59.0430684,85.9467421 59.0586695,86.0480841 59.1037687,86.1405111 C59.1699752,86.2762018 59.291638,86.3762327 59.4174961,86.4545007 C59.6595106,86.6050059 59.9381026,86.694942 60.2124994,86.7649505 C60.3293114,86.7945796 60.4470411,86.8202756 60.5652952,86.8428252 C60.9634524,86.9186022 61.367378,86.9617348 61.7714348,86.990184 C62.2764402,87.0258437 62.7830188,87.0375118 63.2892041,87.0375118 C64.1964308,87.0375118 65.1137524,87.0078827 66.0106221,86.8586885 C66.143953,86.8365323 66.2768905,86.8112295 66.4087793,86.7821249 C66.5270334,86.7559044 66.644632,86.7265376 66.7609196,86.6929754 C66.8387942,86.6704259 66.9161445,86.6459098 66.9927081,86.6189027 C67.0610124,86.594911 67.12853,86.5688217 67.1951298,86.5403725 C67.3445863,86.4762636 67.4916828,86.3998311 67.6191141,86.2979647 C67.6971199,86.2355601 67.7693572,86.1614874 67.8141941,86.071158 C67.8412011,86.0168817 67.8553602,85.9591968 67.8645373,85.8994142 L67.867946,85.8672942 L67.8696503,85.8415982 L67.8023949,85.2911004 C67.793611,85.1821545 67.793611,85.0770106 67.8162917,84.9693757 C67.8721412,84.7037628 68.0395586,84.4686967 68.2722649,84.3289418 C68.3665274,84.2723057 68.4659028,84.237957 68.5717022,84.2105566 C68.7186677,84.1852539 68.8668131,84.1680795 69.0139097,84.1438256 C69.1056812,84.1269135 69.1343925,84.122456 69.2245908,84.1027907 C69.287782,84.0891561 69.3504488,84.0740793 69.4128534,84.0572982 C69.4683096,84.0423526 69.5231103,84.0260959 69.5776488,84.0080038 C69.6350715,83.988994 69.6662739,83.9769326 69.7223856,83.9546453 C69.8586007,83.9006312 70.0218228,83.8217077 70.0998286,83.689819 C70.1409947,83.6202037 70.1541049,83.5385271 70.1610533,83.4592103 L70.1621021,83.4426915 L70.0681019,82.8634823 L70.0584003,82.78351 C70.0552539,82.7018333 70.055385,82.6233032 70.0690196,82.5424131 C70.1049416,82.3296344 70.2117898,82.1315391 70.3700301,81.9848358 C70.4696677,81.8925399 70.5900195,81.8365593 70.7021118,81.7626177 C70.7411802,81.7350862 70.7782821,81.7062438 70.8135486,81.6739926 C70.8492084,81.6391195 70.8819839,81.6022798 70.9084665,81.5598027 C70.9725755,81.4566253 70.9934207,81.3361425 71.0022045,81.2167084 C71.0132171,80.9597482 70.9159393,80.7096054 70.8721512,80.4560539 C70.8629741,80.386963 70.8585166,80.3697887 70.85773,80.2999112 C70.8556324,80.1164994 70.9057134,79.933743 71.0011557,79.7769448 C71.0532033,79.6914663 71.1253094,79.6222443 71.1794546,79.5386012 C71.203053,79.5003193 71.2225872,79.4605954 71.2391061,79.4189049 C71.2794855,79.3094346 71.2949556,79.1962935 71.3015107,79.080137 L71.1099705,77.9944803 C71.0883386,77.8350601 71.0921406,77.6799663 71.1413039,77.5253969 C71.1710641,77.4320522 71.2219317,77.3486712 71.2549694,77.2567686 C71.2655887,77.2241242 71.2745037,77.1914798 71.2819765,77.1579176 L71.2868273,77.1324838 L70.9838502,76.5262676 C70.9497637,76.4504905 70.9200035,76.3764178 70.9023047,76.2948723 C70.8557635,76.0805203 70.8832949,75.8530581 70.9793928,75.6557494 C71.0033845,75.6065861 71.0313092,75.5595205 71.063167,75.5150768 C71.1010555,75.4619805 71.1461547,75.4150459 71.1833877,75.3615563 C71.2046262,75.3277319 71.2225872,75.2936453 71.2387128,75.257199 C71.28001,75.149433 71.2957422,75.0393072 71.3021662,74.9244618 C71.3095079,74.5277467 71.307017,74.1309006 71.3022973,73.7343166 C71.2908914,73.4042015 71.2591647,73.0730375 71.1980711,72.7479042 Z M62.6983268,12.9666446 C60.8925261,12.9844745 59.0927561,13.1758836 57.3277281,13.5604062 C53.6277639,14.3662909 50.1243217,15.9968081 47.1191987,18.300928 C44.2767734,20.4803698 41.8938611,23.2481979 40.1655418,26.3857341 C38.9677927,28.5603251 38.0866553,30.9071843 37.5589693,33.3330981 C37.1487507,35.2192644 36.9531463,37.1497432 36.9673054,39.0795666 C36.9801534,40.8448567 37.1612054,42.6109335 37.5551673,44.3328289 C37.9428363,46.0277172 38.5392199,47.6712135 39.3285858,49.2204473 C40.0341775,50.6050169 40.8890944,51.9089587 41.8389294,53.1377789 C43.6023841,55.4192182 45.6799595,57.4278339 47.6981457,59.4784023 C48.0228857,59.8112706 48.3465768,60.1449255 48.6671215,60.481858 C49.6644154,61.5394588 50.6319491,62.6286553 51.4759846,63.814343 C52.4390609,65.167448 53.2324909,66.6469356 53.7005255,68.2454638 C53.9393936,69.0611813 54.0876701,69.8972195 54.1601696,70.743746 L54.1642338,70.7994644 L71.929621,70.7805857 C71.9410269,70.6258852 71.9568902,70.4717091 71.9736713,70.3176641 C72.0671471,69.5445548 72.2257807,68.7827203 72.4618956,68.040289 C72.5826407,67.6608794 72.7220023,67.2873695 72.8781449,66.9212012 C73.9202757,64.4777197 75.6828127,62.4259714 77.5050012,60.528137 C77.8841486,60.1331263 78.2667046,59.7415242 78.6509649,59.3512332 C79.1718337,58.8222361 79.6940135,58.2945501 80.2131779,57.7638486 C80.5404088,57.4258673 80.866722,57.0872306 81.1897576,56.7453162 C82.577867,55.2634688 83.8992453,53.7167259 85.0146622,52.0163313 C85.7160586,50.9471935 86.3345985,49.8236482 86.8482566,48.6523818 C87.3612592,47.4826886 87.7688558,46.2677652 88.0702596,45.0267524 C88.491884,43.2903047 88.7055805,41.5077091 88.7556615,39.7226225 C88.7977453,38.2267472 88.7236726,36.7292987 88.516269,35.246927 C88.1624244,32.7158693 87.4304812,30.2401367 86.3496752,27.9242176 C84.9862131,25.0028688 83.0719909,22.3442488 80.7388974,20.1195767 C78.8199556,18.2897843 76.6208485,16.7554961 74.238985,15.5899982 C72.0456464,14.516534 69.7004915,13.7581082 67.2939808,13.3436943 C66.0511327,13.1296046 64.7951743,13.0109571 63.5347584,12.9747729 C63.2559042,12.96848 62.9773122,12.9657269 62.6983268,12.9666446 Z" id="Page-1"></path>
        </g>
    </g>
</svg>