<?xml version="1.0" encoding="UTF-8" standalone="no"?>
<svg width="125px" height="100px" viewBox="0 0 125 100" version="1.1" xmlns="http://www.w3.org/2000/svg" xmlns:xlink="http://www.w3.org/1999/xlink">
    <!-- Generator: Sketch 42 (36781) - http://www.bohemiancoding.com/sketch -->
    <title>symbol-07</title>
    <desc>Created with Sketch.</desc>
    <defs></defs>
    <g id="Symbols" stroke="none" stroke-width="1" fill="none" fill-rule="evenodd">
        <g id="symbol-07" stroke="#FFFFFF" fill="#34AFC8">
            <path d="M100.074109,11 C101.139305,11.0001418 102,11.8609782 101.998582,12.9244727 L101.998582,87.0769455 C101.998582,88.1405818 101.139164,89 100.074109,89 L25.9244727,89 C24.8594182,89 24,88.1405818 24,87.0769455 L24,12.9244727 C24,11.8609782 24.8592764,11.0001418 25.9244727,11 L100.074109,11 Z M27.8489455,85.1510545 L98.1510545,85.1510545 L98.1510545,71.1053818 L27.8489455,71.1053818 L27.8489455,85.1510545 Z M98.1510545,67.2564364 L98.1510545,14.8489455 L27.8489455,14.8489455 L27.8489455,67.2564364 L41.2989818,67.2564364 C41.7811636,58.2806218 45.9633818,50.1758545 52.4402182,45.8348 C53.2216364,45.3114909 54.2654182,45.4292 54.9121091,46.1127636 C57.2577818,48.6002545 59.9665091,49.9163273 62.7461455,49.9163273 L62.844,49.9163273 C65.6251964,49.9163273 68.3323636,48.6002545 70.6780364,46.1127636 C71.3233091,45.4292 72.3670909,45.3129091 73.1485091,45.8348 C79.6281818,50.1730182 83.8075636,58.2807636 84.2897455,67.2564364 L98.1510545,67.2564364 Z M80.4365455,67.2564364 C80.0068364,60.1597127 76.9761818,53.7567636 72.2493818,49.9475273 C69.4300364,52.4492 66.2079273,53.7638545 62.8411636,53.7638545 L62.7461455,53.7638545 C59.3793818,53.7638545 56.1558545,52.4506182 53.3379273,49.9475273 C48.6111273,53.7553455 45.5833091,60.1598545 45.1536,67.2564364 L80.4365455,67.2564364 Z M51.5893091,39.1112 C53.6144727,45.1895273 57.8122909,48.8172364 62.8198909,48.8172364 C67.8771273,48.8172364 72.0919636,45.1384727 74.0958545,38.9778909 C74.1823636,38.7098545 74.3142545,38.5127273 74.5553455,38.1610182 C75.3339273,37.0349818 76.0316727,35.7898182 76.0316727,32.9577091 C76.0316727,22.0604 69.1818545,17.0967636 62.8198909,17.0967636 C56.3856,17.0967636 49.4592,22.0604 49.4592,32.9577091 C49.4592,35.7983273 50.2250182,37.0860364 51.0787636,38.2574545 C51.3496364,38.6304364 51.4971273,38.8403273 51.5893091,39.1112 Z M72.1827273,32.9562909 C72.1827273,34.8226182 71.8324364,35.3303273 71.3871273,35.9727636 C71.0808,36.4166545 70.6993091,36.9711636 70.4326909,37.7866182 C68.9733818,42.2822545 66.1256727,44.9668727 62.8184727,44.9668727 C59.5467273,44.9668727 56.7132,42.3233818 55.2382909,37.8929818 C54.9546545,37.0420727 54.5306182,36.4592 54.1902545,35.9912 C53.6782909,35.2877818 53.3067273,34.7786545 53.3067273,32.9562909 C53.3067273,32.4414909 53.328,31.9493818 53.3620364,31.4728727 C53.9335636,31.6657455 54.4356,31.8245818 54.8341091,31.8245818 C55.4510182,31.8245818 55.8098182,31.4586909 55.9374545,31.1169091 C56.1615273,30.5312 56.1813818,29.9298909 56.1955636,29.3980727 C56.2253455,28.3698909 56.3005091,28.2550182 56.6692364,28.1273818 C57.0762545,27.9869818 57.4378909,27.9189091 57.7725818,27.9189091 C58.5043636,27.9189091 59.0432727,28.2521818 59.7225818,28.6748 C60.5380364,29.1796727 61.4626909,29.7540364 62.8213091,29.7540364 C64.2366545,29.7540364 65.2194545,29.2420727 66.0902182,28.7896727 C67.0404,28.2961455 67.8615273,27.9245818 69.0499636,28.1954545 C69.2811273,28.2479273 69.3747273,28.3131636 69.4272,29.4179273 C69.4513091,29.9412364 69.4796727,30.5354545 69.6895636,31.0743636 C69.8200364,31.4133091 70.176,31.7749455 70.7787273,31.7749455 C71.1403636,31.7749455 71.5502182,31.6458909 72.1288364,31.4374182 C72.1628727,31.9266909 72.1827273,32.4315636 72.1827273,32.9562909 Z M62.8198909,20.9457091 C66.7695273,20.9457091 70.7390182,23.6260727 71.8608,29.4888364 C71.8054909,29.5086909 71.7530182,29.5271273 71.6977091,29.5484 C71.6012727,29.5838545 71.4835636,29.6264 71.3686909,29.6675273 C71.3616,29.5554909 71.3573455,29.4420364 71.3516727,29.3285818 C71.3062909,28.3514545 71.2297091,26.7162909 69.4782545,26.3192 C69.0485455,26.2227636 68.6287636,26.1731273 68.2288364,26.1731273 C66.9567273,26.1731273 66.0249818,26.6567273 65.2038545,27.0836 C64.4337818,27.4849455 63.7672364,27.8295636 62.8227273,27.8295636 C62.0129455,27.8295636 61.4215636,27.4636727 60.7365818,27.0396364 C59.9466545,26.5503636 59.0532,25.9958545 57.774,25.9958545 C57.2194909,25.9958545 56.6536364,26.0993818 56.0409818,26.3106909 C54.3448364,26.8964 54.3022909,28.3698909 54.2739273,29.3441818 C54.2696727,29.4817455 54.264,29.6150545 54.2583273,29.7441091 C54.1065818,29.6958909 53.9505818,29.642 53.8186909,29.5980364 C53.7477818,29.5739273 53.6797091,29.5512364 53.6116364,29.5285455 C54.7603636,23.2729455 59.0574545,20.9457091 62.8198909,20.9457091 Z" id="Page-1"></path>
        </g>
    </g>
</svg>