<?xml version="1.0" encoding="UTF-8" standalone="no"?>
<svg width="125px" height="100px" viewBox="0 0 125 100" version="1.1" xmlns="http://www.w3.org/2000/svg" xmlns:xlink="http://www.w3.org/1999/xlink">
    <!-- Generator: Sketch 42 (36781) - http://www.bohemiancoding.com/sketch -->
    <title>symbol-05</title>
    <desc>Created with Sketch.</desc>
    <defs></defs>
    <g id="Symbols" stroke="none" stroke-width="1" fill="none" fill-rule="evenodd">
        <g id="symbol-05" stroke="#FFFFFF" fill="#34AFC8">
            <path d="M82.8134511,20 C87.9917269,20 92.538278,24.1886775 92.5989609,28.988852 L94.6870758,55.686225 C94.6917437,55.7469079 94.6948556,55.8075908 94.6948556,55.8682737 C94.6948556,57.6965412 94.1455974,59.4018868 93.2089021,60.8302694 C93.8733023,61.0885608 94.6450645,61.4884457 95.8058199,62.0968309 C97.8643712,63.1735637 101.31085,64.9753797 108.027982,68.1480072 C108.8402,68.5307764 109.358339,69.3492178 109.359895,70.2454579 L109.359895,71.1868211 C109.359895,76.4288919 105.751595,79.0878929 98.6376895,79.0880485 L26.7206492,79.0880485 C19.6067438,79.0880485 16,76.4288919 16,71.1868211 L16,70.2454579 C16,69.3663335 16.4979111,68.5618958 17.2836772,68.1697908 C23.8063131,64.9209206 27.1345379,63.0521979 28.9207941,62.0485957 C29.3237909,61.8229798 29.6645488,61.6315952 29.9819672,61.4619942 C28.7698648,59.9153577 28.0401137,57.9750602 28.0401137,55.8667178 C28.0401137,55.8060348 28.0432257,55.7453519 28.0463376,55.684669 L30.1328965,28.988852 C30.1935794,24.1886775 34.7401305,20 39.9199623,20 L82.8134511,20 Z M98.6361335,74.4450272 C104.001126,74.4450272 104.632851,73.0384282 104.705981,71.7111838 C98.7730591,68.891762 95.6004315,67.2284276 93.6523542,66.2108217 C91.4864407,65.0765179 91.4537653,65.0765179 91.0476565,65.0765179 C90.8920593,65.0765179 90.7193464,65.0827418 90.515514,65.0889656 C90.176312,65.0983015 89.7639794,65.1107493 89.2396167,65.1107493 L35.1773587,65.1107493 C34.6514401,65.1107493 34.2391074,65.0983015 33.8999055,65.0889656 C33.6976291,65.0827418 33.5280281,65.0765179 33.3755428,65.0765179 C33.0316729,65.0765179 33.0098893,65.0765179 31.1956256,66.0972357 C29.4965038,67.0510467 26.4296824,68.7719521 20.6508012,71.6769524 C20.7161521,73.0135326 21.3120895,74.4450272 26.7206492,74.4450272 L98.6361335,74.4450272 Z M68.6183157,66.4302138 C68.767689,66.4302138 68.9123944,66.472225 69.0368722,66.5515796 L73.2208818,69.229408 C73.5102926,69.4145687 73.6456622,69.7693304 73.5476359,70.0991965 C73.4496097,70.4290626 73.1477511,70.6546786 72.8038812,70.6546786 L50.4865703,70.6546786 C50.1427004,70.6546786 49.8392858,70.4306186 49.7428155,70.0991965 C49.6479012,69.7677744 49.7786029,69.4145687 50.0695697,69.229408 L54.2535793,66.5515796 C54.3780571,66.472225 54.5212065,66.4302138 54.6705799,66.4302138 L68.6183157,66.4302138 Z M70.1602842,69.1080421 L68.3926997,67.9768503 L54.8977518,67.9768503 L53.1301673,69.1080421 L70.1602842,69.1080421 Z M82.8134511,24.6399094 L39.9215183,24.6399094 C37.2748094,24.6399094 34.7743619,26.801155 34.7743619,29.0868783 C34.7743619,29.1475612 34.7728059,29.2066882 34.768138,29.2673711 L32.6831351,55.9460723 C32.7267023,58.3624973 34.7043432,60.3136866 37.130104,60.3136866 L85.6033094,60.3136866 C88.0290702,60.3136866 90.008267,58.3624973 90.0518343,55.9491843 L87.9668314,29.2673711 C87.9606075,29.2066882 87.9590515,29.1475612 87.9590515,29.0868783 C87.9590515,26.801155 85.457048,24.6399094 82.8134511,24.6399094 Z M77.7487612,25.9189187 C81.3881804,25.9189187 84.5810356,28.8488145 84.6121551,32.2003789 L86.2054707,52.6131797 C86.2085826,52.6442991 86.2101386,52.6738626 86.2101386,52.704982 C86.2101386,56.1934719 83.3704891,59.0346774 79.8788873,59.0346774 L42.8545261,59.0346774 C39.3644802,59.0346774 36.5232748,56.191916 36.5248308,52.704982 C36.5248308,52.6738626 36.5263867,52.6442991 36.5279427,52.6131797 L38.1212584,32.2003789 C38.1508218,28.8488145 41.345233,25.9189187 44.9846522,25.9189187 L77.7487612,25.9189187 Z M77.7487612,28.2404294 L44.9846522,28.2404294 C42.8405224,28.2404294 40.442769,29.9535549 40.442769,32.248614 C40.442769,32.2797335 40.4412131,32.309297 40.4381011,32.3388604 L38.8447855,52.7469933 C38.8681251,54.9378023 40.6574932,56.7131667 42.8545261,56.7131667 L79.8788873,56.7131667 C82.0759202,56.7131667 83.8652883,54.9378023 83.8886279,52.7469933 L82.2953123,32.3388604 C82.2937563,32.309297 82.2922003,32.2797335 82.2922003,32.248614 C82.2922003,29.9551108 79.892891,28.2404294 77.7487612,28.2404294 Z" id="Page-1"></path>
        </g>
    </g>
</svg>