<?xml version="1.0" encoding="UTF-8" standalone="no"?>
<svg width="125px" height="100px" viewBox="0 0 125 100" version="1.1" xmlns="http://www.w3.org/2000/svg" xmlns:xlink="http://www.w3.org/1999/xlink">
    <!-- Generator: Sketch 42 (36781) - http://www.bohemiancoding.com/sketch -->
    <title>symbol-04</title>
    <desc>Created with Sketch.</desc>
    <defs></defs>
    <g id="Symbols" stroke="none" stroke-width="1" fill="none" fill-rule="evenodd">
        <g id="symbol-04" fill="#34AFC8">
            <path d="M62.4065,19.7350537 L98.9535416,18 C99.0055946,18.0012765 99.0576477,18.0026948 99.1098425,18.0041132 C99.2461449,18.0279413 99.2833054,18.0266648 99.4122323,18.080278 C99.7037009,18.2014041 99.9304933,18.4518827 100.021976,18.7539888 C100.062541,18.8875963 100.057576,18.9244731 100.067647,19.0624775 L100.067647,19.7078216 L102.434145,19.7078216 C102.538818,19.7105164 102.537967,19.7108001 102.642499,19.7187428 C102.859079,19.7464004 103.068,19.7941984 103.26983,19.8795824 C103.821989,20.1133246 104.262667,20.5755612 104.469319,21.1384998 C104.545342,21.3457191 104.582928,21.558328 104.599664,21.777745 C105.081616,40.7263241 104.602075,59.6872427 104.602075,78.6419207 C104.596686,78.8586428 104.568603,79.0704008 104.504068,79.2779037 C104.314862,79.8867965 103.856171,80.3927179 103.268979,80.641069 C103.032258,80.7412037 102.785893,80.7908456 102.530592,80.8102768 C75.8215726,81.4856897 49.0953917,80.812688 22.3777207,80.812688 C22.1615659,80.806731 21.9502334,80.778506 21.7432978,80.7138298 C21.1356816,80.5239142 20.630753,80.065649 20.3828274,79.4794496 C20.2825508,79.2423034 20.232909,78.9956543 20.2134778,78.7400697 C19.7346466,59.7913488 20.2109247,40.830572 20.2109247,21.8757522 C20.2174491,21.6230043 20.2564534,21.3766389 20.3438231,21.1384998 C20.5629564,20.5412374 21.0451915,20.0592859 21.6425958,19.8404363 C21.8804512,19.7532084 22.1263911,19.7142041 22.3788554,19.7078216 L24.7467718,19.7078216 L24.7467718,19.0624775 C24.7569838,18.9244731 24.7520196,18.8875963 24.7925841,18.7539888 C24.8998105,18.3999715 25.1919883,18.1214098 25.5506861,18.0310616 C25.6861375,17.9968797 25.7225888,18.0035458 25.8610186,18 L62.4065,19.7350537 Z M24.7467718,21.8353296 L22.4058038,21.8353296 C22.3933224,21.8353296 22.3821176,21.8351878 22.370629,21.8404356 C22.357013,21.8473855 22.3459499,21.8591577 22.3409857,21.8737666 C22.3382909,21.8832694 22.3384327,21.8929141 22.3384327,21.9027007 C22.3382909,40.8068857 22.3382909,59.710929 22.3384327,78.6151141 C22.3384327,78.6281628 22.3384327,78.6405023 22.3438224,78.6525582 C22.351056,78.6665997 22.3631118,78.6773791 22.3780044,78.6824851 C22.3875073,78.68518 22.397152,78.68518 22.4069385,78.68518 C49.0732656,78.6853218 75.7395927,78.6853218 102.40592,78.68518 C102.418685,78.68518 102.430457,78.6853218 102.442087,78.680074 C102.455987,78.6729823 102.466766,78.6610682 102.471873,78.6461757 C102.474709,78.6359636 102.474567,78.6256098 102.474567,78.6149722 C102.474709,59.710929 102.474709,40.8068857 102.474567,21.9028425 C102.474567,21.8902193 102.474851,21.8788726 102.469603,21.8675259 C102.462653,21.853768 102.450739,21.8428468 102.435989,21.8378826 C102.426486,21.8351878 102.417266,21.8356133 102.407196,21.8353296 L100.067647,21.8353296 L100.067647,75.2939322 C100.064243,75.3430068 100.064243,75.3925068 100.057435,75.4412976 C100.043819,75.5388793 100.016586,75.6341917 99.9767311,75.724398 C99.8563142,75.9965772 99.6218628,76.2096117 99.3394716,76.3033639 C99.2145159,76.3449212 99.1797666,76.3420845 99.0498468,76.3566934 L62.4524542,77.9367227 C62.4357178,77.9362972 62.4205416,77.9358717 62.4065,77.935588 C62.3924585,77.9358717 62.3772823,77.9362972 62.3606877,77.9367227 L25.7647135,76.3566934 C25.7157808,76.3511619 25.6664226,76.3490344 25.6180572,76.3400988 C25.5210429,76.3223696 25.427007,76.2910243 25.3385027,76.2471977 C25.071855,76.1151503 24.8691744,75.8719052 24.7876199,75.5856845 C24.7514523,75.4590269 24.7558492,75.4244194 24.7467718,75.2939322 L24.7467718,21.8353296 Z M97.9401386,20.3602574 L97.9401386,20.1780009 L63.470254,21.81448 L63.470254,75.7634023 L97.9401386,74.2751396 L97.9401386,21.1851631 C97.9333306,21.1687104 97.9268063,21.1522577 97.9207074,21.1353795 C97.8287991,20.8829152 97.8388693,20.6040698 97.9401386,20.3602574 Z M26.8742798,20.3850783 C26.96633,20.6227919 26.9727125,20.8914252 26.8839245,21.1353795 C26.8808042,21.1438895 26.8776838,21.1523995 26.8742798,21.1607677 L26.8742798,74.2751396 L61.342746,75.7634023 L61.342746,21.81448 L26.8742798,20.1780009 L26.8742798,20.3850783 Z M57.0312802,64.2293305 C57.208147,64.2466342 57.372107,64.286915 57.5261385,64.3789652 C57.6457045,64.4505913 57.7508034,64.54562 57.833918,64.6575269 C58.0878006,64.9992047 58.1113451,65.4726461 57.8927791,65.8380102 C57.8391659,65.9276492 57.7723621,66.0092037 57.6949208,66.0794114 C57.5398964,66.2202525 57.3440238,66.3131536 57.1369464,66.3439316 C57.0448962,66.3576895 57.0213518,66.3542855 56.9285925,66.3544273 L31.015545,65.1020342 C30.923353,65.0929569 30.8995249,65.0940916 30.8093186,65.07154 C30.6062125,65.0207634 30.4199846,64.9094239 30.2792854,64.7543994 C30.1856751,64.6512862 30.1127725,64.5297346 30.0656836,64.3986801 C29.9218641,63.9978576 30.0367495,63.5380322 30.3519044,63.2518115 C30.4293457,63.1816037 30.516999,63.1228845 30.6113185,63.0782068 C30.7735765,63.0013329 30.9406567,62.9770793 31.1182327,62.9769374 C39.7559152,63.3943545 48.3935977,63.8119134 57.0312802,64.2293305 Z M93.4913776,62.9770793 C93.5835696,62.9861566 93.6075395,62.9851638 93.6977459,63.0078572 C93.9007101,63.0587756 94.0866543,63.1703988 94.2272117,63.3257069 C94.2972776,63.4031482 94.3557132,63.4909434 94.4003908,63.5854047 C94.4449267,63.6798661 94.4755628,63.7808518 94.490739,63.8842487 C94.5528622,64.3053534 94.349898,64.7336917 93.9845339,64.9522577 C93.8305024,65.0444497 93.6665424,65.0847305 93.4896756,65.1020342 L67.5752098,66.3544273 C67.4825923,66.3542855 67.458906,66.3576895 67.3669977,66.3439316 C67.1599202,66.3131536 66.9639058,66.2202525 66.8088814,66.0794114 C66.4937266,65.7933325 66.3788411,65.3333653 66.5226607,64.9326846 C66.5578355,64.8343937 66.607761,64.7413507 66.6700261,64.6575269 C66.7531407,64.54562 66.8582396,64.4505913 66.9778056,64.3789652 C67.1318371,64.286915 67.2957971,64.2466342 67.4725221,64.2293305 C76.1453794,63.8102114 84.8084501,62.9701294 93.4913776,62.9770793 Z M93.4915194,54.4003853 C93.5837114,54.4094627 93.6076813,54.4084699 93.6977459,54.4311633 C93.9008519,54.4822235 94.0867961,54.5938467 94.2272117,54.7491548 C94.2972776,54.8265961 94.355855,54.9143913 94.4003908,55.0088526 C94.58208,55.3937898 94.5121559,55.8626925 94.2259352,56.1778474 C94.1557274,56.2551468 94.0740311,56.3220924 93.9843921,56.3757056 C93.8303605,56.4677558 93.6664006,56.5080366 93.4896756,56.5253403 L67.5752098,57.7748967 C67.397492,57.774613 67.2304117,57.7503594 67.0682956,57.6734855 C66.9423471,57.6139153 66.8285963,57.5292404 66.7351278,57.4259854 C66.6650619,57.3485441 66.6064845,57.2607489 66.5619487,57.1662876 C66.3802595,56.7812086 66.4501836,56.3124477 66.7364043,55.9972929 C66.8771035,55.8422684 67.0631896,55.7309289 67.2664375,55.6801523 C67.3566438,55.6577426 67.3804719,55.6587354 67.4726639,55.6497999 C76.1455212,55.2316736 84.8085919,54.3924427 93.4915194,54.4003853 Z M57.0312802,55.6497999 C57.1234722,55.6587354 57.1473003,55.6577426 57.2375066,55.6801523 C57.4406127,55.7309289 57.6268406,55.8422684 57.7675398,55.9972929 C58.0537605,56.3124477 58.1236846,56.7813505 57.9419954,57.1662876 C57.8974596,57.2607489 57.8388822,57.3485441 57.7688163,57.4259854 C57.6753478,57.5292404 57.561597,57.6139153 57.4356485,57.6734855 C57.2735324,57.7503594 57.1063103,57.774613 56.9287343,57.7748967 L31.0156869,56.5253403 C30.9234948,56.516263 30.8996668,56.5173976 30.8094604,56.4948461 C30.6062125,56.4442114 30.4201265,56.3328718 30.2794273,56.1778474 C29.9932065,55.8626925 29.9232824,55.3937898 30.1049716,55.0088526 C30.1495074,54.9143913 30.2080848,54.8265961 30.2781508,54.7491548 C30.3716193,54.6457579 30.48537,54.561225 30.6113185,54.5015129 C30.7734346,54.4246389 30.9405149,54.4003853 31.1182327,54.4002435 C39.7559152,54.8168096 48.3935977,55.2332338 57.0312802,55.6497999 Z M57.0312802,46.5951258 C57.1234722,46.6042032 57.1474421,46.6030685 57.2376484,46.6256201 C57.4407545,46.6762548 57.6268406,46.7875944 57.7675398,46.9426188 C57.861292,47.045732 57.9341946,47.1672837 57.9812834,47.29848 C58.0166,47.3967709 58.037166,47.5001677 58.0424138,47.6045575 C58.0636889,48.0297754 57.820302,48.4365549 57.4356485,48.6189533 C57.2733906,48.6958272 57.1063103,48.7200808 56.9287343,48.7202227 L31.0156869,47.469248 C30.83882,47.4519442 30.6748601,47.4116634 30.5208285,47.3196132 C30.4311895,47.2658582 30.349635,47.1990544 30.2794273,47.121755 C29.9932065,46.8066001 29.9232824,46.3376974 30.1049716,45.9526184 C30.1644,45.8266699 30.2487911,45.7127774 30.3519044,45.6190252 C30.5069288,45.478326 30.7029432,45.3854248 30.9100206,45.354505 C31.001929,45.340889 31.0256152,45.344293 31.1182327,45.3441511 C39.7559152,45.7611427 48.3935977,46.1781343 57.0312802,46.5951258 Z M93.4915194,45.344293 C93.6682444,45.3617385 93.8322044,45.402303 93.9860941,45.4947787 C94.0755913,45.5485337 94.1571457,45.6154793 94.2272117,45.6929206 C94.5127232,46.0086428 94.5819382,46.4776874 94.3996817,46.8623408 C94.3548622,46.9566604 94.2961429,47.0443137 94.2259352,47.121755 C94.085236,47.2767794 93.8991499,47.388119 93.6960438,47.4387537 C93.6056957,47.4613053 93.5818676,47.4601706 93.4896756,47.469248 L67.5752098,48.7202227 C67.3976338,48.7200808 67.2304117,48.6956854 67.0682956,48.6188114 C66.6836421,48.4365549 66.4402552,48.0297754 66.4615303,47.6045575 C66.4666363,47.5001677 66.4873441,47.3967709 66.5226607,47.29848 C66.5697495,47.1672837 66.6426521,47.045732 66.7364043,46.9426188 C66.8771035,46.7875944 67.0631896,46.6762548 67.2662956,46.6256201 C67.356502,46.6030685 67.3804719,46.6040614 67.4726639,46.5951258 C76.1455212,46.1764323 84.8084501,45.3369176 93.4915194,45.344293 Z M93.4915194,36.7647624 C93.6682444,36.7822079 93.8322044,36.8227724 93.9860941,36.9152481 C94.0755913,36.9690031 94.1571457,37.0359487 94.2272117,37.11339 C94.5127232,37.4291122 94.5819382,37.8981568 94.3996817,38.2828103 C94.3548622,38.3771298 94.2961429,38.4647831 94.2259352,38.5422244 C94.085236,38.6972488 93.8991499,38.8085884 93.6960438,38.8592231 C93.6056957,38.8817747 93.5818676,38.88064 93.4896756,38.8897174 L67.5752098,40.1406921 C67.4825923,40.1405502 67.458906,40.1439543 67.3669977,40.1301964 C67.1599202,40.0992766 66.9639058,40.0063754 66.8088814,39.8656762 C66.7057682,39.7720659 66.6213771,39.6581733 66.5619487,39.532083 C66.517271,39.4376216 66.4867767,39.3366359 66.4716005,39.233239 C66.4094773,38.8121342 66.6124415,38.383796 66.9778056,38.16523 C67.1318371,38.073038 67.2957971,38.032899 67.4726639,38.0155952 C76.1455212,37.5969017 84.8084501,36.757387 93.4915194,36.7647624 Z M57.0312802,38.0155952 C57.1234722,38.0246726 57.1474421,38.0235379 57.2376484,38.0460895 C57.4407545,38.0967242 57.6268406,38.2080638 57.7675398,38.3630882 C57.8377475,38.4403877 57.8964668,38.528041 57.9412863,38.6225024 C58.1235428,39.0071558 58.0543278,39.4762004 57.7688163,39.7917808 C57.6753478,39.8951776 57.5614552,39.9797106 57.4356485,40.0394227 C57.2733906,40.1161548 57.1063103,40.1405502 56.9287343,40.1406921 L31.0156869,38.8897174 C30.9234948,38.88064 30.8995249,38.8817747 30.8093186,38.8592231 C30.6062125,38.8085884 30.4201265,38.6972488 30.2794273,38.5422244 C30.2090777,38.4647831 30.1505003,38.3771298 30.1056808,38.2828103 C29.9234243,37.8981568 29.9924973,37.4291122 30.2781508,37.11339 C30.3716193,37.010135 30.48537,36.925602 30.6113185,36.8658899 C30.7734346,36.789016 30.9406567,36.7647624 31.1182327,36.7646205 C39.7559152,37.1816121 48.3935977,37.5986037 57.0312802,38.0155952 Z M93.4915194,28.5440715 C93.5837114,28.5531488 93.6075395,28.552156 93.6977459,28.5748494 C93.9008519,28.6259096 94.0866543,28.7375329 94.2272117,28.8926991 C94.5127232,29.2084213 94.5819382,29.6774659 94.3996817,30.0621193 C94.3548622,30.1564389 94.2961429,30.2440922 94.2259352,30.3215335 C94.1557274,30.3988329 94.0741729,30.4656367 93.9845339,30.5193917 C93.8305024,30.6114419 93.6664006,30.6517227 93.4896756,30.6690265 L67.5752098,31.9200012 C67.4825923,31.9198593 67.458906,31.9232633 67.3669977,31.9095055 C67.1599202,31.8785857 66.9639058,31.7856845 66.8088814,31.6449853 C66.4937266,31.3589064 66.3788411,30.8989392 66.5226607,30.4982585 C66.5579773,30.3998258 66.607761,30.3069246 66.6700261,30.222959 C66.7531407,30.1111939 66.8582396,30.0160233 66.9778056,29.9445391 C67.1318371,29.8523471 67.2957971,29.8122081 67.4726639,29.7949043 C76.1455212,29.3762108 84.8084501,28.5366961 93.4915194,28.5440715 Z M57.0312802,29.7949043 C57.1234722,29.8038399 57.1474421,29.802847 57.2376484,29.8253986 C57.4407545,29.8760333 57.6268406,29.9873729 57.7675398,30.1423973 C57.861292,30.2455105 57.9341946,30.3670622 57.9812834,30.4982585 C58.1249611,30.8989392 58.0102175,31.3589064 57.6950627,31.6449853 C57.6177632,31.7151931 57.529968,31.7739123 57.4356485,31.81859 C57.2733906,31.8954639 57.1063103,31.9198593 56.9287343,31.9200012 L31.0156869,30.6690265 C30.83882,30.6517227 30.6748601,30.6114419 30.5208285,30.5193917 C30.1554645,30.3008257 29.9525002,29.8723456 30.0146234,29.4512409 C30.0297997,29.347844 30.0602939,29.2468583 30.1049716,29.1523969 C30.1644,29.0264485 30.2487911,28.9125559 30.3519044,28.8188037 C30.5069288,28.6781045 30.7029432,28.5852033 30.9100206,28.5542835 C31.001929,28.5406675 31.0256152,28.5440715 31.1182327,28.5439296 C39.7559152,28.9609212 48.3935977,29.3779128 57.0312802,29.7949043 Z" id="Page-1"></path>
        </g>
    </g>
</svg>