<?xml version="1.0" encoding="UTF-8" standalone="no"?>
<svg width="125px" height="100px" viewBox="0 0 125 100" version="1.1" xmlns="http://www.w3.org/2000/svg" xmlns:xlink="http://www.w3.org/1999/xlink">
    <!-- Generator: Sketch 42 (36781) - http://www.bohemiancoding.com/sketch -->
    <title>symbol-02</title>
    <desc>Created with Sketch.</desc>
    <defs></defs>
    <g id="Symbols" stroke="none" stroke-width="1" fill="none" fill-rule="evenodd">
        <g id="symbol-02" fill-rule="nonzero" fill="#34AFC8">
            <path d="M33.0339092,27.2508973 C33.0331773,27.2507975 33.0304788,27.2505011 33.0279363,27.2502361 C33.0298502,27.2504474 33.0318366,27.2506676 33.0339092,27.2508973 Z M32.7361156,30.2593088 L32.7283126,30.2585211 C32.7335963,30.259239 32.7368879,30.2596863 32.7443619,30.2601487 C32.741747,30.2598832 32.7390069,30.2596037 32.7361156,30.2593088 Z M45.2702181,56.7601921 C43.699425,56.2322699 42.0071929,55.735517 40.1861782,55.272252 C40.1628905,54.3792888 40.1138842,53.5541301 40.045662,52.8030501 C40.0190568,52.5101443 39.9921795,52.2548289 39.9667111,52.0387361 C40.5160411,51.1914105 41.203875,49.9439951 41.8865782,48.3551129 C43.1531384,45.4073973 43.9636477,42.2077791 44.0972865,38.8429824 C44.0984772,38.7475379 44.0990741,38.7065586 44.1014012,38.5669553 C44.1317178,36.6608079 43.935644,35.0326111 43.1638127,33.2387275 C41.6528982,29.7270731 38.4277232,27.5186187 33.2423764,27.2612027 C33.1784152,27.258183 33.1141588,27.2554649 33.0496069,27.2530497 L32.9930925,28.7635475 L34.5046472,28.7522988 C34.5046472,28.002402 33.958569,27.3800487 33.2423764,27.2612027 C33.1612809,27.2477456 33.0780044,27.2407441 32.9930925,27.2407441 C32.9564964,27.2417356 32.9313737,27.2424162 32.8435156,27.2407441 C32.7633368,27.2407441 32.6846159,27.2469868 32.6078127,27.2590126 C31.8849541,27.3721978 31.331961,27.9976691 31.331961,28.7619406 L32.8435156,28.7619406 L32.786516,27.251461 C32.7266945,27.2537184 32.6671268,27.256236 32.6078127,27.2590126 C27.4358344,27.5011277 24.191537,29.7133882 22.6740768,33.2383397 C21.9013905,35.0332345 21.7050296,36.6622921 21.7352283,38.5691418 C21.7375381,38.7083082 21.7381309,38.7491931 21.7381309,38.7846026 C21.8729658,42.20952 22.6838121,45.4092477 23.9509267,48.3570465 C24.6335919,49.9451898 25.3213834,51.1921733 25.8708055,52.0394586 C25.8450804,52.2554891 25.8179415,52.5106105 25.7910793,52.803199 C25.7220785,53.55477 25.6725182,54.3804596 25.6489766,55.2739894 C21.3100839,56.3778612 17.7347466,57.6571596 14.8476864,59.0694523 C14.0977936,59.436285 13.7872621,60.3415699 14.1540948,61.0914626 C14.5209275,61.8413554 15.4262123,62.151887 16.1761051,61.7850543 C19.1046377,60.3524741 22.8460245,59.0475363 27.4978804,57.9310703 C28.1775023,57.7679581 28.656673,57.1601769 28.656673,56.4612552 C28.656673,55.1973969 28.7111566,54.0639281 28.8015279,53.0795846 C28.8327587,52.7394121 28.8659754,52.4434555 28.8988415,52.1940572 C28.9177126,52.0508579 28.9315607,51.9588463 28.9380431,51.9203638 C29.0052993,51.5211061 28.9095686,51.1115564 28.6723007,50.78348 C28.5673136,50.6383116 28.3626293,50.3276962 28.0911037,49.8668414 C27.6282793,49.0812993 27.1631989,48.1748936 26.7283141,47.1631834 C25.5987359,44.5353475 24.8778493,41.690615 24.7600495,38.7246159 C24.7612403,38.723594 24.760287,38.6578485 24.7579586,38.521271 C24.7339609,37.0059746 24.8858133,35.7461704 25.450819,34.4337025 C26.5205178,31.9488689 28.7800039,30.4279123 32.9020135,30.2723629 C32.932277,30.2711914 32.9623045,30.2691357 33.0213649,30.263067 C33.7748786,30.1745427 34.3542656,29.5347005 34.3550703,28.7522988 L32.8435156,28.7522988 C32.8435156,28.7522988 32.8082387,30.2626583 32.8248928,30.265777 C32.845796,30.2665565 32.874219,30.267396 32.9920715,30.2662213 C33.0579054,30.2639498 33.0664615,30.2630414 33.1033811,30.2590553 C33.0824346,30.2611575 33.077846,30.2614785 32.9930925,30.2638534 L32.9930925,28.7522988 L31.4815379,28.7635475 C31.4815379,29.5286644 32.0510972,30.1648334 32.8248928,30.265777 C32.850408,30.2686094 32.8761202,30.2708101 32.9365781,30.2740454 C37.0583383,30.4282586 39.3177239,31.9487246 40.3868345,34.4335422 C40.9511442,35.745106 41.1027651,37.0041659 41.0786742,38.51888 C41.0763286,38.6558666 41.0753679,38.7218223 41.0753679,38.7829956 C40.9587574,41.689045 40.2381391,44.5338036 39.1090135,47.1616623 C38.6742879,48.1734162 38.2093786,49.0798602 37.7467249,49.8654356 C37.4752997,50.3263094 37.2706911,50.6369378 37.1657424,50.782113 C36.9291342,51.1094121 36.8333449,51.5177864 36.899738,51.9161583 C36.9061804,51.9548144 36.9199076,52.0470035 36.9386016,52.1903846 C36.9711439,52.4399812 37.0040297,52.7361403 37.0349471,53.0765196 C37.1243998,54.0613331 37.1783268,55.1952879 37.1783268,56.4596483 C37.1783268,57.1587235 37.6577038,57.7665963 38.3375194,57.9295593 C39.0066554,58.0899623 39.6577979,58.2546538 40.2913236,58.423502 C39.4730793,58.6951266 38.8625378,58.8974757 38.7858609,58.9232009 C36.7521447,59.605517 35.4082907,60.0888945 34.2457741,60.570968 C30.1164103,62.2833366 28.1970778,64.1555255 27.5010317,67.5546425 C27.3114214,68.4793239 27.2441359,67.1322462 27.8064084,76.4278687 C27.9635861,79.0263672 28.067551,81.1024163 28.1320926,83.1429363 C28.1584843,83.9773276 28.8562869,84.6323407 29.6906782,84.6059489 C30.5250695,84.5795572 31.1800826,83.8817546 31.1536908,83.0473633 C31.0880759,80.9729079 30.9827822,78.870326 30.8240024,76.2453408 C30.3544167,68.4820381 30.3627336,68.6485456 30.4626028,68.1615088 C30.9286305,65.885679 32.1170672,64.7264332 35.403782,63.3634952 C36.4861302,62.914666 37.7751097,62.4510265 39.7474445,61.789304 C39.9495324,61.7215031 44.259075,60.2947428 45.749212,59.7887754 C48.3301565,58.9105275 51.1853282,58.0907189 54.3247922,57.3382018 C55.0046216,57.1752494 55.4840134,56.5673701 55.4840134,55.8682839 C55.4840134,54.0995685 55.560216,52.511965 55.6867871,51.1313399 C55.7306889,50.6524634 55.7774823,50.2349401 55.823926,49.882004 C55.850946,49.6766737 55.8711343,49.5423426 55.8812437,49.4822435 C55.9483666,49.0832068 55.8526944,48.6739177 55.6156406,48.3459829 C55.5826584,48.3003561 55.5096123,48.1947104 55.4021976,48.0316345 C55.2163995,47.749558 55.0075207,47.4151118 54.7812426,47.0309056 C54.1285432,45.9226629 53.4735903,44.6457758 52.8614929,43.2213892 C51.2713064,39.5209318 50.2560708,35.5138349 50.0900135,31.3309802 C50.0912033,30.670439 50.1530042,29.7956631 50.3266804,28.7819782 C50.5836962,27.2818705 51.0363696,25.8381513 51.7220237,24.5381147 C53.5623607,21.0487384 56.7993355,19.0231093 62.0142274,19.0231093 C67.2332691,19.0231093 70.5008882,21.0540765 72.3814369,24.5496933 C73.0820078,25.8519341 73.5500131,27.2977006 73.8208741,28.7962532 C74.0048114,29.8138958 74.0755699,30.7170149 74.0755699,31.3909409 C73.9094653,35.5129732 72.894434,39.5192829 71.3053848,43.2188566 C70.6932282,44.6440601 70.0382135,45.9216416 69.3854531,47.0304587 C69.159154,47.4148636 68.9502557,47.7494792 68.76444,48.0316959 C68.6570143,48.1948539 68.5839599,48.300553 68.5509725,48.3462044 C68.3140334,48.6741052 68.2184223,49.0833002 68.2855294,49.4822435 C68.2956388,49.5423426 68.3158272,49.6766737 68.3428471,49.882004 C68.3892909,50.2349401 68.4360843,50.6524634 68.4799861,51.1313399 C68.6065571,52.511965 68.6827598,54.0995685 68.6827598,55.8682839 C68.6827598,56.5674324 69.1622351,57.1753486 69.842143,57.3382406 C72.9776143,58.0894351 75.8292734,58.908576 78.4150067,59.7884538 C79.9045235,60.2941374 84.2073444,61.718567 84.4181858,61.7893045 C86.3900771,62.450876 87.6792179,62.9146029 88.7615271,63.3634703 C92.0474734,64.726255 93.2357724,65.8855084 93.7025729,68.161562 C93.8116384,68.6934469 93.8324722,68.3193328 93.2480519,77.2208704 C93.101114,79.4589401 92.9939854,81.3081542 92.9125332,83.1154797 C92.8749484,83.9494418 93.5205397,84.6559702 94.3545018,84.693555 C95.1884639,84.7311399 95.8949923,84.0855485 95.9325771,83.2515865 C96.0129583,81.4680245 96.1189708,79.6380768 96.2646668,77.4189228 C96.298976,76.8963457 96.3342086,76.3706498 96.379954,75.6960114 C96.3780095,75.724688 96.4661055,74.4284747 96.4895785,74.0803259 C96.5737749,72.8315322 96.6270478,71.996799 96.6684118,71.2540223 C96.7796371,69.2567359 96.7923779,68.1800599 96.664051,67.5542417 C95.9669289,64.1551728 94.0479971,62.2831455 89.9196548,60.5709929 C88.7571382,60.0888609 87.4130739,59.6053771 85.3797666,58.9232005 C85.3160241,58.9018148 84.9132566,58.7682783 84.336944,58.5770497 C85.1219354,58.3495825 85.9141732,58.1408631 86.7807326,57.9325472 C87.460092,57.7692331 87.9389834,57.1615758 87.9389834,56.4628622 C87.9389834,55.1990038 87.993467,54.065535 88.0838383,53.0811915 C88.1150691,52.7410191 88.1482859,52.4450624 88.1811519,52.1956642 C88.200023,52.0524649 88.2138711,51.9604533 88.2203536,51.9219708 C88.2875927,51.5228143 88.191928,51.1133665 87.9547846,50.7853269 C87.8497769,50.6400702 87.6450674,50.3292913 87.3735134,49.8682073 C86.9106464,49.0822844 86.4455243,48.1754518 86.0106007,47.1632779 C84.881562,44.535728 84.1607643,41.6914142 84.042347,38.7258991 C84.0435507,38.7252088 84.0425977,38.6594741 84.0402699,38.5229217 C84.0162749,37.0076498 84.168156,35.7478616 84.7332611,34.4354008 C85.8031632,31.9505449 88.0631154,30.4295251 92.184953,30.2740075 C92.2157968,30.2728331 92.2463958,30.2707404 92.3066633,30.2645113 C93.059504,30.1753686 93.6381848,29.5358372 93.6389891,28.7539057 L92.1274344,28.7539057 C92.1274344,28.7539057 92.0915595,30.2643757 92.1029607,30.2669069 C92.1254356,30.2677772 92.1561342,30.2687889 92.2767241,30.2677563 C92.3408661,30.2655001 92.3520429,30.2645214 92.3858394,30.2607893 C92.3704304,30.2623957 92.3607507,30.2628524 92.2754029,30.2654604 L92.2754029,28.7539057 L90.7638483,28.7651545 C90.7638483,29.5306732 91.3340059,30.1671085 92.1029607,30.2669069 C92.1300741,30.2699939 92.1574111,30.2723672 92.2188885,30.2756523 C96.3406487,30.4298656 98.6000343,31.9503316 99.6691449,34.4351492 C100.233455,35.746713 100.385076,37.0057728 100.360985,38.5204869 C100.358639,38.6574735 100.357678,38.7234292 100.357678,38.7846026 C100.241068,41.690652 99.5204495,44.5354106 98.3913239,47.1632693 C97.9565984,48.1750232 97.491689,49.0814672 97.0290353,49.8670426 C96.7576101,50.3279163 96.5530015,50.6385447 96.4480528,50.7837199 C96.2111769,51.1113893 96.1154498,51.5203004 96.1822655,51.9190648 C96.1887281,51.9576341 96.2025158,52.0497344 96.2212984,52.1930246 C96.2540026,52.4425219 96.287054,52.7385798 96.3181281,53.0788556 C96.4080402,54.0634341 96.4622456,55.1971459 96.4622456,56.4612552 C96.4622456,57.1599523 96.9411148,57.7675997 97.6204533,57.9309299 C101.865541,58.951556 105.35414,60.1280225 108.165881,61.4185587 C108.92459,61.7667918 109.821943,61.4340355 110.170176,60.6753266 C110.51841,59.9166178 110.185653,59.0192641 109.426944,58.671031 C106.691042,57.4153031 103.39213,56.2737198 99.4700334,55.2744565 C99.4466244,54.3810056 99.3973352,53.5554027 99.3287102,52.803928 C99.301973,52.5111436 99.2749614,52.2558975 99.2493617,52.0398183 C99.7986355,51.1925024 100.486326,49.945274 101.168889,48.3567199 C102.435449,45.4090043 103.245958,42.2093861 103.379597,38.8445894 C103.380788,38.7491449 103.381385,38.7081656 103.383712,38.5685622 C103.414028,36.6624148 103.217954,35.0342181 102.446123,33.2403344 C100.930571,29.7179018 97.6902195,27.5066812 92.5246868,27.2628096 C92.4607256,27.2597899 92.3964693,27.2570719 92.3319173,27.2546567 L92.2754029,28.7651545 L93.7869576,28.7539057 C93.7869576,28.004009 93.2408794,27.3816556 92.5246868,27.2628096 C92.4435913,27.2493525 92.3603148,27.2423511 92.2754029,27.2423511 C92.2437525,27.2432859 92.2200477,27.243986 92.1274344,27.2423511 C92.0472594,27.2423511 91.9685423,27.2485932 91.8917426,27.2606179 C91.1688785,27.3737984 90.6158797,27.9992722 90.6158797,28.7635475 L92.1274344,28.7635475 L92.0704438,27.2530676 C92.010623,27.2553247 91.951056,27.2578418 91.8917426,27.2606179 C86.7190753,27.5027201 83.474325,29.7149214 81.9565974,33.2398553 C81.1837492,35.0348013 80.9873431,36.6639041 81.0175395,38.570788 C81.0198487,38.7099281 81.0204413,38.7508051 81.0204413,38.7862096 C81.1559763,42.2105681 81.9666496,45.4095369 83.2330535,48.3567693 C83.9158053,49.9457001 84.6036828,51.1932822 85.1531342,52.0409113 C85.1274037,52.2569746 85.1002583,52.5121478 85.0733897,52.804806 C85.004305,53.5572908 84.9547081,54.3840745 84.9312013,55.2788559 C83.1266574,55.7484375 81.5357753,56.2558327 79.5247682,56.9725444 C79.4768248,56.9563285 79.4311331,56.9408476 79.3878669,56.926159 C77.0336061,56.1250467 74.473054,55.3745507 71.694712,54.6794521 C71.6682605,53.284739 71.5959561,52.0059706 71.4904709,50.8553487 C71.4442411,50.3510779 71.3975694,49.9297323 71.3551792,49.5958811 C71.5337386,49.3210069 71.7481928,48.9759793 71.9906455,48.5641349 C72.7057452,47.3494246 73.4185907,45.9590462 74.0831036,44.4119486 C75.809392,40.392859 76.9142257,36.0321008 77.0974712,31.45136 C77.0986792,30.5464273 77.0140319,29.4660398 76.7957789,28.2585438 C76.4718688,26.4664944 75.9074891,24.723007 75.0437396,23.1174453 C72.6454259,18.6593924 68.3667346,16 62.0142274,16 C55.6582106,16 51.4028798,18.6628942 49.0480276,23.1278186 C48.2009489,24.7339248 47.6544644,26.4768373 47.3469884,28.271463 C47.141623,29.4701061 47.0680939,30.5108913 47.0680939,31.3909409 C47.2511755,36.0326153 48.3563289,40.3946149 50.0839804,44.4149614 C50.7484617,45.9612482 51.4612715,47.3509324 52.176335,48.5650655 C52.4186871,48.9765643 52.6330628,49.3213307 52.8115749,49.5960316 C52.7691898,49.929859 52.7225252,50.3511537 52.6763022,50.8553487 C52.5708147,52.0059971 52.4985094,53.2847978 52.4720594,54.6795483 C49.8836773,55.3272553 47.4847445,56.0223718 45.2702181,56.7601921 Z" id="Combined-Shape"></path>
        </g>
    </g>
</svg>