<?xml version="1.0" encoding="UTF-8" standalone="no"?>
<svg width="125px" height="100px" viewBox="0 0 125 100" version="1.1" xmlns="http://www.w3.org/2000/svg" xmlns:xlink="http://www.w3.org/1999/xlink">
    <!-- Generator: Sketch 42 (36781) - http://www.bohemiancoding.com/sketch -->
    <title>symbol-04</title>
    <desc>Created with Sketch.</desc>
    <defs></defs>
    <g id="Symbols" stroke="none" stroke-width="1" fill="none" fill-rule="evenodd">
        <g id="symbol-04" fill="#34AFC8">
            <path d="M70.5916269,68.5459299 L70.5916269,48.7397084 C70.5993934,48.6007202 70.6133084,48.4714402 70.6597457,48.3389241 C70.7807738,47.9931525 71.0585884,47.7153379 71.40436,47.5943098 C71.5368761,47.5478725 71.6661561,47.5339575 71.8051443,47.526191 C85.8617205,47.526191 99.9406254,46.7448477 113.975196,47.526191 L113.975682,47.526191 C114.074543,47.526191 114.073734,47.5286181 114.17211,47.5342812 C114.313525,47.5590369 114.443776,47.5889703 114.57338,47.6535295 C114.868022,47.8002842 115.094221,48.066449 115.191626,48.3809927 C115.232239,48.5122144 115.241785,48.6444068 115.251493,48.7803208 C115.258936,48.8833889 115.265894,48.9858097 115.2701,49.0888778 C115.272527,49.2657277 115.265085,49.4424159 115.262657,49.6192658 C115.256347,50.0941556 115.252302,50.5690454 115.248257,51.0439352 C115.227385,53.9895463 115.215411,56.9353193 115.20457,59.8810923 C115.201658,60.6829845 115.198746,61.4848768 115.196319,62.2867691 C115.193406,63.2753812 115.205703,64.3059002 115.185316,65.3121488 C115.180462,65.4561529 115.173666,65.5998333 115.164929,65.7436756 C115.115417,66.4125663 115.012026,67.0743378 114.845046,67.7242977 C114.749259,68.0967667 114.634379,68.4642197 114.502025,68.8252007 C113.554025,71.4119343 111.743619,73.598369 109.679992,75.3825631 C109.332441,75.68303 108.976314,75.9733034 108.613068,76.2541922 C108.142708,76.617762 107.660214,76.965637 107.168011,77.2991116 C106.551868,77.7165615 105.920677,78.111521 105.277675,78.486417 C104.374494,79.0130835 103.4485,79.5002703 102.506325,79.9534786 C101.381151,80.4947073 100.23284,80.9873954 99.0686727,81.438662 C97.551776,82.0266516 96.0080201,82.5440954 94.4471132,83.0016724 C92.4740957,83.5801157 90.4734101,84.0630956 88.4568678,84.4635563 C85.9715842,84.9572152 83.4618685,85.3259626 80.9413121,85.5837137 C77.906386,85.8938888 74.859163,86.0341714 71.8087039,86.0432323 L71.6726282,86.0359512 C71.5350962,86.0129753 71.4077578,85.9849835 71.2809048,85.9241458 C70.9920877,85.7858048 70.765888,85.5333932 70.6599075,85.2313083 C70.6134702,85.0986304 70.5993934,84.9688649 70.5916269,84.8297149 L70.5916269,68.5459299 Z M112.794687,55.7316719 C111.971113,56.8874258 110.988811,57.9362284 109.93386,58.8753291 C109.59359,59.1783848 109.244097,59.471247 108.887323,59.7547247 C108.425377,60.1216923 107.950973,60.4728033 107.466698,60.809514 C107.451812,60.8198693 107.436927,60.8302247 107.421879,60.84058 C105.8024,61.9634881 104.073866,62.9273445 102.292746,63.7711435 C101.683722,64.0601225 101.067902,64.3350246 100.446743,64.5971444 C97.5524232,65.8200463 94.5427383,66.7673988 91.490014,67.5100715 C90.6979917,67.7031016 89.9024097,67.882055 89.1042389,68.0480642 C85.3737247,68.8245535 81.5836672,69.3148145 77.7822836,69.5646373 C76.3419194,69.6592916 74.8999372,69.714628 73.4569841,69.7447232 L73.0186617,69.7511953 L73.0186617,83.6077839 C73.5050394,83.6005028 73.9912554,83.5895002 74.4774713,83.576556 C75.699726,83.5365908 76.9208481,83.4786656 78.1406758,83.3911306 C83.4180201,83.0125131 88.6829057,82.1624038 93.7643074,80.6726898 C95.900907,80.0463531 98.0057933,79.3041659 100.046444,78.4119879 C101.738249,77.6722277 103.388471,76.8290758 104.952776,75.8466122 C105.519731,75.4904853 106.075198,75.1159129 106.615133,74.7203063 C107.040349,74.4088368 107.455858,74.0842613 107.859393,73.7452855 C108.166817,73.487049 108.467284,73.220237 108.759013,72.9445258 C110.577348,71.2256998 112.142947,69.0761561 112.616219,66.5730742 C112.7133,66.0601609 112.758605,65.5412609 112.762164,65.0194484 L112.762164,65.0210664 C112.76896,62.4029432 112.777859,59.7848199 112.788053,57.1666966 L112.794687,55.7316719 Z M19.115191,40.0175928 C19.1218249,39.9457525 19.1287824,39.8739123 19.1362253,39.8020721 C19.241235,38.7747892 19.496559,37.7659517 19.8759855,36.8059786 C20.3981215,35.4853481 21.1496933,34.2639024 22.0360464,33.1573364 C23.3688121,31.4935232 24.998485,30.0813126 26.7417431,28.8627793 C28.3764319,27.7199696 30.1229261,26.7407419 31.9229769,25.8838369 C34.1969466,24.8013794 36.5613639,23.9122757 38.9668789,23.169603 C41.630954,22.3470001 44.3495565,21.7038359 47.092753,21.20775 C50.5816963,20.5768827 54.1130319,20.1837031 57.6532665,19.9977922 C59.0727583,19.9233632 60.493059,19.8864722 61.9143305,19.8741753 C62.2735317,19.8730427 62.6327328,19.8730427 62.991934,19.8741753 C65.9535635,19.8999018 68.9114717,20.0494072 71.8572446,20.3600676 C74.3054755,20.6181423 76.7431892,20.9815503 79.1576033,21.463074 C81.1199418,21.8546356 83.0672327,22.3240241 84.9883116,22.8840219 C86.511195,23.3276839 88.0180599,23.8283003 89.4996837,24.3954174 C90.76158,24.8783973 92.0053544,25.4095943 93.221946,25.9977457 C94.1370999,26.4401132 95.0370444,26.9148412 95.9151456,27.4269456 C96.6427706,27.851353 97.3555098,28.3011635 98.0481855,28.7804219 C98.5212955,29.1075862 98.9848591,29.4485037 99.436773,29.804307 C99.8720212,30.1470043 100.296267,30.5034548 100.707083,30.8749529 C102.696604,32.6743565 104.41543,34.8743826 105.266025,37.4467158 C105.397894,37.8452349 105.508081,38.2510351 105.594969,38.6618512 C105.677974,39.0553544 105.739297,39.4535499 105.779747,39.8540106 C105.783307,39.8724561 105.786705,39.8912252 105.789941,39.9098324 C105.81324,40.0410541 105.832657,40.172923 105.848352,40.3052773 C105.864046,40.437308 105.87602,40.5698241 105.884757,40.702502 C105.890582,40.7913314 105.896892,40.8801609 105.891391,40.9691522 C105.874725,41.236935 105.76745,41.4958187 105.589953,41.696939 C105.462777,41.8411049 105.301298,41.9540429 105.122345,42.0239415 C104.945656,42.0930311 104.754891,42.1202139 104.567039,42.1074315 L63.6681058,42.1074315 L63.6681058,60.7001356 L63.6664878,60.7206845 L63.6664878,76.9855387 C63.6587213,77.1246887 63.6446445,77.2542923 63.5982072,77.387132 C63.4766937,77.733389 63.1977465,78.0115272 62.8511659,78.1319081 C62.7183262,78.1780217 62.5885608,78.1916131 62.4494108,78.199056 C62.0829285,78.1979234 61.7164463,78.19582 61.3499641,78.1925839 C58.3192449,78.1474411 55.2930562,77.972371 52.2812679,77.6272467 C49.7856289,77.341342 47.3019634,76.9447645 44.8446716,76.4231138 C42.8545031,76.0004862 40.8811621,75.495663 38.9372691,74.8947291 C37.4020887,74.420163 35.8848684,73.8855681 34.3962871,73.279942 C33.255419,72.8157312 32.1312165,72.3097754 31.0316079,71.7549552 C30.1117618,71.2909062 29.2089048,70.792555 28.3303183,70.2542387 C27.7052759,69.8714145 27.0925305,69.4682031 26.4959654,69.0425012 C26.0194576,68.7023927 25.5533051,68.3480457 25.099935,67.9776801 C24.749633,67.6916137 24.4070975,67.3960008 24.0737847,67.0901944 C22.1548093,65.3304325 20.5015132,63.1949655 19.6581995,60.7069313 C19.519535,60.2980568 19.4035227,59.8815777 19.312428,59.4595972 C19.1705274,58.8031652 19.0938331,58.1373487 19.0711807,57.4665163 C19.0507936,56.4594587 19.0640614,55.4397805 19.0613108,54.4419456 C19.0509555,50.6957366 19.0401147,46.9495276 19.018595,43.2034804 C19.0151971,42.729076 19.0126083,42.2546716 19.0069452,41.780429 C19.0043564,41.5696006 18.9977225,41.3595812 19.0007967,41.1489146 C19.0050036,41.0041015 19.0059744,41.0047487 19.0134173,40.8602592 C19.03251,40.6177176 19.0580748,40.3767939 19.0957747,40.1363557 C19.1019232,40.0965523 19.1082335,40.0570725 19.115191,40.0175928 Z M21.6088883,48.0871597 C21.5762042,48.0433112 21.5438437,47.999301 21.5118069,47.955129 L21.4673112,47.8926733 C21.4690911,48.3703137 21.4708709,48.8479542 21.4726507,49.3255946 C21.4778284,51.0288876 21.4836533,52.7321805 21.4883455,54.4356353 C21.4909344,55.4240857 21.477343,56.4126978 21.4974065,57.4009864 C21.5024223,57.5495209 21.5103507,57.6974082 21.5213532,57.8456191 C21.5603476,58.2907373 21.6292754,58.731325 21.7349323,59.1656024 C22.3238927,61.5858415 23.9076138,63.6446141 25.7142984,65.3016316 C26.0134709,65.5758866 26.3210571,65.8412424 26.635439,66.0980226 C27.0480349,66.4350569 27.4722806,66.7575289 27.9059108,67.0668949 C28.5511784,67.5273843 29.216995,67.9590729 29.8975355,68.3658439 C31.5110282,69.3301857 33.2055838,70.1561865 34.9399429,70.8789575 C37.0244421,71.7478359 39.1699408,72.4678562 41.3453729,73.0718643 C46.4968351,74.5021967 51.8211021,75.2968079 57.153621,75.6150731 C58.382995,75.6883695 59.613178,75.7320561 60.8443318,75.7576209 L61.2394531,75.7636076 L61.2394531,61.905401 C60.9108326,61.900547 60.5823739,61.8943985 60.2537534,61.8876028 C60.004416,61.8808071 59.7549168,61.8733642 59.5055795,61.8651123 C58.8523835,61.8447252 58.1995112,61.817866 57.5466388,61.7827549 C52.5542284,61.5148103 47.5681282,60.8418744 42.7090429,59.6503622 C39.3414513,58.8275974 36.0253128,57.7561425 32.8599741,56.3385924 C30.5287263,55.2948056 28.2698042,54.0596067 26.2069865,52.5480495 C25.5406845,52.0600537 24.8955787,51.5419627 24.2810535,50.9911876 C23.3026349,50.1156753 22.3894226,49.147612 21.6088883,48.0871597 Z M112.672364,49.9532258 L73.0186617,49.9532258 L73.0186617,67.323837 C73.6810803,67.3133198 74.3433372,67.2973014 75.0054323,67.2743255 C76.0513225,67.2354929 77.0965654,67.18226 78.1406758,67.1073455 C78.3864535,67.089709 78.6322312,67.07094 78.8780089,67.0512001 C80.9738343,66.8827639 83.0633494,66.6368244 85.1399203,66.3067476 C87.7578818,65.8905921 90.3562652,65.3412732 92.9108002,64.6319319 C95.0862323,64.027762 97.231731,63.3077417 99.3162302,62.4390251 C101.050589,61.7162541 102.745145,60.8900915 104.358638,59.9257497 C105.039178,59.5191405 105.704995,59.0874519 106.350424,58.6269625 C106.783893,58.3175965 107.2083,57.9951245 107.620734,57.6582521 C107.935278,57.40131 108.242702,57.136116 108.542036,56.8616993 C108.793154,56.6314546 109.038446,56.3947378 109.276781,56.1512253 C110.695787,54.7006675 111.906877,52.9621016 112.452151,50.9931293 C112.540981,50.6701718 112.610394,50.3428458 112.663627,50.01196 C112.666539,49.9923819 112.669452,49.9728039 112.672364,49.9532258 Z M61.2410711,59.4767483 L61.2410711,40.8939141 L61.2559569,40.70412 C61.2954367,40.5402143 61.2960839,40.494586 61.3732636,40.3429772 C61.5184003,40.0582052 61.7756659,39.8386394 62.0795307,39.7397782 C62.241333,39.6871924 62.2864759,39.6936645 62.4545885,39.6803967 L103.312747,39.6803967 C103.253528,39.2902914 103.170361,38.90504 103.060336,38.526099 C102.497102,36.5886781 101.301221,34.8915336 99.901631,33.4641136 C99.635628,33.1927711 99.3608877,32.9298423 99.079028,32.6750037 C98.7847096,32.4088389 98.4826247,32.1512496 98.1740677,31.9017504 C97.6865573,31.5074382 97.1830285,31.1331894 96.6673645,30.7764153 C96.026142,30.3327534 95.3661503,29.916436 94.6925673,29.52358 C93.1017269,28.5959673 91.4364575,27.7984437 89.7338117,27.0989723 C87.6959115,26.2618071 85.6013806,25.5649245 83.4782106,24.9782293 C78.3076558,23.5493531 72.9639725,22.7592724 67.6126845,22.4482883 C66.4159946,22.3788751 65.2183338,22.3374537 64.0198641,22.3131834 C63.3226579,22.3031516 62.6257753,22.2991066 61.9285691,22.3010482 C60.5449975,22.3131834 59.1622349,22.3489417 57.7804432,22.4215909 C54.499254,22.5937486 51.2259932,22.9492283 47.9886524,23.5137566 C45.4648599,23.9538589 42.9617781,24.520976 40.5031919,25.2418053 C38.2884418,25.891118 36.1075084,26.6646949 33.9974444,27.6013685 C32.2520828,28.3759162 30.5520259,29.2625928 28.9490503,30.3021727 C27.3067568,31.3671556 25.7508657,32.5979858 24.4467391,34.063753 C23.6153988,34.9979995 22.8863175,36.0333725 22.359651,37.1705192 C21.9996409,37.9476557 21.7376829,38.7709059 21.6061376,39.6177792 C21.5742626,39.8239154 21.5483742,40.031346 21.5300905,40.2394237 C21.5299287,40.2481611 21.5297669,40.2568984 21.5297669,40.2656357 C21.521515,40.3737197 21.5131013,40.4816418 21.5063056,40.589564 C21.4946558,40.8390631 21.494494,41.0890477 21.5079236,41.3382233 C21.5299287,41.7459651 21.5823527,42.1517653 21.6634156,42.5519024 C22.0648472,44.5336572 23.1587926,46.3036127 24.4980304,47.7910614 C24.7515746,48.0724357 25.0138562,48.3465288 25.2861695,48.6099429 C25.572236,48.8866249 25.8646128,49.1561876 26.1657269,49.4166893 C26.5602009,49.7576068 26.9671338,50.0842857 27.3837747,50.3976967 C28.004772,50.8649818 28.647289,51.3033043 29.3055008,51.7167092 C30.114027,52.2246067 30.9461763,52.6948042 31.7945058,53.1331267 C32.310008,53.3996151 32.8311733,53.6546156 33.3573544,53.898937 C34.001813,54.1971387 34.6537146,54.4789984 35.3109556,54.7464576 C37.1663427,55.5012654 39.0675199,56.1410317 40.9944237,56.6879236 C41.3999003,56.8028032 41.8063477,56.913476 42.2136042,57.0204273 C42.8150234,57.1783464 43.418546,57.3278517 44.0240103,57.4691051 C45.8677477,57.8985285 47.7292833,58.2510957 49.6005271,58.5363532 C51.6046106,58.8419978 53.6205056,59.0701391 55.6417402,59.2262783 C56.146078,59.2651109 56.6505776,59.2995747 57.155239,59.32967 C58.2122935,59.3927729 59.2698335,59.4338707 60.3281824,59.4604062 C60.6323708,59.4673637 60.9367209,59.4727032 61.2410711,59.4767483 Z" id="Page-1"></path>
        </g>
    </g>
</svg>