<?xml version="1.0" encoding="UTF-8" standalone="no"?>
<svg width="125px" height="100px" viewBox="0 0 125 100" version="1.1" xmlns="http://www.w3.org/2000/svg" xmlns:xlink="http://www.w3.org/1999/xlink">
    <!-- Generator: Sketch 42 (36781) - http://www.bohemiancoding.com/sketch -->
    <title>symbol-03</title>
    <desc>Created with Sketch.</desc>
    <defs></defs>
    <g id="Symbols" stroke="none" stroke-width="1" fill="none" fill-rule="evenodd">
        <g id="symbol-03" fill="#34AFC8">
            <path d="M27.7906807,45.597122 C20.9983361,43.5222901 14.2228067,41.3946934 7.48032773,39.1642733 C6.66353782,38.8799623 5.8092521,38.4715674 5.33108403,37.7143069 C5.25647899,37.5962144 5.19231092,37.4715506 5.14147899,37.3414749 C5.08678151,37.2019287 5.04696639,37.0567775 5.02377311,36.9085338 C4.99207563,36.7042397 4.99207563,36.4956934 5.02377311,36.2913993 C5.06146218,36.0496094 5.1439916,35.8163237 5.26189076,35.6023657 C5.40472269,35.3431808 5.59935294,35.1155002 5.82142857,34.9210632 C6.29863025,34.5031976 6.88812605,34.2426598 7.48148739,34.0366262 C24.2780588,28.4945926 41.2070252,23.3447186 58.2206471,18.51008 C59.4224454,18.1853741 60.6596134,18.0531724 61.9010336,18.0073657 C62.2011933,18.0007943 62.5005798,17.9986682 62.8007395,18.0007943 C64.1416975,18.0303657 65.4816891,18.1592817 66.7799328,18.51008 C83.7922017,23.3483909 100.722328,28.4943993 117.518513,34.0366262 C118.111874,34.2426598 118.701563,34.5033909 119.178571,34.9210632 C119.40084,35.1155002 119.595277,35.3433741 119.738109,35.602559 C119.856008,35.8167102 119.938538,36.049996 119.976227,36.2917859 C120.007924,36.4958867 120.007924,36.7044329 119.976227,36.9085338 C119.953227,37.0567775 119.913218,37.2019287 119.858714,37.3414749 C119.807882,37.4715506 119.743714,37.5962144 119.669303,37.7143069 C119.191328,38.4717607 118.337429,38.8807355 117.520639,39.1656262 C110.630109,41.4507439 103.71484,43.662996 96.7792773,45.8105002 L97.7050756,57.7851892 C97.7068151,57.9556598 97.7157059,57.999727 97.6836218,58.1682649 C97.6387815,58.4042565 97.5390504,58.6334834 97.4497563,58.8549791 C97.3451933,59.1137775 97.2325126,59.3692901 97.1130672,59.621517 C96.5496639,60.8119119 95.8540588,61.9400716 95.0765042,63.0021304 C94.2494706,64.1318363 93.3261849,65.1867439 92.3265546,66.1643405 L92.3265546,79.6947186 C92.3207563,79.8170632 92.3236555,79.8483741 92.3002689,79.9691724 C92.2391933,80.2863405 92.0704622,80.5785758 91.8261597,80.7902144 C91.687,80.9108195 91.5250336,81.0043657 91.351084,81.0646682 C91.2206218,81.1097018 91.0837815,81.1361808 90.9459748,81.1427523 C90.3848908,81.1694245 89.8458403,80.8582481 89.5885882,80.3590128 C89.4799664,80.1485338 89.438605,79.9289707 89.427395,79.6947186 L89.427395,68.6367439 C88.7433866,69.1462228 88.0375378,69.6263237 87.3144874,70.0764665 C85.057395,71.4821724 82.6288655,72.6022144 80.1183866,73.4737018 C74.4756555,75.4325674 68.4591261,76.1567775 62.5067647,76.1840296 C58.3288824,76.203164 54.1359244,75.8834834 50.0376723,75.051038 C46.7724454,74.3877102 43.5644286,73.393685 40.5481429,71.9700044 C36.401958,70.0130716 32.6052185,67.2130632 29.8015378,63.5595422 C29.0966555,62.6408951 28.456521,61.6712228 27.9035546,60.6536178 C27.5106218,59.9305674 27.1600168,59.1827775 26.8900084,58.4050296 L26.8693277,58.3408615 C26.8285462,58.178122 26.8099916,58.1379203 26.8014874,57.9691892 C26.798395,57.9061808 26.8034202,57.8431724 26.8043866,57.7799707 L27.7906807,45.597122 Z M30.6293445,46.4612649 L29.7190084,57.7063321 C29.9973277,58.4305422 30.3537311,59.124601 30.7470504,59.7925674 C31.3438908,60.8063069 32.0371765,61.7624497 32.7998487,62.6577102 C35.862521,66.2526682 39.9926639,68.798517 44.3860504,70.4448531 C46.8965294,71.3855338 49.5022941,72.0388111 52.1418824,72.4943657 C55.4467311,73.0645338 58.8126555,73.285643 62.1636975,73.285643 C65.8680504,73.285643 69.5820672,73.0059707 73.2232185,72.3086262 C76.0582101,71.7657102 78.8512605,70.9663153 81.5076639,69.8313909 C84.3739664,68.6065926 87.093958,66.9741724 89.427395,64.9035926 L89.427395,48.0610212 C81.8984706,50.3393741 74.3475126,52.5454413 66.7803193,54.6896598 C65.3893025,55.0642312 63.938563,55.1993321 62.5009664,55.1993321 C61.0200756,55.1993321 59.5219832,55.0580464 58.0936639,54.6533237 C48.9392773,51.9236682 39.7713613,49.2338279 30.6293445,46.4612649 Z M93.9392605,46.6860464 C93.4017563,46.8511052 92.8642521,47.0155842 92.3265546,47.1796766 L92.3265546,61.8322228 C92.804916,61.2208867 93.2506134,60.5836514 93.6555294,59.9212901 C94.0764874,59.2330296 94.4537647,58.5177102 94.7606891,57.7712733 L94.7902605,57.6962817 L93.9392605,46.6860464 Z M90.8495294,44.2979119 L116.005538,36.6016094 C99.3388487,31.501601 82.7695714,26.0716682 66.005084,21.3039035 C65.8761681,21.2689203 65.7472521,21.2378027 65.6173697,21.2068783 C64.6749496,21.0054834 63.7207395,20.9210212 62.7582185,20.8997607 C62.4996134,20.8978279 62.5007731,20.8978279 62.2431345,20.8997607 C61.0886891,20.92508 59.9214874,21.0255842 58.8105294,21.3576346 L8.99755462,36.600643 C15.6779916,38.6445506 22.3418067,40.744122 29.0092941,42.8320968 C29.1575378,42.794601 29.2077899,42.7998195 29.373042,42.7905422 C29.4387563,42.7957607 29.5044706,42.8011724 29.5701849,42.8063909 C29.6345462,42.8206934 29.7000672,42.8305506 29.7632689,42.8491052 C29.8902521,42.8864077 30.011437,42.9409119 30.1233445,43.0108783 C30.2420168,43.0850968 30.3485126,43.1761304 30.4399328,43.2799203 C39.9292689,46.2486598 49.4282689,49.1847355 58.9937563,51.8950632 C59.1228655,51.9298531 59.2519748,51.9609707 59.3820504,51.9918951 C60.6574874,52.263643 61.9702269,52.3405674 63.271563,52.283164 C64.2547647,52.2398699 65.2462773,52.123517 66.1917899,51.8417186 L85.8766975,45.8191976 L65.6471345,39.6838027 C65.4517311,39.6157691 65.2737227,39.5245422 65.118521,39.3915674 C65.0790924,39.4209455 65.0388908,39.4489707 64.997916,39.4762228 C64.8703529,39.560685 64.7360252,39.6256262 64.599958,39.6940464 C64.0224454,39.9835758 63.3819244,40.1244749 62.7375378,40.1410968 C62.5017395,40.1470884 62.2655546,40.1366514 62.0311092,40.1107523 C60.939479,39.9903405 59.8093866,39.5206766 59.1180336,38.6377859 C58.9429244,38.4143573 58.7991261,38.1658027 58.7003613,37.8992733 C58.4351849,37.1824077 58.5252521,36.3789539 58.9423445,35.7384329 C59.0975462,35.500122 59.2931429,35.2892565 59.513479,35.1098951 C60.1338992,34.6050548 60.9135798,34.3758279 61.6982857,34.3010296 C61.8606387,34.2907859 62.0212521,34.2859539 62.1837983,34.2861472 C62.4064538,34.2934918 62.6273697,34.3077943 62.8480924,34.3398783 C63.9321849,34.4970128 65.0448824,35.0037859 65.6863697,35.9239791 C65.881,36.2030716 66.0257647,36.5163741 66.101916,36.8486178 L66.1351597,36.8486178 C66.2575042,36.8594413 66.369605,36.8787691 66.4886639,36.9095002 L90.8495294,44.2979119 Z M62.1314202,37.1938111 C62.2901008,37.2243489 62.4499412,37.2442565 62.6117143,37.2429035 C62.5276387,37.2237691 62.4429832,37.2106262 62.3573613,37.1996094 C62.2829496,37.1924581 62.2093109,37.1878195 62.1347059,37.1853069 L62.0935378,37.1853069 C62.1061008,37.1880128 62.1188571,37.1909119 62.1314202,37.1938111 Z" id="Page-1"></path>
        </g>
    </g>
</svg>