<?xml version="1.0" encoding="UTF-8" standalone="no"?>
<svg width="125px" height="100px" viewBox="0 0 125 100" version="1.1" xmlns="http://www.w3.org/2000/svg" xmlns:xlink="http://www.w3.org/1999/xlink">
    <!-- Generator: Sketch 42 (36781) - http://www.bohemiancoding.com/sketch -->
    <title>symbol-01</title>
    <desc>Created with Sketch.</desc>
    <defs></defs>
    <g id="Symbols" stroke="none" stroke-width="1" fill="none" fill-rule="evenodd">
        <g id="symbol-01" fill="#34AFC8">
            <path d="M22.8717344,31.7304242 C22.981631,31.6114563 23.1181466,31.5152411 23.2747381,31.4518907 L61.4128638,16.0812415 C61.6760802,15.9741704 61.9720128,15.9726833 62.2396905,16.0782673 L101.201669,31.4489165 C101.626979,31.6169586 101.908041,32.0288848 101.908041,32.4869112 L101.908041,41.506163 C101.906553,42.1218217 101.406888,42.6214868 100.79123,42.6214868 L97.170145,42.6214868 L97.170145,70.8198468 C97.170145,70.845871 97.1692528,70.8715978 97.1674683,70.8971759 C97.1692528,70.922754 97.170145,70.9484808 97.170145,70.974505 L97.170145,73.9799309 L100.580062,73.9799309 C101.19572,73.9799309 101.695385,74.479596 101.695385,75.0952547 L101.695385,77.9772514 L105.367031,77.9772514 C105.98269,77.9772514 106.482355,78.4769165 106.482355,79.0925753 L106.482355,82.8861633 C106.482355,83.5003349 105.98269,83.9998513 105.367031,84 L19.1153238,84 C18.4996651,84 18,83.5003349 18,82.8846762 L18,79.1223172 C18,78.5066585 18.4996651,78.0069934 19.1153238,78.0069934 L22.7096407,78.0069934 L22.7096407,75.0952547 C22.7096407,74.479596 23.2093057,73.9799309 23.8249645,73.9799309 L27.3136973,73.9799309 L27.3136973,70.974505 C27.3136973,70.8931608 27.3224712,70.8138984 27.338978,70.7374616 L27.338978,42.6214868 L23.6911256,42.6214868 C23.0754669,42.6214868 22.5758018,42.1218217 22.5758018,41.506163 L22.5758018,32.4869112 L22.5762479,32.4549385 C22.5839808,32.1783382 22.6926877,31.9268699 22.866827,31.7359265 L22.8717344,31.7304242 Z M34.4104283,72.0883418 L29.5443449,72.0883418 L29.5443449,75.0937676 C29.5443449,75.7094264 29.0446799,76.2090914 28.4290211,76.2090914 L24.9402883,76.2090914 L24.9402883,79.1208301 C24.9402883,79.7364889 24.4406232,80.2361539 23.8249645,80.2361539 L20.2306476,80.2361539 L20.2306476,81.7693524 L45.4283405,81.7693524 L52.9991584,72.0883418 L49.9138754,72.0883418 C49.8945431,72.089234 49.8755082,72.0898289 49.8566221,72.0898289 C49.8372898,72.0898289 49.8181062,72.0893827 49.7990714,72.0883418 L40.8278528,72.0883418 C40.808818,72.0893827 40.7896344,72.0898289 40.7704508,72.0898289 C40.7511185,72.0898289 40.731935,72.0893827 40.7126027,72.0883418 L34.5237452,72.0883418 C34.5050078,72.0893827 34.4862704,72.0898289 34.4681278,72.0898289 C34.4487955,72.0898289 34.4296119,72.0893827 34.4104283,72.0883418 Z M56.1025841,72.0883418 L55.8302964,72.0883418 L48.2594784,81.7693524 L76.2228769,81.7693524 L68.6550331,72.0883418 L68.3817044,72.0883418 C68.3623721,72.089234 68.3428911,72.0898289 68.3234101,72.0898289 C68.3040778,72.0898289 68.2848943,72.0893827 68.2657107,72.0883418 L56.2176855,72.0883418 C56.1986507,72.0893827 56.1796158,72.0898289 56.1604322,72.0898289 C56.1411,72.0898289 56.1219164,72.0893827 56.1025841,72.0883418 Z M74.567885,72.0883418 L71.487212,72.0883418 L79.0555019,81.7693524 L104.251708,81.7693524 L104.251708,80.206412 L100.580062,80.206412 C99.9644029,80.206412 99.4647379,79.7067469 99.4647379,79.0910882 L99.4647379,76.2090914 L96.0548212,76.2090914 C95.4391625,76.2090914 94.9394974,75.7094264 94.9394974,75.0937676 L94.9394974,72.0883418 L90.0716295,72.0883418 C90.0525946,72.0893827 90.0334111,72.0898289 90.0142275,72.0898289 C89.9948952,72.0898289 89.9757116,72.0893827 89.9563794,72.0883418 L83.7696039,72.0883418 C83.7501229,72.089234 83.7307906,72.0898289 83.7119044,72.0898289 C83.6925722,72.0898289 83.6733886,72.0893827 83.654205,72.0883418 L74.6831352,72.0883418 C74.6641003,72.0893827 74.6449167,72.0898289 74.6257332,72.0898289 C74.6064009,72.0898289 74.5872173,72.0893827 74.567885,72.0883418 Z M82.4746386,42.6214868 L75.8922949,42.6214868 C76.145399,44.6967326 76.5961386,49.3568529 76.5961386,56.2076179 C76.5961386,63.0078215 76.1516448,67.7211799 75.8982433,69.8591812 L82.4688389,69.8591812 C82.2256983,67.4891925 81.7429861,62.0562272 81.7429861,56.2061308 C81.7429861,50.3135033 82.2325389,44.9250022 82.4746386,42.6214868 Z M89.0287274,42.6214868 L84.717183,42.6214868 C84.4917388,44.7174033 83.9736338,50.1934945 83.9736338,56.2061308 C83.9736338,62.1701389 84.4820727,67.6834076 84.7107884,69.8591812 L89.0358654,69.8591812 C89.2699347,67.9336862 89.7510111,63.1388348 89.7510111,56.2061308 C89.7510111,49.2044253 89.2601199,44.4672734 89.0287274,42.6214868 Z M91.2855479,69.8591812 L94.9394974,69.8591812 L94.9394974,42.6214868 L91.278856,42.6214868 C91.532555,44.6964352 91.9831458,49.3561094 91.9831458,56.2046437 C91.9831458,63.0079702 91.5390982,67.7225182 91.2855479,69.8591812 Z M33.2307132,42.6214868 L29.5696256,42.6214868 L29.5696256,69.8591812 L33.2252109,69.8591812 C32.9819216,67.4893412 32.4992095,62.0565246 32.4992095,56.2046437 C32.4992095,50.3133546 32.9884649,44.9257458 33.2307132,42.6214868 Z M39.7849507,42.6214868 L35.4731089,42.6214868 C35.2476648,44.7184443 34.7298571,50.1934945 34.7298571,56.2046437 C34.7298571,62.1699902 35.2385935,67.6844485 35.4671605,69.8591812 L39.7920888,69.8591812 C40.0261581,67.9336862 40.5072344,63.1388348 40.5072344,56.2061308 C40.5072344,49.2044253 40.0163432,44.4672734 39.7849507,42.6214868 Z M48.6196536,42.6214868 L42.0337409,42.6214868 C42.2863989,44.6967326 42.7363949,49.3568529 42.7363949,56.2076179 C42.7363949,63.0078215 42.2927935,67.7211799 42.0392432,69.8591812 L48.6138539,69.8591812 C48.3710108,67.4891925 47.8891909,62.0562272 47.8891909,56.2061308 C47.8891909,50.3135033 48.3778514,44.9250022 48.6196536,42.6214868 Z M55.1749321,42.6214868 L50.8620493,42.6214868 C50.6369026,44.7174033 50.1198385,50.1934945 50.1198385,56.2061308 C50.1198385,62.1701389 50.6273852,67.6834076 50.8556548,69.8591812 L55.1820702,69.8591812 C55.4161395,67.9336862 55.8972158,63.1388348 55.8972158,56.2061308 C55.8972158,49.2044253 55.4063246,44.4672734 55.1749321,42.6214868 Z M73.6415714,42.6214868 L69.3272015,42.6214868 C69.1017574,44.7174033 68.5836523,50.1934945 68.5836523,56.2061308 C68.5836523,62.1701389 69.0931323,67.6834076 69.3221454,69.8591812 L73.6475198,69.8591812 C73.882184,67.9336862 74.3640038,63.1388348 74.3640038,56.2061308 C74.3640038,49.2027895 73.8728152,44.465935 73.6415714,42.6214868 Z M67.0846571,42.6214868 L57.4237223,42.6214868 C57.6763804,44.6967326 58.1263763,49.3568529 58.1263763,56.2076179 C58.1263763,63.0061856 57.6829236,67.7189492 57.4293733,69.8576941 L67.0800471,69.8576941 C66.8363117,67.4869619 66.3530047,62.0550375 66.3530047,56.2061308 C66.3530047,50.3135033 66.8425575,44.9250022 67.0846571,42.6214868 Z M24.8064494,40.3908392 L99.6759058,40.3908392 L99.6759058,33.602235 L24.8064494,33.602235 L24.8064494,40.3908392 Z M29.4409916,31.3715874 L36.3466305,31.3715874 C36.3549582,31.3680183 36.363286,31.364598 36.3716137,31.3611777 L61.5526511,21.211731 C61.8158675,21.1046599 62.1118001,21.1046599 62.3794778,21.2087568 L88.1062802,31.3582035 C88.1171361,31.3625161 88.1279919,31.3669773 88.138699,31.3715874 L94.9265597,31.3715874 L61.8351998,18.3163504 L29.4409916,31.3715874 Z M42.3146538,31.3715874 L82.0554255,31.3715874 L61.9734999,23.448327 L42.3146538,31.3715874 Z" id="Page-1"></path>
        </g>
    </g>
</svg>