<?xml version="1.0" encoding="UTF-8" standalone="no"?>
<svg width="125px" height="100px" viewBox="0 0 125 100" version="1.1" xmlns="http://www.w3.org/2000/svg" xmlns:xlink="http://www.w3.org/1999/xlink">
    <!-- Generator: Sketch 42 (36781) - http://www.bohemiancoding.com/sketch -->
    <title>symbol-05</title>
    <desc>Created with Sketch.</desc>
    <defs></defs>
    <g id="Symbols" stroke="none" stroke-width="1" fill="none" fill-rule="evenodd">
        <g id="symbol-05" fill="#34AFC8">
            <path d="M79.5377808,88.1399276 L64.6591376,88.1399276 C62.3925756,88.1399276 60.5483134,86.297315 60.5483134,84.0324026 L60.5483134,55.6558384 C60.5483134,53.3892764 62.3925756,51.5450142 64.6591376,51.5450142 L107.040877,51.5450142 C109.307439,51.5450142 111.150052,53.3892764 111.150052,55.6558384 L111.150052,84.0324026 C111.151702,86.2989646 109.307439,88.1399276 107.042527,88.1399276 L92.1600897,88.1399276 L92.1432637,90.282769 L93.7153405,92.633461 C93.852258,92.8380124 93.9231912,93.0772056 93.9231912,93.3213477 L93.9231912,93.8426239 C93.9231912,94.4232861 93.6724507,94.7845504 93.4613008,94.9874522 C93.0736428,95.3652125 92.6068036,95.418 92.276882,95.418 C92.2026496,95.418 92.1350156,95.4163504 92.0756297,95.4130512 L79.7777989,95.409752 C79.3043613,95.4278977 78.7138014,95.4493426 78.2370646,94.992401 C78.0259147,94.7894992 77.7751742,94.4265853 77.7751742,93.8475728 L77.7751742,93.3246469 C77.7751742,93.0805049 77.8461074,92.8429612 77.9813753,92.6384098 L79.5567513,90.2695721 L79.5377808,88.1399276 Z M89.6855121,88.1399276 L82.0123585,88.1399276 L82.0344632,90.6258875 C82.0361128,90.8733288 81.9651797,91.1158212 81.8282622,91.3220223 L80.7576663,92.9303905 L90.9357503,92.9303905 L89.8734025,91.3418176 C89.736485,91.1356165 89.6639022,90.8931241 89.6655518,90.6440332 L89.6855121,88.1399276 Z M107.040877,54.0194268 L64.6591376,54.0194268 C63.7568018,54.0194268 63.022726,54.7535026 63.022726,55.6558384 L63.022726,84.0324026 C63.022726,84.9330888 63.7568018,85.665515 64.6591376,85.665515 L107.040877,85.665515 C107.941564,85.665515 108.675639,84.9330888 108.675639,84.0324026 L108.675639,55.6558384 C108.675639,54.7535026 107.941564,54.0194268 107.040877,54.0194268 Z M25.6759211,64.0125897 L20.6442855,62.0810632 C19.959698,61.8171259 19.4730635,61.1902747 19.3724374,60.4446517 C19.2734609,59.718824 19.57204,59.0028939 20.1494029,58.5789445 L28.890678,52.1487709 C29.2502926,51.8815343 29.6758916,51.7413176 30.1179867,51.7413176 C31.0945549,51.7413176 31.9144103,52.417657 32.1123633,53.3876268 L34.3063425,64.0127547 C34.4910986,64.9233386 34.0786965,65.7695877 33.2555419,66.1737417 C33.074085,66.3057104 32.6996239,66.4178838 32.3136155,66.4178838 C32.0645246,66.4178838 31.8170834,66.3700451 31.5762405,66.2776671 L28.7154896,65.1795227 C30.6678012,70.1651343 33.4782391,73.3879743 37.0908815,74.7780993 C43.4913622,77.2409647 50.3867255,73.1730303 50.456009,73.1317901 C51.0399704,72.7804235 51.8020895,72.9701285 52.1534561,73.5557395 C52.5048227,74.1413505 52.3151177,74.90182 51.7295067,75.2531865 C51.4820655,75.4016513 46.9885321,78.0492728 41.5497731,78.0492728 C39.8275819,78.0492728 38.0097134,77.7836859 36.2033922,77.0892007 C31.4114447,75.2457633 27.8695704,70.848732 25.6759211,64.0125897 Z M22.3004923,60.0668913 L31.7115084,63.6778842 L29.8227068,54.5324551 L22.3004923,60.0668913 Z M31.9897974,40.5949134 L17.1108242,40.5949134 C14.8442622,40.5949134 13,38.7506512 13,36.4840892 L13,8.1091746 C13,5.84261262 14.8442622,4 17.1108242,4 L59.4909144,4 C61.759126,4 63.6033882,5.84426223 63.6033882,8.1091746 L63.6033882,36.4840892 C63.6033882,38.7490016 61.759126,40.5949134 59.4909144,40.5949134 L44.6116113,40.5949134 L44.5949503,42.741054 L46.1670271,45.0966948 C46.302295,45.3012463 46.3748778,45.5404395 46.3748778,45.7845815 L46.3748778,46.3025586 C46.3748778,46.8815712 46.1241373,47.244485 45.914637,47.4457372 C45.5253294,47.8168991 45.055191,47.8696866 44.7219701,47.8696866 C44.6493873,47.8696866 44.5817534,47.868037 44.5240171,47.8647378 L32.2261863,47.8614386 C31.7593471,47.8779346 31.1621888,47.9010292 30.685452,47.442438 C30.4759517,47.2395362 30.2252112,46.8782719 30.2252112,46.2992594 L30.2252112,45.7812823 C30.2252112,45.5371403 30.2961444,45.2995967 30.4314123,45.0966948 L32.0084379,42.7245579 L31.9897974,40.5949134 Z M93.624612,33.552735 C91.3319862,28.720702 88.3069343,25.7010938 84.6111516,24.5640187 C78.0803518,22.5564452 71.4439771,27.0912188 71.3779927,27.1374078 C70.8171259,27.5267154 70.0451091,27.3897979 69.6558015,26.8289311 C69.2648443,26.2697138 69.4017618,25.4993467 69.9609791,25.1083895 C70.2694559,24.8922908 77.6217607,19.8345913 85.3204832,22.1935314 C90.2316974,23.6976443 94.0698414,27.8371717 96.7356086,34.5034044 L101.88915,36.0782855 C102.590234,36.291085 103.119758,36.8832945 103.271522,37.6190198 C103.419987,38.3382491 103.174195,39.0723248 102.628175,39.5375144 L94.3570382,46.5631967 C93.9809275,46.8832208 93.5058402,47.0597289 93.0208554,47.0597289 C92.0970746,47.0597289 91.3085618,46.4559722 91.0578213,45.555286 L88.1281167,35.1083158 C87.8773763,34.2175272 88.2287429,33.3415852 89.0238541,32.8796948 C89.3339805,32.6207063 90.0614578,32.4590446 90.6932579,32.6569977 L93.624612,33.552735 Z M42.1368687,40.5949134 L34.464375,40.5949134 L34.4861498,43.0841725 C34.4877994,43.3316138 34.4168663,43.5741062 34.2799488,43.7786577 L33.2110025,45.3886755 L43.3890865,45.3886755 L42.3250891,43.7968034 C42.1881716,43.5906023 42.1155888,43.3481099 42.1172384,43.1006686 L42.1368687,40.5949134 Z M90.7394469,35.2584301 L93.2600486,44.2487961 L100.376459,38.2029812 L90.7394469,35.2584301 Z M59.4909144,6.47441265 L17.1108242,6.47441265 C16.2084884,6.47441265 15.4744126,7.2084884 15.4744126,8.1091746 L15.4744126,36.4840892 C15.4744126,37.386425 16.2084884,38.1205008 17.1108242,38.1205008 L32.9599321,38.1205008 C33.0394432,38.1038397 33.1217587,38.0947669 33.2060537,38.094107 C33.267914,38.0990559 33.3291145,38.1079638 33.3893252,38.1205008 L43.1366964,38.1205008 C43.2165375,38.1043346 43.2993478,38.0957566 43.3841377,38.0957566 L43.3940353,38.0957566 C43.475526,38.0964165 43.5552021,38.1048295 43.6322388,38.1205008 L59.4909144,38.1205008 C60.3932502,38.1205008 61.1289756,37.386425 61.1289756,36.4840892 L61.1289756,8.1091746 C61.1289756,7.2084884 60.3948998,6.47441265 59.4909144,6.47441265 Z" id="Page-1"></path>
        </g>
    </g>
</svg>