<?xml version="1.0" encoding="UTF-8" standalone="no"?>
<svg width="125px" height="100px" viewBox="0 0 125 100" version="1.1" xmlns="http://www.w3.org/2000/svg" xmlns:xlink="http://www.w3.org/1999/xlink">
    <!-- Generator: Sketch 42 (36781) - http://www.bohemiancoding.com/sketch -->
    <title>symbol-07</title>
    <desc>Created with Sketch.</desc>
    <defs></defs>
    <g id="Symbols" stroke="none" stroke-width="1" fill="none" fill-rule="evenodd">
        <g id="symbol-07" fill="#34AFC8">
            <path d="M65.9558801,42.2118996 L89.4806426,18.6862018 C89.4298695,17.4609677 89.9148859,14.6697855 94.0836214,10.5010499 C94.410974,10.1736973 94.831856,10 95.2995026,10 C96.0570901,10 96.8761397,10.451613 97.8034162,11.3802256 L101.11569,14.6911636 C103.115882,16.6900188 102.523975,17.8791774 101.99353,18.4096222 C97.9036262,22.4995259 95.0269314,22.961828 93.8257477,22.9938952 L70.2898953,46.5314845 L100.841783,76.9683312 C102.955546,79.0820939 103.222772,83.3750898 99.9706242,86.6299102 C98.2002477,88.4002867 95.955544,89.1979582 93.9580249,89.1979582 C92.3760432,89.1979582 90.9490529,88.6969083 90.0324656,87.7803209 L59.5135804,57.3084676 L57.1529003,59.6692813 L57.6325721,60.1490867 C58.5010586,61.0175733 58.9753859,62.1760007 58.9673691,63.4105878 C58.9593523,64.6398303 58.4729998,65.7995939 57.5991687,66.673425 L36.1462144,88.1277155 C35.2643665,89.0095634 34.0939138,89.4959159 32.8526461,89.4959159 C31.6287481,89.4959159 30.4810097,89.0229248 29.6205399,88.1611188 L24.3361332,82.8740398 C23.4756634,82.0149062 23.0013361,80.8671678 23,79.6432698 C23,78.4020021 23.4863525,77.2328856 24.3695365,76.3510377 L45.823827,54.895411 C47.5754976,53.1437404 50.6125283,53.1277068 52.3468292,54.8620077 L52.8263674,55.3416795 L55.1822374,52.9858095 L42.5476284,40.3703072 C40.325639,41.1933653 32.9956123,43.3391951 27.8434828,38.1870656 C21.9444548,32.2893737 23.3500669,24.6052718 23.4128652,24.2819276 C23.4502769,24.0868521 23.5464785,23.905138 23.6881086,23.7635079 L25.6295101,21.8194341 C26.0036274,21.4426446 26.6703578,21.4426446 27.0471474,21.8194341 L33.1065114,27.8787981 L38.8679177,29.3258303 L42.1801918,26.0135562 L40.7184621,20.9830148 L34.3023506,14.5655671 C33.9108636,14.1740801 33.9108636,13.5394168 34.3023506,13.1479298 L36.9866421,10.4636382 C37.1429697,10.3073106 37.346062,10.2071006 37.5651878,10.1790418 C37.9018934,10.1336133 45.9494235,9.15289156 51.411536,14.615004 C56.2523465,19.4558145 54.3683987,27.7024285 53.7123573,30.0139389 L65.9558801,42.2118996 Z M49.1160592,55.5327466 C48.4105808,55.5327466 47.7438504,55.8106623 47.2401282,56.3130483 L25.7858377,77.768675 C25.2821155,78.2723972 25.0041998,78.9377915 25.0041998,79.6432698 C25.0041998,80.3313784 25.2700903,80.9753946 25.7524344,81.4564025 L31.0368411,86.7448177 C32.0135544,87.7201949 33.7358301,87.7068336 34.7299132,86.7114143 L56.1828676,65.2571239 C56.6825814,64.75741 56.9591609,64.0973603 56.9631693,63.3985626 C56.9671777,62.7037733 56.7026234,62.0530765 56.2149348,61.566724 L50.9291919,56.279645 C50.4481839,55.7973009 49.8041678,55.5327466 49.1160592,55.5327466 Z M68.8723916,47.9491218 L67.6251113,49.1964022 L88.8446432,70.4145979 C90.788717,72.3586717 91.1347755,75.0589969 89.6316256,76.5621467 C89.0023069,77.1914654 88.1645514,77.4961038 87.2599892,77.4961038 C86.0026879,77.4961038 84.6157817,76.9068691 83.4867491,75.7765004 L62.2660147,54.555766 L60.9312177,55.8908302 L91.4501029,86.3626836 C92.6379253,87.5478337 96.0731237,87.6921361 98.554323,85.2122729 C101.064917,82.7003425 100.67343,79.6339169 99.426818,78.3859685 L68.8723916,47.9491218 Z M94.9668054,86.2210535 C92.5818077,86.2210535 90.6404062,84.2809881 90.6404062,81.8973265 C90.6404062,79.5109926 92.5818077,77.5709273 94.9668054,77.5709273 C97.3518031,77.5709273 99.2918685,79.5123288 99.2918685,81.8973265 C99.2918685,84.2809881 97.3518031,86.2210535 94.9668054,86.2210535 Z M94.9668054,79.575127 C93.6867898,79.575127 92.6446059,80.6173109 92.6446059,81.8973265 C92.6446059,83.1760059 93.6867898,84.2168537 94.9668054,84.2168537 C96.246821,84.2168537 97.2876688,83.1760059 97.2876688,81.8973265 C97.2876688,80.6173109 96.2454849,79.575127 94.9668054,79.575127 Z M66.2076076,50.6140395 L63.683652,53.1381287 L84.9030503,74.3601992 C85.993335,75.4491478 87.5432495,75.8205928 88.2153245,75.1458455 C88.6081476,74.7530224 88.5760804,74.1437456 88.521299,73.816393 C88.4090638,73.1376374 88.0108961,72.4147893 87.428342,71.8322352 L66.2076076,50.6140395 Z M55.7348621,58.2508423 L92.4655641,21.5228126 C92.535043,21.4145858 92.615211,21.3357539 92.7194294,21.2622666 C92.9679502,21.0003845 93.3407313,20.8975022 93.6894621,20.9843509 C93.7014873,20.9843509 96.1653169,21.357132 100.467666,17.1042201 C100.40754,16.9599177 100.227162,16.6379096 99.6993891,16.1114732 L96.387115,12.799199 C95.895418,12.307502 95.554704,12.1030736 95.3876874,12.0349308 C91.0105151,16.4602039 91.4955314,18.7476639 91.5008759,18.7717143 C91.5837162,19.1204451 91.4875146,19.530638 91.2269686,19.7764865 C91.1534813,19.8900578 91.0893469,19.9528561 90.9771117,20.0290157 L54.2438711,56.759584 L55.7348621,58.2508423 Z M64.5382428,43.6295369 L51.8711658,31.0093581 C51.6012669,30.7407954 51.5077376,30.3412916 51.6279895,29.9805356 C51.6587206,29.8883424 54.662348,20.7010907 49.9938987,16.0326413 C45.7957682,11.8345109 39.6214968,12.0242418 38.149078,12.1351408 L36.4281385,13.8560804 L42.3164774,19.7470916 C42.4353933,19.8660074 42.523578,20.0143182 42.5703427,20.1759903 L44.2699041,26.021573 C44.3714502,26.372976 44.2739125,26.7511017 44.0160388,27.0103115 L39.8820427,31.1443076 C39.633522,31.3941645 39.272766,31.4943745 38.9293798,31.4075258 L32.3489239,29.753393 C32.1725543,29.7093006 32.0122183,29.6184435 31.8839495,29.4901747 L26.3389968,23.945222 L25.3395692,24.9459858 C25.167208,26.3075055 24.7276202,32.2359284 29.2611201,36.7694283 C34.3036867,41.8093227 42.3004438,38.3153344 42.3806118,38.2792588 C42.7574014,38.110906 43.2036698,38.191074 43.4976191,38.4850233 L56.5998747,51.5681722 L57.939081,50.2288323 L50.9011331,43.1908844 C50.0179491,42.3090365 49.4313866,41.2187518 49.2496725,40.1204503 C49.0492525,38.9179304 49.3645799,37.7969147 50.1154868,37.0460079 C51.6186366,35.542858 54.3176256,35.8889165 56.2616994,37.8316542 L63.2989793,44.868934 L64.5382428,43.6295369 Z M61.881342,46.2865713 L54.8440621,39.2492915 C53.7524413,38.1590068 52.2051991,37.7915702 51.531788,38.4636452 C51.1403009,38.8564683 51.1723681,39.4644089 51.2258135,39.7917615 C51.3380486,40.4705172 51.7362163,41.1920291 52.3174343,41.7732471 L59.3560503,48.811863 L61.881342,46.2865713 Z" id="Page-1"></path>
        </g>
    </g>
</svg>