<?xml version="1.0" encoding="UTF-8" standalone="no"?>
<svg width="150px" height="100px" viewBox="0 0 150 100" version="1.1" xmlns="http://www.w3.org/2000/svg" xmlns:xlink="http://www.w3.org/1999/xlink">
    <!-- Generator: Sketch 42 (36781) - http://www.bohemiancoding.com/sketch -->
    <title>cgap</title>
    <desc>Created with Sketch.</desc>
    <defs></defs>
    <g id="Symbols" stroke="none" stroke-width="1" fill="none" fill-rule="evenodd">
        <g id="cgap">
            <g id="Page-1" transform="translate(5.000000, 28.000000)">
                <path d="M65.2561392,14.3654547 L63.6505807,14.3654547 C62.465435,10.7815283 58.7184722,9.37057306 55.4306535,9.37057306 C48.7782385,9.37057306 46.0248958,14.7088589 46.0248958,21.1146199 C46.0248958,31.8670821 53.8244101,33.697332 56.9977852,33.697332 C60.0951436,33.697332 62.8858478,32.3628744 64.5678036,29.6941109 L65.7529493,30.1895996 L64.5678036,34.4220858 C61.5097852,34.9937686 59.5976487,35.298924 57.1126093,35.298924 C45.719231,35.298924 40.7111058,28.2837628 40.7111058,21.4197754 C40.7111058,13.565114 46.7899331,7.76928461 55.3541802,7.76928461 C60.3240308,7.76928461 62.2358629,8.60817762 64.9504744,9.29407549 L65.2561392,14.3654547 Z" id="Fill-1" fill="#00446B"></path>
                <path d="M89.6419104,12.9931277 L88.1527739,12.9931277 C86.8097356,10.3622335 84.0118025,9.37057306 81.4330167,9.37057306 C74.5692159,9.37057306 70.9006287,14.1368726 70.9006287,21.1146199 C70.9006287,28.2837628 74.8958063,33.697332 81.9428386,33.697332 C83.8307016,33.697332 85.1014517,33.5069229 86.01,32.9349366 C86.8812628,32.3628744 86.9908365,31.7143146 86.9908365,29.1985463 C86.9908365,26.6056732 86.5905882,26.1480538 85.5016999,25.8053326 L85.5016999,24.9660601 C86.6278737,25.04233 87.7540475,25.0805788 88.9159849,25.0805788 C90.0421587,25.0805788 91.1683324,25.04233 92.2937453,24.9660601 L92.2937453,25.8053326 C91.3494334,25.9577206 90.8768969,26.567728 90.8768969,28.8171968 C90.8768969,30.9140499 90.9864706,32.1339888 91.0222342,33.3924801 C88.2981112,34.5747774 85.1014517,35.298924 82.1597032,35.298924 C74.1329757,35.298924 65.8521743,30.8374764 65.8521743,21.3053326 C65.8521743,11.3535146 73.9874862,7.76928461 81.3972531,7.76928461 C84.7027253,7.76928461 87.1719374,8.34104324 89.4242849,9.14168747 L89.6419104,12.9931277 Z" id="Fill-2" fill="#00446B"></path>
                <path d="M108.293022,25.1396975 L104.045521,15.1113819 L99.9661846,25.1396975 L108.293022,25.1396975 Z M99.1672099,26.9702509 L98.031905,30.3249123 C97.8211279,30.9728649 97.7366649,31.8120615 97.7366649,32.2313562 C97.7366649,33.1464433 98.2411603,33.8708935 99.250912,33.8708935 L99.250912,34.7097865 C98.031905,34.7097865 96.8539881,34.557702 95.6342202,34.557702 C94.4144522,34.557702 93.2372963,34.7097865 92.0182893,34.7097865 L92.0182893,33.8708935 C93.6999406,33.5660416 95.2978899,29.9821152 96.0968645,28.1522447 L105.054512,7.63776646 L105.559768,7.63776646 L114.770043,29.0670281 C116.241678,32.4599383 116.61986,33.7185055 118.133346,33.8708935 L118.133346,34.7097865 C116.704323,34.7097865 115.31639,34.557702 113.886606,34.557702 C112.456821,34.557702 111.068127,34.7097865 109.638343,34.7097865 L109.638343,33.8708935 C110.521781,33.8708935 111.026276,33.3374595 111.026276,32.4599383 C111.026276,31.9265043 110.81626,31.2779445 110.521781,30.515625 L109.050146,26.9702509 L99.1672099,26.9702509 Z" id="Fill-3" fill="#00446B"></path>
                <path d="M125.700016,21.6699103 C125.700016,22.9284016 126.35898,23.1947012 128.381527,23.1947012 C133.657804,23.1947012 135.592844,20.4493642 135.592844,16.216878 C135.592844,12.2516021 133.437895,9.08666689 128.557302,9.08666689 C126.402353,9.08666689 125.87503,9.42969172 125.87503,10.3831034 L125.700016,21.6699103 Z M118.664474,8.09500641 C120.511247,8.09500641 122.358019,8.24769799 124.204792,8.24769799 C126.051565,8.24769799 127.854204,8.09500641 129.700216,8.09500641 C136.120167,8.09500641 140.955866,10.4975462 140.955866,15.9885996 C140.955866,21.6699103 135.019865,24.5676353 129.084625,24.5676353 C127.985845,24.5676353 126.887064,24.4911377 125.743389,24.4152472 L125.743389,31.0111137 C125.743389,32.4985665 126.315607,33.5280963 128.029217,33.8708935 L128.029217,34.7097865 C126.490621,34.7097865 124.951263,34.557702 123.412666,34.557702 C121.873308,34.557702 120.291338,34.7097865 118.752742,34.7097865 L118.752742,33.8708935 C120.951063,33.6039868 121.03857,31.8882555 121.03857,30.0959508 L121.03857,22.2036478 C121.03857,18.3142623 120.774528,14.8824963 120.774528,11.8699491 C120.774528,10.2686606 120.379606,9.31524892 118.664474,8.93420298 L118.664474,8.09500641 Z" id="Fill-4" fill="#00446B"></path>
                <path d="M26.1820944,1.82326801 C28.463966,8.66168038 23.4075979,14.0865573 20.5889676,19.6018956 C17.6124447,23.6601373 15.2859066,28.0130616 15.665762,33.5060122 C21.6847043,34.7818824 28.6880594,33.8933571 32.4474253,28.0355252 C34.8636767,24.867782 35.2888073,20.5597089 34.6848586,16.4110058 C33.4543616,13.470934 32.2007323,10.5310898 29.5387771,8.20565468 C33.2083535,9.45913721 36.4967809,13.0835132 38.0411608,16.6389807 C39.6812655,22.9451734 37.0564436,27.1466962 32.8944706,30.5430973 C30.8139406,32.4115961 28.4195278,33.5060122 25.9586098,34.4179118 C22.8032688,35.2154445 19.1565202,35.4661866 15.889551,35.3292802 C16.1356352,39.3862394 20.1846865,42.8288274 23.497007,43.9905812 C20.1631522,43.5355572 17.008496,42.1900803 14.9945472,38.976431 C14.2561425,37.6312728 13.6965559,36.195342 13.428633,34.6455832 C8.48351268,32.6171074 2.3076442,29.3123819 0.674813977,23.4770895 C-0.712609282,18.7813681 -0.0632864004,13.0373718 3.58378171,9.80155491 L6.04475294,9.80155491 C3.58378171,13.8130481 3.13547323,19.8077864 4.70203421,24.3892927 C6.24576735,28.0130616 9.64712412,30.4517252 12.7571139,32.5940367 C12.9809029,23.9333429 18.9105121,17.6878626 21.4833627,10.0292263 C19.2453206,8.6385338 16.1121986,8.78371222 13.7206012,9.87782481 C12.4517534,10.4570966 10.6607566,12.450511 10.6638764,13.6761417 C10.670877,15.9331995 11.0116967,18.0524403 12.7571139,19.6018956 C10.6540604,19.5111306 8.7970912,18.3028788 7.61034754,16.4110058 C6.55965024,14.5880414 7.54410113,12.490657 8.50603616,10.9408982 C11.6385494,7.63556564 16.560157,6.72359012 20.8124522,8.20565468 C21.2145267,8.34256105 21.4833627,8.82067087 21.9313972,8.88935173 C22.7585262,6.19964247 24.2354118,2.68970926 22.3790513,0 C23.7883664,0.273509174 25.5327944,0.182440637 26.1820944,1.82326801 Z" id="Fill-5" fill="#DF7B1B"></path>
            </g>
        </g>
    </g>
</svg>